<svg width="48" height="49" viewBox="0 0 48 49" fill="none" xmlns="http://www.w3.org/2000/svg">
<path d="M21.4004 16.94C21.1352 16.94 20.8808 16.8346 20.6933 16.6471C20.5057 16.4596 20.4004 16.2052 20.4004 15.94V14.25C20.4004 13.9848 20.5057 13.7304 20.6933 13.5429C20.8808 13.3554 21.1352 13.25 21.4004 13.25C21.6656 13.25 21.92 13.3554 22.1075 13.5429C22.295 13.7304 22.4004 13.9848 22.4004 14.25V15.94C22.4004 16.0713 22.3745 16.2014 22.3243 16.3227C22.274 16.444 22.2004 16.5542 22.1075 16.6471C22.0146 16.74 21.9044 16.8136 21.7831 16.8639C21.6617 16.9141 21.5317 16.94 21.4004 16.94Z" fill="#007171"/>
<path d="M21.4004 25.7798C21.1352 25.7798 20.8808 25.6745 20.6933 25.487C20.5057 25.2994 20.4004 25.0451 20.4004 24.7798V23.0898C20.4004 22.8246 20.5057 22.5703 20.6933 22.3827C20.8808 22.1952 21.1352 22.0898 21.4004 22.0898C21.6656 22.0898 21.92 22.1952 22.1075 22.3827C22.295 22.5703 22.4004 22.8246 22.4004 23.0898V24.7798C22.4004 25.0451 22.295 25.2994 22.1075 25.487C21.92 25.6745 21.6656 25.7798 21.4004 25.7798Z" fill="#007171"/>
<path d="M18.8291 21.31H18.9091C19.1049 21.1827 19.3392 21.1281 19.5712 21.1555C19.8032 21.1829 20.0182 21.2906 20.1791 21.46C20.3423 21.6123 20.5343 21.7306 20.7438 21.8078C20.9532 21.8851 21.176 21.9198 21.3991 21.91C22.1591 21.91 22.3991 21.63 22.3991 21.34C22.3991 20.86 21.8491 20.72 20.7891 20.42C19.4691 20.04 18.2891 19.37 18.2891 17.79C18.2971 17.4232 18.3806 17.0621 18.5343 16.729C18.6881 16.3959 18.9089 16.0981 19.1829 15.8541C19.4569 15.6102 19.7782 15.4253 20.1268 15.311C20.4754 15.1968 20.8438 15.1556 21.2091 15.19C22.0782 15.1666 22.9231 15.4781 23.5691 16.06C23.6882 16.1697 23.7789 16.3067 23.8334 16.4591C23.8879 16.6116 23.9045 16.775 23.8819 16.9354C23.8593 17.0957 23.798 17.2482 23.7035 17.3796C23.6089 17.5111 23.4839 17.6176 23.3391 17.69C23.1502 17.8069 22.9277 17.8576 22.7068 17.8341C22.4859 17.8106 22.2791 17.7141 22.1191 17.56C21.8731 17.3376 21.5505 17.2193 21.2191 17.23C20.6891 17.23 20.4391 17.48 20.4391 17.78C20.4391 18.08 20.7391 18.36 21.8791 18.69C23.1691 19.08 24.5491 19.56 24.5491 21.32C24.5491 23.08 23.2591 23.95 21.3591 23.95C20.3591 23.9875 19.385 23.628 18.6491 22.95C18.5375 22.8378 18.4525 22.7021 18.4002 22.5527C18.348 22.4034 18.3298 22.2443 18.3471 22.087C18.3643 21.9297 18.4166 21.7783 18.5 21.6439C18.5834 21.5094 18.6958 21.3953 18.8291 21.31Z" fill="#007171"/>
<path d="M27.4105 36.46H15.4805C15.2153 36.46 14.9609 36.3546 14.7734 36.1671C14.5858 35.9795 14.4805 35.7252 14.4805 35.46C14.4805 35.1947 14.5858 34.9404 14.7734 34.7529C14.9609 34.5653 15.2153 34.46 15.4805 34.46H27.3805C27.6457 34.46 27.9 34.5653 28.0876 34.7529C28.2751 34.9404 28.3805 35.1947 28.3805 35.46C28.3805 35.7252 28.2751 35.9795 28.0876 36.1671C27.9 36.3546 27.6457 36.46 27.3805 36.46H27.4105Z" fill="#007171"/>
<path d="M27.4105 32.46H15.4805C15.2153 32.46 14.9609 32.3546 14.7734 32.1671C14.5858 31.9795 14.4805 31.7252 14.4805 31.46C14.4805 31.1947 14.5858 30.9404 14.7734 30.7529C14.9609 30.5653 15.2153 30.46 15.4805 30.46H27.3805C27.6457 30.46 27.9 30.5653 28.0876 30.7529C28.2751 30.9404 28.3805 31.1947 28.3805 31.46C28.3805 31.7252 28.2751 31.9795 28.0876 32.1671C27.9 32.3546 27.6457 32.46 27.3805 32.46H27.4105Z" fill="#007171"/>
<path d="M34.59 18.38H32.77V11C32.77 10.2044 32.4539 9.44129 31.8913 8.87868C31.3287 8.31607 30.5656 8 29.77 8H13C12.2044 8 11.4413 8.31607 10.8787 8.87868C10.3161 9.44129 10 10.2044 10 11V37.92C10 38.7156 10.3161 39.4787 10.8787 40.0413C11.4413 40.6039 12.2044 40.92 13 40.92H31.14C32.9965 40.92 34.777 40.1825 36.0897 38.8697C37.4025 37.557 38.14 35.7765 38.14 33.92V21.87C38.1387 21.407 38.0456 20.9488 37.866 20.522C37.6864 20.0953 37.4239 19.7084 37.0937 19.3838C36.7635 19.0592 36.3722 18.8033 35.9424 18.631C35.5127 18.4587 35.053 18.3734 34.59 18.38ZM36.09 33.97C36.0901 35.2875 35.5701 36.5517 34.6433 37.488C33.7164 38.4242 32.4574 38.9568 31.14 38.97H13C12.7348 38.97 12.4804 38.8646 12.2929 38.6771C12.1054 38.4896 12 38.2352 12 37.97V11C12 10.7348 12.1054 10.4804 12.2929 10.2929C12.4804 10.1054 12.7348 10 13 10H29.77C30.0352 10 30.2896 10.1054 30.4771 10.2929C30.6646 10.4804 30.77 10.7348 30.77 11V33.2L32.77 32.05V20.38H34.59C34.9861 20.38 35.3661 20.5367 35.6471 20.8158C35.9282 21.0949 36.0874 21.4739 36.09 21.87V33.97Z" fill="#272727"/>
</svg>
