<svg width="48" height="49" viewBox="0 0 48 49" fill="none" xmlns="http://www.w3.org/2000/svg">
<path d="M26 10H18C17.4 10 17 10.4 17 11C17 11.6 17.4 12 18 12H26C26.6 12 27 11.6 27 11C27 10.4 26.6 10 26 10Z" fill="#272727"/>
<path d="M22 38C22.8284 38 23.5 37.3284 23.5 36.5C23.5 35.6716 22.8284 35 22 35C21.1716 35 20.5 35.6716 20.5 36.5C20.5 37.3284 21.1716 38 22 38Z" fill="#272727"/>
<path d="M31 35.2V38.5C31 39.3 30.3 40 29.5 40H14.5C13.7 40 13 39.3 13 38.5V9.5C13 8.7 13.7 8 14.5 8H29.6C30.3 8 31 8.7 31 9.5V15.6C31.7 15.9 32.4 16.3 33 16.8V9.5C33 7.5 31.5 6 29.5 6H14.5C12.5 6 11 7.5 11 9.5V38.6C11 40.5 12.5 42.1 14.5 42.1H29.6C31.5 42.1 33.1 40.6 33.1 38.6V34.1L31 35.2Z" fill="#272727"/>
<path d="M27.4 14.7002C22.2 14.7002 18 18.9002 18 24.1002C18 29.3002 22.2 33.5002 27.4 33.5002C32.6 33.5002 36.8 29.3002 36.8 24.1002C36.7 18.8002 32.5 14.7002 27.4 14.7002ZM27.4 31.4002C23.3 31.4002 20 28.1002 20 24.0002C20 19.9002 23.3 16.6002 27.4 16.6002C31.5 16.6002 34.8 19.9002 34.8 24.0002C34.7 28.1002 31.4 31.3002 27.4 31.4002Z" fill="#007171"/>
<path d="M25.5996 21.8999C26.428 21.8999 27.0996 21.2283 27.0996 20.3999C27.0996 19.5715 26.428 18.8999 25.5996 18.8999C24.7712 18.8999 24.0996 19.5715 24.0996 20.3999C24.0996 21.2283 24.7712 21.8999 25.5996 21.8999Z" fill="#007171"/>
<path d="M30.0996 28.2002C30.928 28.2002 31.5996 27.5286 31.5996 26.7002C31.5996 25.8718 30.928 25.2002 30.0996 25.2002C29.2712 25.2002 28.5996 25.8718 28.5996 26.7002C28.5996 27.5286 29.2712 28.2002 30.0996 28.2002Z" fill="#007171"/>
<path d="M30 28.2C26.6 27.8 24 24.8 24 21.4C24 20.9 24 20.5 24.1 20L26.1 20.4C26 20.7 26 21.1 26 21.4C26 23.8 27.8 25.9 30.2 26.2L30 28.2Z" fill="#007171"/>
</svg>
