<svg width="48" height="49" viewBox="0 0 48 49" fill="none" xmlns="http://www.w3.org/2000/svg">
<path d="M42.2992 9.34116C41.9992 9.04116 41.6992 8.94116 41.2992 9.14116L40.9992 9.24116L33.1992 13.7412L40.0992 11.6412L33.3992 34.4412L21.6992 27.8412C21.1992 27.5412 20.5992 27.7412 20.2992 28.2412C19.9992 28.7412 20.1992 29.3412 20.6992 29.6412L33.5992 36.7412C33.8992 36.8412 34.1992 36.8412 34.4992 36.7412C34.7992 36.6412 34.9992 36.4412 35.0992 36.1412L42.6992 10.4412C42.6992 9.94116 42.5992 9.64116 42.2992 9.34116Z" fill="#272727"/>
<path d="M6.7 19.8409C6.3 19.9409 6 20.3409 6 20.7409C6 21.1409 6.2 21.5409 6.6 21.7409L11.5 24.0409L13.5 22.8409L9.8 20.9409L24.8 16.3409L32.3 12.0409V11.9409L6.7 19.8409Z" fill="#272727"/>
<path d="M22.8996 32.1411C22.4996 31.7411 21.7996 31.8411 21.4996 32.2411L17.5996 36.8411L16.9996 30.1411L15.0996 31.2411L15.7996 39.4411C15.7996 39.8411 16.0996 40.1411 16.4996 40.3411C16.8996 40.4411 17.2996 40.3411 17.5996 40.0411L22.9996 33.6411C23.3996 33.2411 23.3996 32.5411 22.8996 32.1411Z" fill="#272727"/>
<path d="M14.6992 25.6411L14.9992 28.9411L16.8992 27.8411L16.5992 24.9411C16.5992 24.6411 16.3992 24.2411 15.9992 24.1411L14.6992 25.6411Z" fill="#272727"/>
<path d="M11.3008 35.5409C10.7008 35.5409 10.3008 35.1409 10.3008 34.5409C10.3008 34.1409 10.5008 33.8409 10.8008 33.6409L17.8008 29.6409C18.3008 29.3409 18.9008 29.4409 19.2008 29.9409C19.5008 30.4409 19.4008 31.0409 18.9008 31.3409C18.9008 31.3409 18.9008 31.3409 18.8008 31.3409L11.8008 35.3409C11.6008 35.5409 11.4008 35.5409 11.3008 35.5409Z" fill="#007171"/>
<path d="M19.3008 23.941C18.7008 23.941 18.3008 23.541 18.3008 22.941C18.3008 22.541 18.5008 22.241 18.8008 22.041L41.2008 9.14095C41.7008 8.84095 42.3008 9.04095 42.5008 9.54095C42.7008 10.041 42.6008 10.541 42.2008 10.841L19.8008 23.841C19.6008 23.941 19.4008 23.941 19.3008 23.941Z" fill="#007171"/>
<path d="M7.40039 30.8408C6.80039 30.8408 6.40039 30.4408 6.40039 29.8408C6.40039 29.4408 6.60039 29.1408 6.90039 28.9408L15.5004 23.9408C16.0004 23.6408 16.6004 23.8408 16.9004 24.3408C17.2004 24.8408 17.0004 25.4408 16.5004 25.7408L7.90039 30.7408C7.70039 30.8408 7.60039 30.8408 7.40039 30.8408Z" fill="#007171"/>
</svg>
