<svg width="48" height="49" viewBox="0 0 48 49" fill="none" xmlns="http://www.w3.org/2000/svg">
<path d="M21.2695 35.7V30H19.2695C18.4739 30 17.7108 29.6839 17.1482 29.1213C16.5856 28.5587 16.2695 27.7956 16.2695 27V14C16.2695 13.2044 16.5856 12.4413 17.1482 11.8787C17.7108 11.3161 18.4739 11 19.2695 11H38.2695C39.0652 11 39.8282 11.3161 40.3909 11.8787C40.9535 12.4413 41.2695 13.2044 41.2695 14V27C41.2695 27.7956 40.9535 28.5587 40.3909 29.1213C39.8282 29.6839 39.0652 30 38.2695 30H31.2695L21.2695 35.7ZM19.2495 13C18.9843 13 18.73 13.1054 18.5424 13.2929C18.3549 13.4804 18.2495 13.7348 18.2495 14V27C18.2495 27.2652 18.3549 27.5196 18.5424 27.7071C18.73 27.8946 18.9843 28 19.2495 28H23.2495V32.25L30.6895 28H38.2595C38.5247 28 38.7791 27.8946 38.9666 27.7071C39.1542 27.5196 39.2595 27.2652 39.2595 27V14C39.2595 13.7348 39.1542 13.4804 38.9666 13.2929C38.7791 13.1054 38.5247 13 38.2595 13H19.2495Z" fill="#272727"/>
<path d="M23.7598 21.9902C24.5882 21.9902 25.2598 21.3187 25.2598 20.4902C25.2598 19.6618 24.5882 18.9902 23.7598 18.9902C22.9313 18.9902 22.2598 19.6618 22.2598 20.4902C22.2598 21.3187 22.9313 21.9902 23.7598 21.9902Z" fill="#007171"/>
<path d="M28.7598 21.9902C29.5882 21.9902 30.2598 21.3187 30.2598 20.4902C30.2598 19.6618 29.5882 18.9902 28.7598 18.9902C27.9313 18.9902 27.2598 19.6618 27.2598 20.4902C27.2598 21.3187 27.9313 21.9902 28.7598 21.9902Z" fill="#007171"/>
<path d="M33.7598 21.9902C34.5882 21.9902 35.2598 21.3187 35.2598 20.4902C35.2598 19.6618 34.5882 18.9902 33.7598 18.9902C32.9313 18.9902 32.2598 19.6618 32.2598 20.4902C32.2598 21.3187 32.9313 21.9902 33.7598 21.9902Z" fill="#007171"/>
<path d="M18.5996 31.1398H14.5996C14.3344 31.1398 14.08 31.0345 13.8925 30.847C13.705 30.6594 13.5996 30.4051 13.5996 30.1398V14.3398C13.0161 14.5462 12.5106 14.9279 12.1525 15.4328C11.7945 15.9376 11.6013 16.5409 11.5996 17.1598V30.1598C11.5996 30.9555 11.9157 31.7186 12.4783 32.2812C13.0409 32.8438 13.804 33.1598 14.5996 33.1598H16.5996V36.1598L18.5996 34.9998V31.1398Z" fill="#007171"/>
<path d="M14 34.28H10C9.73478 34.28 9.48043 34.1746 9.29289 33.9871C9.10536 33.7996 9 33.5452 9 33.28V17.48C8.41805 17.6857 7.91373 18.066 7.55581 18.5688C7.19789 19.0717 7.0038 19.6727 7 20.29V33.29C7 34.0856 7.31607 34.8487 7.87868 35.4113C8.44129 35.9739 9.20435 36.29 10 36.29H12V38.78L14 37.62V34.28Z" fill="#272727"/>
</svg>
