<svg width="48" height="49" viewBox="0 0 48 49" fill="none" xmlns="http://www.w3.org/2000/svg">
<path d="M35.9233 9H11.3633C10.5676 9 9.80457 9.31607 9.24196 9.87868C8.67935 10.4413 8.36328 11.2044 8.36328 12V30.79L10.3633 29.64V12C10.3633 11.7348 10.4686 11.4804 10.6562 11.2929C10.8437 11.1054 11.0981 11 11.3633 11H35.9233C36.1885 11 36.4429 11.1054 36.6304 11.2929C36.8179 11.4804 36.9233 11.7348 36.9233 12V30H27.9233C27.9514 30.5828 27.8609 31.1652 27.6572 31.712C27.4535 32.2588 27.1409 32.7585 26.7384 33.1809C26.3359 33.6033 25.8518 33.9396 25.3155 34.1693C24.7792 34.3991 24.2018 34.5175 23.6183 34.5175C23.0348 34.5175 22.4574 34.3991 21.9211 34.1693C21.3848 33.9396 20.9007 33.6033 20.4981 33.1809C20.0956 32.7585 19.783 32.2588 19.5794 31.712C19.3757 31.1652 19.2852 30.5828 19.3133 30H13.8133L8.36328 33.1V36.56C8.36328 37.3556 8.67935 38.1187 9.24196 38.6813C9.80457 39.2439 10.5676 39.56 11.3633 39.56H35.9233C36.7189 39.56 37.482 39.2439 38.0446 38.6813C38.6072 38.1187 38.9233 37.3556 38.9233 36.56V12C38.9233 11.2044 38.6072 10.4413 38.0446 9.87868C37.482 9.31607 36.7189 9 35.9233 9ZM36.9233 36.56C36.9233 36.8252 36.8179 37.0796 36.6304 37.2671C36.4429 37.4546 36.1885 37.56 35.9233 37.56H11.3633C11.0981 37.56 10.8437 37.4546 10.6562 37.2671C10.4686 37.0796 10.3633 36.8252 10.3633 36.56V31.95H17.6633C18.0704 33.2215 18.8708 34.3308 19.9492 35.1179C21.0276 35.9049 22.3282 36.3291 23.6633 36.3291C24.9984 36.3291 26.2989 35.9049 27.3773 35.1179C28.4557 34.3308 29.2562 33.2215 29.6633 31.95H36.9733L36.9233 36.56Z" fill="#272727"/>
<path d="M24.4635 20.9701C24.4685 20.9001 24.4685 20.83 24.4635 20.7601C24.448 20.7019 24.4279 20.6451 24.4035 20.5901C24.3881 20.5254 24.368 20.4619 24.3435 20.4001C24.3086 20.3493 24.2684 20.3023 24.2235 20.2601C24.1735 20.2101 24.1435 20.1501 24.0935 20.1101L23.9035 20.0101L23.7435 19.9301L18.7435 18.6301C18.6131 18.585 18.4748 18.5674 18.3372 18.5784C18.1996 18.5894 18.0658 18.6287 17.9442 18.6939C17.8226 18.7591 17.7158 18.8488 17.6306 18.9573C17.5453 19.0658 17.4834 19.1908 17.4488 19.3244C17.4142 19.458 17.4076 19.5973 17.4295 19.7336C17.4513 19.8698 17.5011 20.0001 17.5758 20.1161C17.6504 20.2322 17.7483 20.3316 17.8632 20.408C17.9781 20.4844 18.1076 20.5361 18.2435 20.5601L20.8735 21.2501L4.46353 30.7301C4.24586 30.8684 4.09008 31.0855 4.02872 31.3361C3.96735 31.5866 4.00516 31.8511 4.13423 32.0744C4.26331 32.2977 4.47367 32.4625 4.72138 32.5344C4.96909 32.6062 5.23499 32.5796 5.46353 32.4601L21.8435 22.9801L21.1035 25.6201C21.0669 25.7468 21.0558 25.8795 21.0707 26.0105C21.0856 26.1416 21.1263 26.2684 21.1905 26.3837C21.2546 26.4989 21.3409 26.6003 21.4444 26.6821C21.5479 26.7639 21.6666 26.8243 21.7935 26.8601C21.8833 26.8699 21.9738 26.8699 22.0635 26.8601C22.288 26.8684 22.5087 26.8009 22.6901 26.6684C22.8715 26.536 23.003 26.3464 23.0635 26.1301L24.4635 21.1301C24.4635 21.0801 24.4635 21.0301 24.4635 20.9701Z" fill="#007171"/>
</svg>
