<svg width="48" height="49" viewBox="0 0 48 49" fill="none" xmlns="http://www.w3.org/2000/svg">
<path d="M24.32 6C20.7855 6.0053 17.3975 7.4131 14.9001 9.91426C12.4027 12.4154 11 15.8055 11 19.34V26.73H13V19.34C13 16.3377 14.1926 13.4585 16.3156 11.3356C18.4385 9.21264 21.3177 8.02 24.32 8.02C27.3223 8.02 30.2015 9.21264 32.3244 11.3356C34.4474 13.4585 35.64 16.3377 35.64 19.34V28.22C35.6362 30.8026 34.751 33.3065 33.1309 35.3176C31.5107 37.3287 29.2526 38.7266 26.73 39.28V41.28C29.7847 40.7141 32.5462 39.0998 34.5379 36.7156C36.5296 34.3313 37.6268 31.3267 37.64 28.22V19.34C37.64 15.8055 36.2373 12.4154 33.7399 9.91426C31.2425 7.4131 27.8545 6.0053 24.32 6Z" fill="#272727"/>
<path d="M14.5508 30C14.2856 30 14.0312 29.8947 13.8437 29.7071C13.6561 29.5196 13.5508 29.2653 13.5508 29V21.29C13.5508 21.0248 13.6561 20.7705 13.8437 20.5829C14.0312 20.3954 14.2856 20.29 14.5508 20.29C14.816 20.29 15.0704 20.3954 15.2579 20.5829C15.4454 20.7705 15.5508 21.0248 15.5508 21.29V29C15.5508 29.2653 15.4454 29.5196 15.2579 29.7071C15.0704 29.8947 14.816 30 14.5508 30Z" fill="#007171"/>
<path d="M34.1191 30C33.8539 30 33.5996 29.8947 33.412 29.7071C33.2245 29.5196 33.1191 29.2653 33.1191 29V21.29C33.1191 21.0248 33.2245 20.7705 33.412 20.5829C33.5996 20.3954 33.8539 20.29 34.1191 20.29C34.3844 20.29 34.6387 20.3954 34.8262 20.5829C35.0138 20.7705 35.1191 21.0248 35.1191 21.29V29C35.1191 29.2653 35.0138 29.5196 34.8262 29.7071C34.6387 29.8947 34.3844 30 34.1191 30Z" fill="#007171"/>
<path d="M26.3209 43.0501H23.3209C23.0478 43.054 22.7765 43.0041 22.5226 42.9033C22.2688 42.8024 22.0372 42.6525 21.8413 42.4621C21.6454 42.2718 21.4889 42.0447 21.3807 41.7938C21.2725 41.5429 21.2148 41.2732 21.2109 41.0001V39.4101C21.2122 39.1352 21.268 38.8633 21.375 38.6102C21.482 38.357 21.6381 38.1275 21.8343 37.9351C22.0305 37.7426 22.2629 37.5909 22.5181 37.4888C22.7732 37.3866 23.0461 37.3361 23.3209 37.3401H26.3209C26.8709 37.3401 27.3984 37.5578 27.7882 37.9457C28.178 38.3337 28.3983 38.8601 28.4009 39.4101V41.0001C28.3931 41.5465 28.1704 42.0679 27.7812 42.4515C27.392 42.8351 26.8674 43.0501 26.3209 43.0501ZM23.3209 39.3401C23.3013 39.3399 23.2824 39.3469 23.2676 39.3599C23.2529 39.3728 23.2434 39.3906 23.2409 39.4101V41.0001C23.2434 41.0195 23.2529 41.0374 23.2676 41.0503C23.2824 41.0632 23.3013 41.0702 23.3209 41.0701H26.3209C26.3405 41.0702 26.3595 41.0632 26.3742 41.0503C26.389 41.0374 26.3985 41.0195 26.4009 41.0001V39.4101C26.3985 39.3906 26.389 39.3728 26.3742 39.3599C26.3595 39.3469 26.3405 39.3399 26.3209 39.3401H23.3209Z" fill="#007171"/>
</svg>
