<svg width="48" height="49" viewBox="0 0 48 49" fill="none" xmlns="http://www.w3.org/2000/svg">
<path d="M12.5508 26.9302C13.3792 26.9302 14.0508 26.2586 14.0508 25.4302C14.0508 24.6017 13.3792 23.9302 12.5508 23.9302C11.7224 23.9302 11.0508 24.6017 11.0508 25.4302C11.0508 26.2586 11.7224 26.9302 12.5508 26.9302Z" fill="#007171"/>
<path d="M17.75 26.9302C18.5784 26.9302 19.25 26.2586 19.25 25.4302C19.25 24.6017 18.5784 23.9302 17.75 23.9302C16.9216 23.9302 16.25 24.6017 16.25 25.4302C16.25 26.2586 16.9216 26.9302 17.75 26.9302Z" fill="#007171"/>
<path d="M38 33.69L28.05 28H21C20.2044 28 19.4413 27.6839 18.8787 27.1213C18.3161 26.5587 18 25.7956 18 25V12C18 11.2044 18.3161 10.4413 18.8787 9.87868C19.4413 9.31607 20.2044 9 21 9H40C40.7956 9 41.5587 9.31607 42.1213 9.87868C42.6839 10.4413 43 11.2044 43 12V25C43 25.7956 42.6839 26.5587 42.1213 27.1213C41.5587 27.6839 40.7956 28 40 28H38V33.69ZM21 11.01C20.7348 11.01 20.4804 11.1154 20.2929 11.3029C20.1054 11.4904 20 11.7448 20 12.01V25.01C20 25.2752 20.1054 25.5296 20.2929 25.7171C20.4804 25.9046 20.7348 26.01 21 26.01H28.57L36 30.25V26H40C40.2652 26 40.5196 25.8946 40.7071 25.7071C40.8946 25.5196 41 25.2652 41 25V12C41 11.7348 40.8946 11.4804 40.7071 11.2929C40.5196 11.1054 40.2652 11 40 11L21 11.01Z" fill="#272727"/>
<path d="M28 30.26V32.04C28 32.3053 27.8946 32.5596 27.7071 32.7471C27.5196 32.9347 27.2652 33.04 27 33.04H19.41L12 37.29V33.04H8C7.73478 33.04 7.48043 32.9347 7.29289 32.7471C7.10536 32.5596 7 32.3053 7 32.04V19.04C7 18.7748 7.10536 18.5205 7.29289 18.3329C7.48043 18.1454 7.73478 18.04 8 18.04H18V16.04H8C7.20435 16.04 6.44129 16.3561 5.87868 16.9187C5.31607 17.4813 5 18.2444 5 19.04V32.04C5 32.8357 5.31607 33.5988 5.87868 34.1614C6.44129 34.724 7.20435 35.04 8 35.04H10V40.74L20 35.04H27C27.7956 35.04 28.5587 34.724 29.1213 34.1614C29.6839 33.5988 30 32.8357 30 32.04V31.4L28 30.26Z" fill="#272727"/>
<path d="M36.8809 16.6602C37.7093 16.6602 38.3809 15.9886 38.3809 15.1602C38.3809 14.3317 37.7093 13.6602 36.8809 13.6602C36.0524 13.6602 35.3809 14.3317 35.3809 15.1602C35.3809 15.9886 36.0524 16.6602 36.8809 16.6602Z" fill="#007171"/>
<path d="M22.6608 23.3901C22.4795 23.3899 22.301 23.3452 22.1408 23.2601C22.0194 23.1925 21.9125 23.1014 21.8265 22.9921C21.7405 22.8829 21.6771 22.7576 21.6399 22.6237C21.6027 22.4897 21.5924 22.3497 21.6098 22.2118C21.6271 22.0738 21.6716 21.9407 21.7408 21.8201L25.9208 14.3701C26.0111 14.2076 26.143 14.0719 26.3028 13.9771C26.4627 13.8822 26.6449 13.8315 26.8308 13.8301C27.0148 13.8306 27.1956 13.8776 27.3564 13.9668C27.5173 14.0559 27.653 14.1844 27.7508 14.3401L30.1908 18.3401L32.3308 16.1601C32.5326 15.9628 32.8036 15.8523 33.0858 15.8523C33.368 15.8523 33.639 15.9628 33.8408 16.1601L39.1208 21.5401C39.3184 21.7403 39.4284 22.0108 39.4265 22.2921C39.4246 22.5735 39.3111 22.8425 39.1108 23.0401C38.9106 23.2377 38.6401 23.3476 38.3588 23.3457C38.0775 23.3439 37.8084 23.2303 37.6108 23.0301L33.0808 18.4101L30.7508 20.8001C30.6362 20.9137 30.4979 21.0004 30.3457 21.054C30.1935 21.1076 30.0313 21.1268 29.8708 21.1101C29.7092 21.0901 29.5542 21.0339 29.4174 20.9456C29.2806 20.8573 29.1656 20.7391 29.0808 20.6001L26.8808 16.9401L23.5908 22.8001C23.5039 22.9735 23.3714 23.12 23.2076 23.2239C23.0438 23.3278 22.8548 23.3853 22.6608 23.3901Z" fill="#007171"/>
</svg>
