<svg width="48" height="48" viewBox="0 0 48 48" fill="none" xmlns="http://www.w3.org/2000/svg">
<path d="M28 12H20C19.7348 12 19.4804 11.8946 19.2929 11.7071C19.1054 11.5196 19 11.2652 19 11C19 10.7348 19.1054 10.4804 19.2929 10.2929C19.4804 10.1054 19.7348 10 20 10H28C28.2652 10 28.5196 10.1054 28.7071 10.2929C28.8946 10.4804 29 10.7348 29 11C29 11.2652 28.8946 11.5196 28.7071 11.7071C28.5196 11.8946 28.2652 12 28 12Z" fill="#272727"/>
<path d="M24 38C24.8284 38 25.5 37.3284 25.5 36.5C25.5 35.6716 24.8284 35 24 35C23.1716 35 22.5 35.6716 22.5 36.5C22.5 37.3284 23.1716 38 24 38Z" fill="#272727"/>
<path d="M24 29C24.5523 29 25 28.5523 25 28C25 27.4477 24.5523 27 24 27C23.4477 27 23 27.4477 23 28C23 28.5523 23.4477 29 24 29Z" fill="#017171"/>
<path d="M24 26C24.5523 26 25 25.5523 25 25C25 24.4477 24.5523 24 24 24C23.4477 24 23 24.4477 23 25C23 25.5523 23.4477 26 24 26Z" fill="#017171"/>
<path d="M24 23C24.5523 23 25 22.5523 25 22C25 21.4477 24.5523 21 24 21C23.4477 21 23 21.4477 23 22C23 22.5523 23.4477 23 24 23Z" fill="#017171"/>
<path d="M24 20C24.5523 20 25 19.5523 25 19C25 18.4477 24.5523 18 24 18C23.4477 18 23 18.4477 23 19C23 19.5523 23.4477 20 24 20Z" fill="#017171"/>
<path d="M21 26C21.5523 26 22 25.5523 22 25C22 24.4477 21.5523 24 21 24C20.4477 24 20 24.4477 20 25C20 25.5523 20.4477 26 21 26Z" fill="#017171"/>
<path d="M21 23C21.5523 23 22 22.5523 22 22C22 21.4477 21.5523 21 21 21C20.4477 21 20 21.4477 20 22C20 22.5523 20.4477 23 21 23Z" fill="#017171"/>
<path d="M21 20C21.5523 20 22 19.5523 22 19C22 18.4477 21.5523 18 21 18C20.4477 18 20 18.4477 20 19C20 19.5523 20.4477 20 21 20Z" fill="#017171"/>
<path d="M27 26C27.5523 26 28 25.5523 28 25C28 24.4477 27.5523 24 27 24C26.4477 24 26 24.4477 26 25C26 25.5523 26.4477 26 27 26Z" fill="#017171"/>
<path d="M27 23C27.5523 23 28 22.5523 28 22C28 21.4477 27.5523 21 27 21C26.4477 21 26 21.4477 26 22C26 22.5523 26.4477 23 27 23Z" fill="#017171"/>
<path d="M27 20C27.5523 20 28 19.5523 28 19C28 18.4477 27.5523 18 27 18C26.4477 18 26 18.4477 26 19C26 19.5523 26.4477 20 27 20Z" fill="#017171"/>
<path d="M31.54 42H16.46C15.5424 42 14.6623 41.6355 14.0134 40.9866C13.3645 40.3377 13 39.4576 13 38.54V9.46C13 8.54235 13.3645 7.66229 14.0134 7.01341C14.6623 6.36453 15.5424 6 16.46 6H31.54C32.4576 6 33.3377 6.36453 33.9866 7.01341C34.6355 7.66229 35 8.54235 35 9.46V38.54C35 39.4576 34.6355 40.3377 33.9866 40.9866C33.3377 41.6355 32.4576 42 31.54 42ZM16.46 8C16.0728 8 15.7014 8.15382 15.4276 8.42762C15.1538 8.70143 15 9.07278 15 9.46V38.54C15 38.9272 15.1538 39.2986 15.4276 39.5724C15.7014 39.8462 16.0728 40 16.46 40H31.54C31.9272 40 32.2986 39.8462 32.5724 39.5724C32.8462 39.2986 33 38.9272 33 38.54V9.46C33 9.07278 32.8462 8.70143 32.5724 8.42762C32.2986 8.15382 31.9272 8 31.54 8H16.46Z" fill="#272727"/>
</svg>
