<svg width="48" height="49" viewBox="0 0 48 49" fill="none" xmlns="http://www.w3.org/2000/svg">
<path d="M22.1309 38.46H11.1309C10.8656 38.46 10.6113 38.3546 10.4238 38.1671C10.2362 37.9795 10.1309 37.7252 10.1309 37.46C10.1309 37.1947 10.2362 36.9404 10.4238 36.7529C10.6113 36.5653 10.8656 36.46 11.1309 36.46H22.1309C22.3961 36.46 22.6504 36.5653 22.838 36.7529C23.0255 36.9404 23.1309 37.1947 23.1309 37.46C23.1309 37.7252 23.0255 37.9795 22.838 38.1671C22.6504 38.3546 22.3961 38.46 22.1309 38.46Z" fill="#007171"/>
<path d="M24 14H13C12.7348 14 12.4804 13.8946 12.2929 13.7071C12.1054 13.5196 12 13.2652 12 13C12 12.7348 12.1054 12.4804 12.2929 12.2929C12.4804 12.1054 12.7348 12 13 12H24C24.2652 12 24.5196 12.1054 24.7071 12.2929C24.8946 12.4804 25 12.7348 25 13C25 13.2652 24.8946 13.5196 24.7071 13.7071C24.5196 13.8946 24.2652 14 24 14Z" fill="#007272"/>
<path d="M24 19H13C12.7348 19 12.4804 18.8946 12.2929 18.7071C12.1054 18.5196 12 18.2652 12 18C12 17.7348 12.1054 17.4804 12.2929 17.2929C12.4804 17.1054 12.7348 17 13 17H24C24.2652 17 24.5196 17.1054 24.7071 17.2929C24.8946 17.4804 25 17.7348 25 18C25 18.2652 24.8946 18.5196 24.7071 18.7071C24.5196 18.8946 24.2652 19 24 19Z" fill="#007272"/>
<path d="M24 14H13C12.7348 14 12.4804 13.8946 12.2929 13.7071C12.1054 13.5196 12 13.2652 12 13C12 12.7348 12.1054 12.4804 12.2929 12.2929C12.4804 12.1054 12.7348 12 13 12H24C24.2652 12 24.5196 12.1054 24.7071 12.2929C24.8946 12.4804 25 12.7348 25 13C25 13.2652 24.8946 13.5196 24.7071 13.7071C24.5196 13.8946 24.2652 14 24 14Z" fill="#007171"/>
<path d="M24 19H13C12.7348 19 12.4804 18.8946 12.2929 18.7071C12.1054 18.5196 12 18.2652 12 18C12 17.7348 12.1054 17.4804 12.2929 17.2929C12.4804 17.1054 12.7348 17 13 17H24C24.2652 17 24.5196 17.1054 24.7071 17.2929C24.8946 17.4804 25 17.7348 25 18C25 18.2652 24.8946 18.5196 24.7071 18.7071C24.5196 18.8946 24.2652 19 24 19Z" fill="#007171"/>
<path d="M39 30.87C39.7957 30.87 40.5587 30.5539 41.1213 29.9913C41.6839 29.4287 42 28.6656 42 27.87V14.87C42 14.0744 41.6839 13.3113 41.1213 12.7487C40.5587 12.1861 39.7957 11.87 39 11.87H31V9C31 8.20435 30.6839 7.44129 30.1213 6.87868C29.5587 6.31607 28.7956 6 28 6H9C8.20435 6 7.44129 6.31607 6.87868 6.87868C6.31607 7.44129 6 8.20435 6 9V22C6 22.7956 6.31607 23.5587 6.87868 24.1213C7.44129 24.6839 8.20435 25 9 25H11V30.7L21 25H28C28.7956 25 29.5587 24.6839 30.1213 24.1213C30.6839 23.5587 31 22.7956 31 22V13.89H39C39.2652 13.89 39.5196 13.9954 39.7071 14.1829C39.8946 14.3704 40 14.6248 40 14.89V27.89C40 28.1552 39.8946 28.4096 39.7071 28.5971C39.5196 28.7846 39.2652 28.89 39 28.89H35V33.14L27.58 28.89H20C19.8235 28.8869 19.651 28.8372 19.4999 28.7459C19.3489 28.6546 19.2247 28.5249 19.14 28.37L17.4 29.37C17.6635 29.8263 18.0425 30.2052 18.4989 30.4686C18.9553 30.7319 19.4731 30.8703 20 30.87H27L37 36.57V34.19H39C39.2652 34.19 39.5196 34.2954 39.7071 34.4829C39.8946 34.6704 40 34.9248 40 35.19V39.73C40 39.9952 39.8946 40.2496 39.7071 40.4371C39.5196 40.6246 39.2652 40.73 39 40.73H9C8.73478 40.73 8.48043 40.6246 8.29289 40.4371C8.10536 40.2496 8 39.9952 8 39.73V35.19C8 34.9248 8.10536 34.6704 8.29289 34.4829C8.48043 34.2954 8.73478 34.19 9 34.19H28.81L25.32 32.19H9C8.20435 32.19 7.44129 32.5061 6.87868 33.0687C6.31607 33.6313 6 34.3944 6 35.19V39.73C6 40.5257 6.31607 41.2887 6.87868 41.8513C7.44129 42.4139 8.20435 42.73 9 42.73H39C39.7957 42.73 40.5587 42.4139 41.1213 41.8513C41.6839 41.2887 42 40.5257 42 39.73V35.19C42 34.3944 41.6839 33.6313 41.1213 33.0687C40.5587 32.5061 39.7957 32.19 39 32.19H37V30.87H39ZM29 22C29 22.2652 28.8946 22.5196 28.7071 22.7071C28.5196 22.8946 28.2652 23 28 23H20.43L13 27.26V23H9C8.73478 23 8.48043 22.8946 8.29289 22.7071C8.10536 22.5196 8 22.2652 8 22V9C8 8.73478 8.10536 8.48043 8.29289 8.29289C8.48043 8.10536 8.73478 8 9 8H28C28.2652 8 28.5196 8.10536 28.7071 8.29289C28.8946 8.48043 29 8.73478 29 9V22Z" fill="#272727"/>
<path d="M25 38.46C25.5523 38.46 26 38.0122 26 37.46C26 36.9077 25.5523 36.46 25 36.46C24.4477 36.46 24 36.9077 24 37.46C24 38.0122 24.4477 38.46 25 38.46Z" fill="#007171"/>
<path d="M28 38.46C28.5523 38.46 29 38.0122 29 37.46C29 36.9077 28.5523 36.46 28 36.46C27.4477 36.46 27 36.9077 27 37.46C27 38.0122 27.4477 38.46 28 38.46Z" fill="#007171"/>
</svg>
