<svg width="48" height="49" viewBox="0 0 48 49" fill="none" xmlns="http://www.w3.org/2000/svg">
<path d="M30.5 31C31.3284 31 32 30.3284 32 29.5C32 28.6716 31.3284 28 30.5 28C29.6716 28 29 28.6716 29 29.5C29 30.3284 29.6716 31 30.5 31Z" fill="#007171"/>
<path d="M35.5 31C36.3284 31 37 30.3284 37 29.5C37 28.6716 36.3284 28 35.5 28C34.6716 28 34 28.6716 34 29.5C34 30.3284 34.6716 31 35.5 31Z" fill="#007171"/>
<path d="M40 20H39V7C39 6.20435 38.6839 5.44129 38.1213 4.87868C37.5587 4.31607 36.7956 4 36 4H14C13.2044 4 12.4413 4.31607 11.8787 4.87868C11.3161 5.44129 11 6.20435 11 7V13H8C7.20435 13 6.44129 13.3161 5.87868 13.8787C5.31607 14.4413 5 15.2044 5 16V29C5 29.7956 5.31607 30.5587 5.87868 31.1213C6.44129 31.6839 7.20435 32 8 32H10V37.73L18 33.11L19.93 32H27C27.7956 32 28.5587 31.6839 29.1213 31.1213C29.6839 30.5587 30 29.7956 30 29V25H36C36.7956 25 37.5587 24.6839 38.1213 24.1213C38.6839 23.5587 39 22.7956 39 22H40C40.2652 22 40.5196 22.1054 40.7071 22.2929C40.8946 22.4804 41 22.7348 41 23V36C41 36.2652 40.8946 36.5196 40.7071 36.7071C40.5196 36.8946 40.2652 37 40 37H36V41.27L28.61 37H21C20.7348 37 20.4804 36.8946 20.2929 36.7071C20.1054 36.5196 20 36.2652 20 36V34.27L18 35.42V36C18 36.7957 18.3161 37.5587 18.8787 38.1213C19.4413 38.6839 20.2044 39 21 39H28.07L38 44.73V39H40C40.7957 39 41.5587 38.6839 42.1213 38.1213C42.6839 37.5587 43 36.7957 43 36V23C43 22.2044 42.6839 21.4413 42.1213 20.8787C41.5587 20.3161 40.7957 20 40 20ZM28 20V29C28 29.2652 27.8946 29.5196 27.7071 29.7071C27.5196 29.8946 27.2652 30 27 30H19.39L18 30.8L12 34.27V30H8C7.73478 30 7.48043 29.8946 7.29289 29.7071C7.10536 29.5196 7 29.2652 7 29V16C7 15.7348 7.10536 15.4804 7.29289 15.2929C7.48043 15.1054 7.73478 15 8 15H27C27.2652 15 27.5196 15.1054 27.7071 15.2929C27.8946 15.4804 28 15.7348 28 16V20ZM37 20V22C37 22.2652 36.8946 22.5196 36.7071 22.7071C36.5196 22.8946 36.2652 23 36 23H30V16C30 15.2044 29.6839 14.4413 29.1213 13.8787C28.5587 13.3161 27.7956 13 27 13H13V7C13 6.73478 13.1054 6.48043 13.2929 6.29289C13.4804 6.10536 13.7348 6 14 6H36C36.2652 6 36.5196 6.10536 36.7071 6.29289C36.8946 6.48043 37 6.73478 37 7V20Z" fill="#272727"/>
<path d="M22.2394 21.77L20.3794 20.7L18.3794 19.54L14.2994 17.19C14.152 17.1173 13.989 17.0821 13.8247 17.0874C13.6605 17.0928 13.5001 17.1385 13.3578 17.2205C13.2154 17.3026 13.0954 17.4185 13.0085 17.5579C12.9216 17.6973 12.8704 17.8561 12.8594 18.02V27.19C12.8734 27.3522 12.9268 27.5086 13.015 27.6455C13.1032 27.7823 13.2235 27.8956 13.3654 27.9754C13.5073 28.0553 13.6666 28.0992 13.8293 28.1035C13.9921 28.1078 14.1535 28.0723 14.2994 28L18.3794 25.65L20.3794 24.49L22.2394 23.42C22.3734 23.3282 22.4831 23.2051 22.5589 23.0613C22.6346 22.9176 22.6742 22.7575 22.6742 22.595C22.6742 22.4325 22.6346 22.2725 22.5589 22.1287C22.4831 21.985 22.3734 21.8619 22.2394 21.77Z" fill="#007171"/>
</svg>
