<svg width="48" height="49" viewBox="0 0 48 49" fill="none" xmlns="http://www.w3.org/2000/svg">
<path d="M37.2997 26.88V26.25H36.9297L37.2997 26.88Z" fill="#15191D"/>
<path d="M36.6108 26.25H35.3008V27L36.6108 26.25Z" fill="#15191D"/>
<path d="M35.2994 31.8198V32.9998C35.2994 33.265 35.194 33.5194 35.0065 33.7069C34.8189 33.8944 34.5646 33.9998 34.2994 33.9998H11.8594C11.5942 33.9998 11.3398 33.8944 11.1523 33.7069C10.9647 33.5194 10.8594 33.265 10.8594 32.9998V18.2798C10.8594 18.0146 10.9647 17.7602 11.1523 17.5727C11.3398 17.3851 11.5942 17.2798 11.8594 17.2798H19.5894L23.0594 15.2798H11.8594C11.0637 15.2798 10.3007 15.5959 9.73806 16.1585C9.17545 16.7211 8.85938 17.4841 8.85938 18.2798V32.9998C8.85938 33.7954 9.17545 34.5585 9.73806 35.1211C10.3007 35.6837 11.0637 35.9998 11.8594 35.9998H34.2994C35.095 35.9998 35.8581 35.6837 36.4207 35.1211C36.9833 34.5585 37.2994 33.7954 37.2994 32.9998V30.6598L35.2994 31.8198Z" fill="#272727"/>
<path d="M40.16 39.7998H6C5.73478 39.7998 5.48043 39.6944 5.29289 39.5069C5.10536 39.3194 5 39.065 5 38.7998C5 38.5346 5.10536 38.2802 5.29289 38.0927C5.48043 37.9052 5.73478 37.7998 6 37.7998H40.16C40.4252 37.7998 40.6796 37.9052 40.8671 38.0927C41.0546 38.2802 41.16 38.5346 41.16 38.7998C41.16 39.065 41.0546 39.3194 40.8671 39.5069C40.6796 39.6944 40.4252 39.7998 40.16 39.7998Z" fill="#272727"/>
<path d="M42.9693 19.17C42.9202 18.7612 42.7503 18.3763 42.4813 18.0646C42.2123 17.7529 41.8565 17.5284 41.4593 17.42L39.9993 17.05V16.97L40.7993 15.65C41.0243 15.2679 41.116 14.8219 41.0599 14.382C41.0038 13.9421 40.803 13.5334 40.4893 13.22L39.6793 12.46C39.363 12.1734 38.9633 11.9955 38.5387 11.9523C38.1141 11.9092 37.6868 12.003 37.3193 12.22L35.9993 13.02H35.9193L35.5493 11.61C35.4643 11.1775 35.2388 10.7852 34.9079 10.494C34.577 10.2029 34.1591 10.0292 33.7193 10H32.3593C31.9471 10.0513 31.5595 10.2242 31.2461 10.4967C30.9326 10.7692 30.7074 11.129 30.5993 11.53L30.2293 12.98H30.1493L28.9393 12.23C28.5593 12.0062 28.116 11.9143 27.6783 11.9685C27.2406 12.0228 26.8332 12.2202 26.5193 12.53L25.6793 13.37C25.4003 13.6869 25.2288 14.0839 25.1893 14.5043C25.1498 14.9246 25.2443 15.3467 25.4593 15.71L26.2593 17.03V17.11L24.7993 17.49C24.3944 17.5993 24.0323 17.829 23.7609 18.1486C23.4895 18.4682 23.3215 18.8628 23.2793 19.28V20.59C23.3298 21.0013 23.5027 21.388 23.7755 21.7C24.0482 22.012 24.4084 22.235 24.8093 22.34L26.2593 22.72V22.8L25.4593 24.12L25.4093 24.22C25.232 24.6905 25.232 25.2095 25.4093 25.68C25.4889 25.8984 25.6001 26.1039 25.7393 26.29L26.6193 27.19C26.9364 27.4789 27.3379 27.6581 27.7647 27.7013C28.1914 27.7445 28.6207 27.6494 28.9893 27.43L30.3093 26.63H30.3893L30.7693 28.09C30.8786 28.4949 31.1083 28.857 31.4279 29.1284C31.7475 29.3998 32.1421 29.5678 32.5593 29.61H33.9193C34.3331 29.5547 34.7212 29.378 35.0345 29.102C35.3478 28.8261 35.5722 28.4635 35.6793 28.06L35.9493 26.68H36.0093L37.2893 27.48C37.6658 27.6966 38.1006 27.79 38.5328 27.7469C38.965 27.7039 39.3729 27.5266 39.6993 27.24L40.5393 26.39C40.8183 26.0731 40.9898 25.6761 41.0293 25.2557C41.0688 24.8354 40.9743 24.4133 40.7593 24.05L39.9593 22.73V22.65L41.4193 22.27C41.8241 22.1607 42.1863 21.931 42.4577 21.6114C42.7291 21.2918 42.8971 20.8972 42.9393 20.48V19.87L42.9693 19.17ZM38.1793 14L38.7593 14.58L37.8893 16.02C37.7713 16.2284 37.702 16.4607 37.6864 16.6997C37.6708 16.9387 37.7094 17.178 37.7993 17.4L37.9993 17.91C38.0822 18.1515 38.2231 18.369 38.4097 18.5434C38.5962 18.7177 38.8227 18.8436 39.0693 18.91L40.7593 19.32V20.13L39.2093 20.6C38.9654 20.65 38.7376 20.7592 38.5458 20.9178C38.354 21.0765 38.2041 21.2798 38.1093 21.51L37.9293 21.99C37.8105 22.2244 37.7536 22.4853 37.7641 22.7478C37.7746 23.0104 37.8522 23.2659 37.9893 23.49L38.8893 25L38.3093 25.59L36.8193 24.71C36.6122 24.5936 36.3816 24.5251 36.1445 24.5095C35.9074 24.4939 35.6699 24.5317 35.4493 24.62L34.9293 24.83C34.6878 24.9129 34.4703 25.0538 34.2959 25.2404C34.1216 25.4269 33.9957 25.6534 33.9293 25.9L33.5193 27.59H32.6993L32.2793 25.93C32.2293 25.6862 32.1201 25.4583 31.9615 25.2665C31.8028 25.0747 31.5995 24.9248 31.3693 24.83L30.8593 24.63C30.6547 24.5262 30.4287 24.4715 30.1993 24.47C29.9608 24.4787 29.725 24.5225 29.4993 24.6L27.9293 25.55L27.3493 25C27.6102 24.5126 27.9007 24.0418 28.2193 23.59L28.2793 23.47C28.3412 23.2789 28.3782 23.0806 28.3893 22.88C28.3927 22.6802 28.3517 22.4821 28.2693 22.3L28.0793 21.74C27.998 21.4976 27.8576 21.2792 27.6708 21.1047C27.484 20.9301 27.2566 20.8048 27.0093 20.74L25.3193 20.32V19.5L26.9293 19.1C27.1724 19.051 27.3993 18.9421 27.5897 18.7832C27.78 18.6243 27.9277 18.4204 28.0193 18.19L28.2093 17.72C28.3327 17.4929 28.3973 17.2385 28.3973 16.98C28.3973 16.7215 28.3327 16.4671 28.2093 16.24L27.3493 14.64L27.9293 14.06L29.3693 14.93C29.5762 15.0471 29.8068 15.116 30.044 15.1316C30.2812 15.1472 30.5189 15.109 30.7393 15.02L31.2593 14.81C31.5005 14.7296 31.7181 14.5907 31.8926 14.4058C32.0671 14.2208 32.1931 13.9955 32.2593 13.75L32.6693 12.05H33.4893L33.8993 13.71C33.95 13.9524 34.0595 14.1786 34.2182 14.3686C34.3769 14.5587 34.5799 14.7069 34.8093 14.8L35.2893 14.99C35.5242 15.107 35.7848 15.1628 36.047 15.1523C36.3092 15.1418 36.5645 15.0653 36.7893 14.93L38.1793 14Z" fill="#007171"/>
</svg>
