<svg width="48" height="48" viewBox="0 0 48 48" fill="none" xmlns="http://www.w3.org/2000/svg">
<path d="M35 25H24C23.7348 25 23.4804 24.8946 23.2929 24.7071C23.1054 24.5196 23 24.2652 23 24C23 23.7348 23.1054 23.4804 23.2929 23.2929C23.4804 23.1054 23.7348 23 24 23H35C35.2652 23 35.5196 23.1054 35.7071 23.2929C35.8946 23.4804 36 23.7348 36 24C36 24.2652 35.8946 24.5196 35.7071 24.7071C35.5196 24.8946 35.2652 25 35 25Z" fill="#017171"/>
<path d="M35 30H24C23.7348 30 23.4804 29.8946 23.2929 29.7071C23.1054 29.5196 23 29.2652 23 29C23 28.7348 23.1054 28.4804 23.2929 28.2929C23.4804 28.1054 23.7348 28 24 28H35C35.2652 28 35.5196 28.1054 35.7071 28.2929C35.8946 28.4804 36 28.7348 36 29C36 29.2652 35.8946 29.5196 35.7071 29.7071C35.5196 29.8946 35.2652 30 35 30Z" fill="#017171"/>
<path d="M24 14H13C12.7348 14 12.4804 13.8946 12.2929 13.7071C12.1054 13.5196 12 13.2652 12 13C12 12.7348 12.1054 12.4804 12.2929 12.2929C12.4804 12.1054 12.7348 12 13 12H24C24.2652 12 24.5196 12.1054 24.7071 12.2929C24.8946 12.4804 25 12.7348 25 13C25 13.2652 24.8946 13.5196 24.7071 13.7071C24.5196 13.8946 24.2652 14 24 14Z" fill="#017171"/>
<path d="M24 19H13C12.7348 19 12.4804 18.8946 12.2929 18.7071C12.1054 18.5196 12 18.2652 12 18C12 17.7348 12.1054 17.4804 12.2929 17.2929C12.4804 17.1054 12.7348 17 13 17H24C24.2652 17 24.5196 17.1054 24.7071 17.2929C24.8946 17.4804 25 17.7348 25 18C25 18.2652 24.8946 18.5196 24.7071 18.7071C24.5196 18.8946 24.2652 19 24 19Z" fill="#017171"/>
<path d="M39 17H31V9C31 8.20435 30.6839 7.44129 30.1213 6.87868C29.5587 6.31607 28.7956 6 28 6H9C8.20435 6 7.44129 6.31607 6.87868 6.87868C6.31607 7.44129 6 8.20435 6 9V22C6 22.7956 6.31607 23.5587 6.87868 24.1213C7.44129 24.6839 8.20435 25 9 25H11V30.73L12.27 30L17 27.27L19 26.11L20.93 25H28C28.7956 25 29.5587 24.6839 30.1213 24.1213C30.6839 23.5587 31 22.7956 31 22V19H39C39.2652 19 39.5196 19.1054 39.7071 19.2929C39.8946 19.4804 40 19.7348 40 20V33C40 33.2652 39.8946 33.5196 39.7071 33.7071C39.5196 33.8946 39.2652 34 39 34H35V38.27L27.61 34H20C19.7348 34 19.4804 33.8946 19.2929 33.7071C19.1054 33.5196 19 33.2652 19 33V28.42L17 29.58V33C17 33.7956 17.3161 34.5587 17.8787 35.1213C18.4413 35.6839 19.2044 36 20 36H27.07L37 41.73V36H39C39.7957 36 40.5587 35.6839 41.1213 35.1213C41.6839 34.5587 42 33.7956 42 33V20C42 19.2044 41.6839 18.4413 41.1213 17.8787C40.5587 17.3161 39.7957 17 39 17ZM29 22C29 22.2652 28.8946 22.5196 28.7071 22.7071C28.5196 22.8946 28.2652 23 28 23H20.39L19 23.8L17 25L13 27.31V23H9C8.73478 23 8.48043 22.8946 8.29289 22.7071C8.10536 22.5196 8 22.2652 8 22V9C8 8.73478 8.10536 8.48043 8.29289 8.29289C8.48043 8.10536 8.73478 8 9 8H28C28.2652 8 28.5196 8.10536 28.7071 8.29289C28.8946 8.48043 29 8.73478 29 9V22Z" fill="#272727"/>
</svg>
