<svg width="48" height="48" viewBox="0 0 48 48" fill="none" xmlns="http://www.w3.org/2000/svg">
<path d="M20 12H28C28.2652 12 28.5196 11.8946 28.7071 11.7071C28.8946 11.5196 29 11.2652 29 11C29 10.7348 28.8946 10.4804 28.7071 10.2929C28.5196 10.1054 28.2652 10 28 10H20C19.7348 10 19.4804 10.1054 19.2929 10.2929C19.1054 10.4804 19 10.7348 19 11C19 11.2652 19.1054 11.5196 19.2929 11.7071C19.4804 11.8946 19.7348 12 20 12Z" fill="#272727"/>
<path d="M24 38C24.8284 38 25.5 37.3284 25.5 36.5C25.5 35.6716 24.8284 35 24 35C23.1716 35 22.5 35.6716 22.5 36.5C22.5 37.3284 23.1716 38 24 38Z" fill="#272727"/>
<path d="M15 31.6798L14.96 31.6598L13.04 30.5498L13 30.5298L15 31.6798Z" fill="#272727"/>
<path d="M31.54 6H16.46C15.5424 6 14.6623 6.36453 14.0134 7.01341C13.3645 7.66229 13 8.54235 13 9.46V28.22L15 29.35V9.46C15 9.07278 15.1538 8.70143 15.4276 8.42762C15.7014 8.15382 16.0728 8 16.46 8H31.54C31.9272 8 32.2986 8.15382 32.5724 8.42762C32.8462 8.70143 33 9.07278 33 9.46V38.54C33 38.9272 32.8462 39.2986 32.5724 39.5724C32.2986 39.8462 31.9272 40 31.54 40H16.46C16.0728 40 15.7014 39.8462 15.4276 39.5724C15.1538 39.2986 15 38.9272 15 38.54V34L13 32.85V38.55C13.0026 39.4659 13.3683 40.3434 14.0169 40.9901C14.6655 41.6368 15.5441 42 16.46 42H31.54C32.4576 42 33.3377 41.6355 33.9866 40.9866C34.6355 40.3377 35 39.4576 35 38.54V9.46C35 8.54235 34.6355 7.66229 33.9866 7.01341C33.3377 6.36453 32.4576 6 31.54 6Z" fill="#272727"/>
<path d="M28.8107 15.9999C28.6966 15.9338 28.5705 15.8909 28.4397 15.8738C28.3089 15.8566 28.176 15.8654 28.0487 15.8998C27.9214 15.9342 27.8021 15.9935 27.6977 16.0741C27.5934 16.1548 27.506 16.2554 27.4407 16.3699L18.7007 31.5099L15.0007 29.3699L13.0007 28.2399L11.5707 27.4099C11.4566 27.3438 11.3305 27.3009 11.1997 27.2838C11.0689 27.2666 10.936 27.2754 10.8087 27.3098C10.6814 27.3442 10.5621 27.4035 10.4577 27.4841C10.3534 27.5648 10.266 27.6654 10.2007 27.7799C10.0703 28.0096 10.0361 28.2814 10.1054 28.5362C10.1747 28.791 10.342 29.008 10.5707 29.1399L13.0007 30.5299L15.0007 31.6599L19.4407 34.2199L29.1707 17.3599C29.3019 17.1315 29.3377 16.8606 29.2703 16.6059C29.2029 16.3513 29.0377 16.1335 28.8107 15.9999Z" fill="#017171"/>
</svg>
