<svg width="48" height="49" viewBox="0 0 48 49" fill="none" xmlns="http://www.w3.org/2000/svg">
<path d="M27 12H19C18.7348 12 18.4804 11.8946 18.2929 11.7071C18.1054 11.5196 18 11.2652 18 11C18 10.7348 18.1054 10.4804 18.2929 10.2929C18.4804 10.1054 18.7348 10 19 10H27C27.2652 10 27.5196 10.1054 27.7071 10.2929C27.8946 10.4804 28 10.7348 28 11C28 11.2652 27.8946 11.5196 27.7071 11.7071C27.5196 11.8946 27.2652 12 27 12Z" fill="#272727"/>
<path d="M23 38C23.8284 38 24.5 37.3284 24.5 36.5C24.5 35.6716 23.8284 35 23 35C22.1716 35 21.5 35.6716 21.5 36.5C21.5 37.3284 22.1716 38 23 38Z" fill="#272727"/>
<path d="M32 38.54C32 38.9272 31.8462 39.2986 31.5724 39.5724C31.2986 39.8462 30.9272 40 30.54 40H15.46C15.0728 40 14.7014 39.8462 14.4276 39.5724C14.1538 39.2986 14 38.9272 14 38.54V9.46C14 9.07278 14.1538 8.70143 14.4276 8.42762C14.7014 8.15382 15.0728 8 15.46 8H30.54C30.9272 8 31.2986 8.15382 31.5724 8.42762C31.8462 8.70143 32 9.07278 32 9.46V21.54L34 22.7V9.46C34 8.54235 33.6355 7.66229 32.9866 7.01341C32.3377 6.36453 31.4576 6 30.54 6H15.46C14.5424 6 13.6623 6.36453 13.0134 7.01341C12.3645 7.66229 12 8.54235 12 9.46V38.54C12 39.4576 12.3645 40.3377 13.0134 40.9866C13.6623 41.6355 14.5424 42 15.46 42H30.54C31.4576 42 32.3377 41.6355 32.9866 40.9866C33.6355 40.3377 34 39.4576 34 38.54V26.54L32 27.7V38.54Z" fill="#272727"/>
<path d="M35.8605 21.4501L34.0005 20.3701L32.0005 19.2201L27.9205 16.8601C27.7724 16.7872 27.6085 16.7521 27.4435 16.7579C27.2785 16.7638 27.1176 16.8104 26.975 16.8935C26.8324 16.9767 26.7126 17.0939 26.6263 17.2347C26.54 17.3754 26.4899 17.5353 26.4805 17.7001V26.8601C26.4899 27.0249 26.54 27.1849 26.6263 27.3256C26.7126 27.4663 26.8324 27.5835 26.975 27.6667C27.1176 27.7499 27.2785 27.7965 27.4435 27.8023C27.6085 27.8081 27.7724 27.773 27.9205 27.7001L32.0005 25.3401L34.0005 24.1901L35.8605 23.1101C35.9966 23.0187 36.1081 22.8951 36.1852 22.7504C36.2624 22.6056 36.3027 22.4441 36.3027 22.2801C36.3027 22.1161 36.2624 21.9546 36.1852 21.8099C36.1081 21.6652 35.9966 21.5416 35.8605 21.4501Z" fill="#007171"/>
</svg>
