<svg width="48" height="48" viewBox="0 0 48 48" fill="none" xmlns="http://www.w3.org/2000/svg">
<path d="M32.5601 28.9214C31.8573 31.2117 30.3556 33.1736 28.3283 34.4501C26.301 35.7265 23.8828 36.2328 21.5137 35.8767C19.1446 35.5206 16.9821 34.3259 15.4196 32.5098C13.8571 30.6938 12.9986 28.3771 13.0001 25.9814C13.0001 25.7162 12.8947 25.4619 12.7072 25.2743C12.5196 25.0868 12.2653 24.9814 12.0001 24.9814C11.7349 24.9814 11.4805 25.0868 11.293 25.2743C11.1054 25.4619 11.0001 25.7162 11.0001 25.9814C10.9896 28.9981 12.1157 31.9081 14.1542 34.1319C16.1926 36.3556 18.9939 37.7301 22.0001 37.9814V41.9814H24.0001V37.9814C26.3108 37.7885 28.5161 36.9303 30.3493 35.5106C32.1825 34.0908 33.5652 32.1704 34.3301 29.9814L32.5601 28.9214Z" fill="#272727"/>
<path d="M28.93 26.8216C28.7013 28.3102 27.9211 29.6584 26.7444 30.5984C25.5677 31.5384 24.0805 32.0015 22.5782 31.8957C21.0758 31.7899 19.6682 31.123 18.6348 30.0274C17.6014 28.9318 17.0178 27.4876 17 25.9816V13.9816C17 12.3903 17.6321 10.8642 18.7574 9.73898C19.8826 8.61376 21.4087 7.98162 23 7.98162C24.5913 7.98162 26.1174 8.61376 27.2426 9.73898C28.3679 10.8642 29 12.3903 29 13.9816L30.92 12.8716C30.6348 10.8696 29.6019 9.04989 28.0293 7.77859C26.4566 6.50728 24.4609 5.87873 22.4435 6.01939C20.4262 6.16004 18.537 7.05947 17.156 8.53671C15.775 10.014 15.0046 11.9594 15 13.9816V25.9816C15.0108 27.9299 15.7322 29.8072 17.0288 31.2614C18.3254 32.7155 20.1081 33.6466 22.0423 33.8798C23.9766 34.113 25.9295 33.6323 27.5345 32.5279C29.1396 31.4236 30.2865 29.7715 30.76 27.8816L28.93 26.8216Z" fill="#272727"/>
<path d="M26.6808 22.9216C26.5079 22.7854 26.3848 22.5959 26.3306 22.3825C26.2763 22.1692 26.294 21.9439 26.3808 21.7416C26.555 21.3403 26.6501 20.909 26.6608 20.4716C26.6398 20.0001 26.5242 19.5376 26.3208 19.1116C26.2282 18.9113 26.2045 18.6859 26.2533 18.4707C26.3021 18.2554 26.4208 18.0624 26.5908 17.9216C26.7088 17.8231 26.8479 17.753 26.9973 17.7169C27.1467 17.6808 27.3024 17.6797 27.4524 17.7135C27.6023 17.7474 27.7424 17.8153 27.8618 17.9121C27.9812 18.0089 28.0767 18.1319 28.1408 18.2716C28.4622 18.9619 28.6392 19.7105 28.6608 20.4716C28.6516 21.1891 28.495 21.8971 28.2008 22.5516C28.1377 22.688 28.0445 22.8084 27.9284 22.9039C27.8122 22.9993 27.6761 23.0673 27.53 23.1029C27.3839 23.1385 27.2317 23.1406 27.0847 23.1092C26.9377 23.0779 26.7997 23.0137 26.6808 22.9216Z" fill="#007171"/>
<path d="M30.2706 25.0517C30.0693 24.915 29.9247 24.7096 29.864 24.474C29.8032 24.2384 29.8305 23.9887 29.9406 23.7717C30.4585 22.7478 30.7356 21.619 30.7506 20.4717C30.7459 19.2991 30.4541 18.1455 29.9006 17.1117C29.7857 16.8959 29.7538 16.6456 29.8109 16.4079C29.868 16.1702 30.0102 15.9617 30.2106 15.8217C30.3267 15.7399 30.459 15.6837 30.5985 15.657C30.738 15.6303 30.8816 15.6336 31.0197 15.6667C31.1579 15.6998 31.2874 15.762 31.3996 15.8491C31.5118 15.9361 31.6042 16.0461 31.6706 16.1717C32.3777 17.4948 32.7486 18.9715 32.7506 20.4717C32.7458 21.9397 32.4036 23.3869 31.7506 24.7017C31.6846 24.8303 31.5914 24.943 31.4776 25.0321C31.3638 25.1212 31.232 25.1846 31.0913 25.2178C30.9506 25.2511 30.8044 25.2535 30.6627 25.2248C30.5211 25.1961 30.3873 25.1371 30.2706 25.0517Z" fill="#007171"/>
<path d="M33.8791 26.9817C33.6702 26.8493 33.5177 26.6442 33.4512 26.4059C33.3847 26.1677 33.4089 25.9132 33.5191 25.6917C34.3621 24.068 34.8173 22.271 34.8491 20.4417C34.8333 18.5579 34.345 16.708 33.4291 15.0617C33.3014 14.8388 33.2644 14.5752 33.3259 14.3257C33.3873 14.0762 33.5425 13.8599 33.7591 13.7217C33.8742 13.6488 34.003 13.6001 34.1376 13.5788C34.2722 13.5574 34.4097 13.5638 34.5418 13.5975C34.6738 13.6312 34.7976 13.6915 34.9054 13.7748C35.0133 13.8581 35.103 13.9625 35.1691 14.0817C36.2634 16.0197 36.8419 18.2062 36.8491 20.4317C36.8264 22.5807 36.2989 24.6942 35.3091 26.6017C35.245 26.7254 35.1557 26.8343 35.0471 26.9215C34.9384 27.0087 34.8127 27.0722 34.6781 27.108C34.5435 27.1437 34.4029 27.151 34.2653 27.1293C34.1277 27.1075 33.9961 27.0573 33.8791 26.9817Z" fill="#007171"/>
</svg>
