<svg width="48" height="48" viewBox="0 0 48 48" fill="none" xmlns="http://www.w3.org/2000/svg">
<path d="M18.2491 22.7101V23.2901C18.2491 25.1466 18.9866 26.9271 20.2994 28.2398C21.6121 29.5526 23.3926 30.2901 25.2491 30.2901H25.8291L26.2391 29.9101L27.6291 28.5301L29.9491 30.8501L27.6291 33.1701H27.2191H26.8891C23.8356 33.1701 20.9069 31.9578 18.7468 29.7995C16.5867 27.6412 15.3718 24.7137 15.3691 21.6601V20.9201L17.6991 18.6001L19.9991 20.9201L18.6091 22.3101L18.2491 22.7101Z" fill="#017171"/>
<path d="M6 42.0001L10 30.7001C8.41859 27.3937 8.05754 23.6345 8.98072 20.0875C9.9039 16.5406 12.0518 13.4344 15.0445 11.3185C18.0372 9.20265 21.6818 8.2134 25.3336 8.52577C28.9854 8.83814 32.409 10.432 34.9989 13.0254C37.5888 15.6188 39.1779 19.0447 39.4853 22.6969C39.7927 26.3491 38.7984 29.9923 36.6784 32.9821C34.5584 35.9719 31.4493 38.1156 27.9011 39.0339C24.3529 39.9522 20.5942 39.586 17.29 38.0001L6 42.0001ZM24 10.5401C21.6892 10.5365 19.4164 11.1274 17.4 12.256C15.3836 13.3846 13.6915 15.0129 12.4863 16.9845C11.281 18.956 10.6033 21.2045 10.5181 23.5136C10.4329 25.8228 10.9433 28.1151 12 30.1701L12.21 30.5701L9.38 38.5701L17.38 35.7401L17.78 35.9501C19.5891 36.8878 21.5876 37.4026 23.6246 37.4555C25.6616 37.5084 27.6841 37.0982 29.5395 36.2556C31.3949 35.4131 33.0348 34.1603 34.3355 32.5917C35.6362 31.0231 36.5637 29.1797 37.0482 27.2004C37.5327 25.2211 37.5615 23.1576 37.1324 21.1656C36.7033 19.1736 35.8275 17.305 34.571 15.7007C33.3146 14.0964 31.7103 12.7984 29.8791 11.9044C28.048 11.0105 26.0377 10.544 24 10.5401Z" fill="#272727"/>
</svg>
