<svg width="1396" height="300" viewBox="0 0 1396 300" fill="none" xmlns="http://www.w3.org/2000/svg">
<g clip-path="url(#clip0)">
<path d="M0 125.541H36.0053C40.8058 125.541 44.7314 128.698 45.0923 132.7C45.1105 132.901 45.1287 133.097 45.1287 133.302V209.901C45.1287 215.38 50.8915 218.941 55.7904 216.491L78.6299 205.068L89.6087 199.56C92.3898 198.164 95.827 198.124 98.6519 199.451L130.659 214.483C136.739 217.337 144.193 213.597 144.193 207.692V155.966C144.193 151.68 148.279 148.206 153.316 148.206H202.024C207.062 148.206 211.148 144.732 211.148 140.446V74.0303C211.148 69.7438 215.234 66.2701 220.271 66.2701H265.564C270.601 66.2701 274.687 69.7438 274.687 74.0303V81.7723C274.687 84.4222 276.28 86.8898 278.908 88.315L309.063 104.659C311.691 106.084 313.284 108.552 313.284 111.202V172.985C313.284 177.271 317.37 180.745 322.408 180.745H366.858C371.896 180.745 375.982 177.271 375.982 172.985V145.501C375.982 141.215 380.064 137.741 385.105 137.741H417.808C422.845 137.741 426.932 141.215 426.932 145.501V178.616C426.932 181.678 429.046 184.452 432.333 185.698L469.115 199.681C475.148 201.973 481.96 198.219 481.96 192.598V104.244C481.96 99.9572 486.043 96.4835 491.084 96.4835H506.64C511.678 96.4835 515.764 93.0098 515.764 88.7233V77.391C515.764 71.9927 522.081 68.2457 528.037 70.1083L559.369 79.917C562.956 81.0396 565.339 83.9483 565.339 87.1996V132.303C565.339 136.589 569.426 140.063 574.463 140.063H606.492C611.529 140.063 615.615 143.537 615.615 147.823V160.198C615.615 164.485 619.701 167.958 624.738 167.958H658.418C663.456 167.958 667.542 164.485 667.542 160.198V98.069C667.542 95.944 668.566 93.9101 670.377 92.4485L689.291 77.1467C692.754 74.3474 698.415 74.3474 701.874 77.1541L720.737 92.4485C722.541 93.9138 723.565 95.9404 723.565 98.0654V126.613C723.565 130.615 727.145 133.961 731.832 134.337L838.281 142.888C842.965 143.263 846.544 146.609 846.544 150.612V171.888C846.544 178.799 856.371 182.261 862.115 177.373L894.767 149.602C896.477 148.148 897.439 146.172 897.439 144.116V114.705C897.439 110.418 901.525 106.945 906.562 106.945H966.545C971.582 106.945 975.668 110.418 975.668 114.705V172.402C975.668 176.688 979.754 180.162 984.792 180.162H1007.54C1012.58 180.162 1016.66 176.688 1016.66 172.402V82.7455C1016.66 78.459 1020.75 74.9853 1025.79 74.9853H1061.52C1066.55 74.9853 1070.64 78.459 1070.64 82.7455V98.0253C1070.64 102.312 1074.72 105.786 1079.76 105.786H1112.76C1117.79 105.786 1121.88 109.259 1121.88 113.546V139.283C1121.88 143.57 1125.97 147.043 1131 147.043H1170.15C1175.18 147.043 1179.27 150.517 1179.27 154.803V177.636C1179.27 181.922 1183.36 185.396 1188.39 185.396H1211.14C1216.18 185.396 1220.27 181.922 1220.27 177.636V108.898C1220.27 104.612 1224.35 101.138 1229.39 101.138H1254.19C1259.22 101.138 1263.31 104.612 1263.31 108.898V131.151C1263.31 135.438 1267.4 138.911 1272.43 138.911H1293.81C1298.85 138.911 1302.94 135.438 1302.94 131.151V85.0746C1302.94 80.7881 1307.02 77.3145 1312.06 77.3145H1339.59C1344.63 77.3145 1348.72 80.7881 1348.72 85.0746V187.721V205.531C1348.72 209.817 1352.8 213.291 1357.84 213.291H1403.81C1408.85 213.291 1412.94 209.817 1412.94 205.531V149.577C1412.94 149.325 1412.96 149.077 1412.98 148.833V133.305C1412.98 129.019 1417.07 125.545 1422.1 125.545H1458V-568H0V125.541Z" fill="white"/>
<path d="M1412.94 133.302V148.83C1412.91 149.074 1412.9 149.322 1412.9 149.573V205.527C1412.9 209.814 1408.81 213.288 1403.78 213.288H1357.8C1352.77 213.288 1348.68 209.814 1348.68 205.527V187.718V85.0711C1348.68 80.7846 1344.59 77.311 1339.56 77.311H1312.03C1306.99 77.311 1302.9 80.7846 1302.9 85.0711V131.148C1302.9 135.434 1298.82 138.908 1293.78 138.908H1272.4C1267.36 138.908 1263.27 135.434 1263.27 131.148V108.895C1263.27 104.608 1259.19 101.135 1254.15 101.135H1229.35C1224.32 101.135 1220.23 104.608 1220.23 108.895V177.632C1220.23 181.919 1216.15 185.392 1211.11 185.392H1188.36C1183.32 185.392 1179.23 181.919 1179.23 177.632V154.8C1179.23 150.513 1175.15 147.04 1170.11 147.04H1130.97C1125.93 147.04 1121.84 143.566 1121.84 139.28V113.542C1121.84 109.256 1117.76 105.782 1112.72 105.782H1079.73C1074.69 105.782 1070.6 102.308 1070.6 98.0218V82.742C1070.6 78.4555 1066.52 74.9818 1061.48 74.9818H1025.75C1020.71 74.9818 1016.63 78.4555 1016.63 82.742V172.398C1016.63 176.685 1012.54 180.158 1007.5 180.158H984.755C979.718 180.158 975.632 176.685 975.632 172.398V114.701C975.632 110.415 971.546 106.941 966.508 106.941H906.526C901.489 106.941 897.403 110.415 897.403 114.701V144.113C897.403 146.172 896.44 148.144 894.731 149.599L862.079 177.37C856.331 182.258 846.507 178.795 846.507 171.884V150.608C846.507 146.606 842.928 143.26 838.244 142.885L731.796 134.333C727.112 133.958 723.529 130.612 723.529 126.61V98.0619C723.529 95.9405 722.508 93.9103 720.7 92.445L701.837 77.1506C698.378 74.3439 692.718 74.3439 689.255 77.1433L670.341 92.445C668.529 93.9103 667.505 95.9405 667.505 98.0656V160.195C667.505 164.481 663.419 167.955 658.382 167.955H624.702C619.665 167.955 615.578 164.481 615.578 160.195V147.82C615.578 143.533 611.496 140.06 606.455 140.06H574.452C569.415 140.06 565.329 136.586 565.329 132.299V87.1962C565.329 83.9449 562.945 81.0398 559.358 79.9135L528.026 70.1048C522.07 68.2386 515.753 71.9893 515.753 77.3875V88.7198C515.753 93.0063 511.671 96.48 506.629 96.48H491.073C486.035 96.48 481.949 99.9537 481.949 104.24V192.595C481.949 198.216 475.137 201.974 469.104 199.677L432.322 185.695C429.038 184.445 426.921 181.671 426.921 178.613V145.498C426.921 141.211 422.835 137.738 417.797 137.738H385.094C380.057 137.738 375.971 141.211 375.971 145.498V172.981C375.971 177.268 371.885 180.741 366.847 180.741H322.4C317.363 180.741 313.277 177.268 313.277 172.981V111.199C313.277 108.549 311.684 106.081 309.056 104.656L278.901 88.3116C276.273 86.8864 274.68 84.4187 274.68 81.7688V74.0268C274.68 69.7403 270.594 66.2666 265.556 66.2666H220.267C215.23 66.2666 211.144 69.7403 211.144 74.0268V140.442C211.144 144.729 207.058 148.203 202.02 148.203H153.316C148.279 148.203 144.193 151.676 144.193 155.963V207.689C144.193 213.598 136.739 217.337 130.659 214.48L98.6519 199.448C95.827 198.121 92.3862 198.161 89.6087 199.557L78.6299 205.065L55.7904 216.488C50.8915 218.937 45.1287 215.376 45.1287 209.898V133.298C45.1287 133.094 45.1105 132.897 45.0923 132.697C44.7314 128.695 40.8058 125.538 36.0053 125.538H0V890H45.0923H1412.94H1458V125.542H1422.07C1417.03 125.542 1412.94 129.015 1412.94 133.302Z" fill="#F2F2F2"/>
<rect x="683" y="143" width="608" height="231" rx="35" fill="#CCCCCC"/>
<g opacity="0.4" clip-path="url(#clip1)">
<rect x="683" y="143" width="304.549" height="645" rx="35.5926" fill="#007171"/>
<rect x="802.467" y="166.212" width="65.6142" height="9.90403" rx="4.64251" fill="#005D5D"/>
<circle cx="788.849" cy="171.164" r="4.95202" fill="#005D5D"/>
<rect x="683" y="207.841" width="304.868" height="515.317" fill="#F2F2F2"/>
<path d="M956.016 246.084C956.016 241.298 952.136 237.418 947.35 237.418H714.417C709.631 237.418 705.751 241.298 705.751 246.084V317.482C705.751 322.268 709.631 326.148 714.417 326.148H956.016V246.084Z" fill="white"/>
<path d="M756.952 280.215L752.213 277.434L747.117 274.473L736.722 268.397C736.344 268.209 735.927 268.119 735.507 268.134C735.086 268.149 734.676 268.269 734.313 268.483C733.949 268.697 733.644 268.999 733.424 269.361C733.204 269.724 733.077 270.135 733.053 270.56V294.144C733.077 294.568 733.204 294.98 733.424 295.342C733.644 295.705 733.949 296.007 734.313 296.221C734.676 296.435 735.086 296.555 735.507 296.57C735.927 296.585 736.344 296.494 736.722 296.307L747.117 290.23L752.213 287.27L756.952 284.489C757.299 284.253 757.583 283.935 757.78 283.563C757.976 283.19 758.079 282.774 758.079 282.352C758.079 281.93 757.976 281.514 757.78 281.141C757.583 280.769 757.299 280.45 756.952 280.215Z" fill="#00A8A6"/>
<rect x="784.242" y="305.104" width="46.6402" height="5.68783" rx="2.84392" transform="rotate(-90 784.242 305.104)" fill="#F2F2F2"/>
<rect x="793.342" y="299.416" width="35.2645" height="5.68783" rx="2.84392" transform="rotate(-90 793.342 299.416)" fill="#F2F2F2"/>
<rect x="802.443" y="306.81" width="50.0529" height="5.68783" rx="2.84392" transform="rotate(-90 802.443 306.81)" fill="#F2F2F2"/>
<rect x="811.543" y="311.36" width="59.1534" height="5.68783" rx="2.84392" transform="rotate(-90 811.543 311.36)" fill="#F2F2F2"/>
<rect x="820.645" y="305.104" width="46.6402" height="5.68783" rx="2.84392" transform="rotate(-90 820.645 305.104)" fill="#F2F2F2"/>
<rect x="829.744" y="298.847" width="34.127" height="5.68783" rx="2.84392" transform="rotate(-90 829.744 298.847)" fill="#F2F2F2"/>
<rect x="838.846" y="298.847" width="34.127" height="5.68783" rx="2.84392" transform="rotate(-90 838.846 298.847)" fill="#F2F2F2"/>
<rect x="847.945" y="294.865" width="26.164" height="5.68783" rx="2.84392" transform="rotate(-90 847.945 294.865)" fill="#F2F2F2"/>
<rect x="857.047" y="299.416" width="35.2645" height="5.68783" rx="2.84392" transform="rotate(-90 857.047 299.416)" fill="#F2F2F2"/>
<rect x="866.146" y="306.81" width="50.0529" height="5.68783" rx="2.84392" transform="rotate(-90 866.146 306.81)" fill="#F2F2F2"/>
<rect x="875.248" y="308.516" width="53.4656" height="5.68783" rx="2.84392" transform="rotate(-90 875.248 308.516)" fill="#F2F2F2"/>
<rect x="884.348" y="306.81" width="50.0529" height="5.68783" rx="2.84392" transform="rotate(-90 884.348 306.81)" fill="#F2F2F2"/>
<rect x="893.449" y="299.416" width="35.2645" height="5.68783" rx="2.84392" transform="rotate(-90 893.449 299.416)" fill="#F2F2F2"/>
<rect x="902.549" y="299.416" width="35.2645" height="5.68783" rx="2.84392" transform="rotate(-90 902.549 299.416)" fill="#F2F2F2"/>
<rect x="911.65" y="305.104" width="46.6402" height="5.68783" rx="2.84392" transform="rotate(-90 911.65 305.104)" fill="#F2F2F2"/>
<rect x="920.75" y="305.104" width="46.6402" height="5.68783" rx="2.84392" transform="rotate(-90 920.75 305.104)" fill="#F2F2F2"/>
</g>
<g opacity="0.4" clip-path="url(#clip2)">
<rect x="987" y="143" width="304" height="643.837" rx="35.5285" fill="#007171"/>
<rect x="1106.25" y="166.171" width="65.4959" height="9.88618" rx="4.63415" fill="#005D5D"/>
<circle cx="1092.66" cy="171.114" r="4.94309" fill="#CCCCCC"/>
<rect x="987" y="207.725" width="304.318" height="514.389" fill="#F2F2F2"/>
<rect x="1084.47" y="266.771" width="110.905" height="108.903" rx="54.4515" transform="rotate(0.498699 1084.47 266.771)" fill="white"/>
<path d="M1170.3 301.411C1170.01 301.159 1169.68 300.967 1169.32 300.844C1168.96 300.721 1168.59 300.671 1168.21 300.695C1167.83 300.72 1167.46 300.819 1167.12 300.987C1166.78 301.155 1166.48 301.388 1166.23 301.674L1132.99 339.367L1123.78 331.232L1118.78 326.911L1115.23 323.759C1114.94 323.507 1114.61 323.315 1114.25 323.192C1113.89 323.069 1113.51 323.019 1113.14 323.043C1112.76 323.068 1112.39 323.167 1112.05 323.335C1111.71 323.503 1111.41 323.736 1111.16 324.022C1110.66 324.595 1110.41 325.342 1110.46 326.099C1110.51 326.856 1110.86 327.563 1111.43 328.065L1117.48 333.364L1122.48 337.686L1133.53 347.425L1170.54 305.448C1171.04 304.879 1171.29 304.136 1171.25 303.38C1171.2 302.624 1170.86 301.916 1170.3 301.411Z" fill="#00A8A6"/>
</g>
<g clip-path="url(#clip3)" filter="url(#filter0_d)">
<rect x="827" y="30" width="320.603" height="679" rx="37.4688" fill="#007171"/>
<rect x="952.766" y="54.436" width="69.0729" height="10.4261" rx="4.88724" fill="#005D5D"/>
<circle cx="938.428" cy="59.6491" r="5.21305" fill="#005D5D"/>
<rect x="827" y="98.2593" width="320.938" height="542.481" fill="#F2F2F2"/>
<path d="M850.949 219.543C850.949 214.504 855.034 210.42 860.072 210.42H1077.07C1082.1 210.42 1086.19 214.504 1086.19 219.543V269.067C1086.19 274.105 1082.1 278.19 1077.07 278.19H850.949V219.543Z" fill="white"/>
<path d="M888.074 132.123C888.074 127.084 892.159 123 897.197 123H1114.19C1119.23 123 1123.31 127.084 1123.31 132.123V190.77H897.197C892.159 190.77 888.074 186.685 888.074 181.647V132.123Z" fill="#FFBE3C"/>
<rect x="909" y="141" width="177" height="11" rx="4.88724" fill="white"/>
<rect x="871.555" y="226.943" width="192.802" height="10.7778" rx="4.88724" fill="#F2F2F2"/>
<rect x="909" y="164" width="155" height="10" rx="4.88724" fill="white"/>
<rect x="871.555" y="249.696" width="192.802" height="10.7778" rx="4.88724" fill="#F2F2F2"/>
</g>
</g>
<defs>
<filter id="filter0_d" x="825" y="28" width="324.603" height="683" filterUnits="userSpaceOnUse" color-interpolation-filters="sRGB">
<feFlood flood-opacity="0" result="BackgroundImageFix"/>
<feColorMatrix in="SourceAlpha" type="matrix" values="0 0 0 0 0 0 0 0 0 0 0 0 0 0 0 0 0 0 127 0"/>
<feOffset/>
<feGaussianBlur stdDeviation="1"/>
<feColorMatrix type="matrix" values="0 0 0 0 0 0 0 0 0 0 0 0 0 0 0 0 0 0 0.4 0"/>
<feBlend mode="normal" in2="BackgroundImageFix" result="effect1_dropShadow"/>
<feBlend mode="normal" in="SourceGraphic" in2="effect1_dropShadow" result="shape"/>
</filter>
<clipPath id="clip0">
<rect width="1396" height="300" fill="white"/>
</clipPath>
<clipPath id="clip1">
<rect width="304.549" height="645" fill="white" transform="translate(683 143)"/>
</clipPath>
<clipPath id="clip2">
<rect width="304" height="643.837" fill="white" transform="translate(987 143)"/>
</clipPath>
<clipPath id="clip3">
<rect width="320.603" height="679" fill="white" transform="translate(827 30)"/>
</clipPath>
</defs>
</svg>
