<svg width="24" height="24" viewBox="0 0 24 24" fill="none" xmlns="http://www.w3.org/2000/svg">
<path d="M14.25 13.5H9.75C9.55109 13.5 9.36032 13.579 9.21967 13.7197C9.07902 13.8603 9 14.0511 9 14.25V20.25H10.5V15H13.5V20.25H15V14.25C15 14.0511 14.921 13.8603 14.7803 13.7197C14.6397 13.579 14.4489 13.5 14.25 13.5Z" fill="#272727"/>
<path d="M22.1624 9.09743L12.7499 3.64493C12.5219 3.51328 12.2632 3.44397 11.9999 3.44397C11.7366 3.44397 11.478 3.51328 11.2499 3.64493L1.83742 9.09743C1.66437 9.19689 1.53791 9.36102 1.48587 9.55371C1.43383 9.7464 1.46047 9.95188 1.55992 10.1249C1.65938 10.298 1.82351 10.4244 2.0162 10.4765C2.2089 10.5285 2.41437 10.5019 2.58742 10.4024L3.74992 9.74993V20.2499H5.24992V8.85743L11.9999 4.94243L18.7499 8.85743V20.2499H20.2499V9.74993L21.4124 10.4249C21.5855 10.5244 21.791 10.551 21.9836 10.499C22.1763 10.4469 22.3405 10.3205 22.4399 10.1474C22.5394 9.97438 22.566 9.7689 22.514 9.57621C22.4619 9.38352 22.3355 9.21939 22.1624 9.11993V9.09743Z" fill="#272727"/>
</svg>
