<svg width="32" height="32" viewBox="0 0 32 32" fill="none" xmlns="http://www.w3.org/2000/svg">
<path d="M10.7032 25.2112C10.7032 25.3394 10.5548 25.4419 10.3677 25.4419C10.1548 25.4611 10.0065 25.3586 10.0065 25.2112C10.0065 25.083 10.1548 24.9804 10.3419 24.9804C10.5355 24.9612 10.7032 25.0637 10.7032 25.2112ZM8.69677 24.9227C8.65161 25.0509 8.78065 25.1983 8.97419 25.2368C9.14194 25.3009 9.33548 25.2368 9.37419 25.1086C9.4129 24.9804 9.29032 24.833 9.09677 24.7753C8.92903 24.7304 8.74194 24.7945 8.69677 24.9227ZM11.5484 24.8137C11.3613 24.8586 11.2323 24.9804 11.2516 25.1278C11.271 25.256 11.4387 25.3394 11.6323 25.2945C11.8194 25.2496 11.9484 25.1278 11.929 24.9996C11.9097 24.8778 11.7355 24.7945 11.5484 24.8137ZM15.7935 0.25C6.84516 0.25 0 6.9999 0 15.8908C0 22.9996 4.50323 29.0829 10.9355 31.2239C11.7613 31.3713 12.0516 30.8649 12.0516 30.4483C12.0516 30.0508 12.0323 27.8585 12.0323 26.5124C12.0323 26.5124 7.51613 27.4739 6.56774 24.6022C6.56774 24.6022 5.83226 22.7368 4.77419 22.2561C4.77419 22.2561 3.29677 21.2497 4.87742 21.2689C4.87742 21.2689 6.48387 21.3971 7.36774 22.9227C8.78064 25.397 11.1484 24.6855 12.071 24.2625C12.2194 23.2368 12.6387 22.5253 13.1032 22.1022C9.49677 21.7048 5.85806 21.1856 5.85806 15.019C5.85806 13.2562 6.34839 12.3716 7.38065 11.2434C7.2129 10.8268 6.66452 9.10884 7.54839 6.89092C8.89677 6.47426 12 8.62167 12 8.62167C13.2903 8.2627 14.6774 8.0768 16.0516 8.0768C17.4258 8.0768 18.8129 8.2627 20.1032 8.62167C20.1032 8.62167 23.2065 6.46785 24.5548 6.89092C25.4387 9.11525 24.8903 10.8268 24.7226 11.2434C25.7548 12.378 26.3871 13.2626 26.3871 15.019C26.3871 21.2048 22.5871 21.6984 18.9806 22.1022C19.5742 22.6086 20.0774 23.5702 20.0774 25.0765C20.0774 27.2368 20.0581 29.9098 20.0581 30.4354C20.0581 30.8521 20.3548 31.3585 21.1742 31.2111C27.6258 29.0829 32 22.9996 32 15.8908C32 6.9999 24.7419 0.25 15.7935 0.25ZM6.27097 22.3586C6.1871 22.4227 6.20645 22.5702 6.31613 22.692C6.41935 22.7945 6.56774 22.8394 6.65161 22.7561C6.73548 22.692 6.71613 22.5445 6.60645 22.4227C6.50323 22.3202 6.35484 22.2753 6.27097 22.3586ZM5.57419 21.8394C5.52903 21.9227 5.59355 22.0253 5.72258 22.0894C5.82581 22.1535 5.95484 22.1343 6 22.0445C6.04516 21.9612 5.98064 21.8586 5.85161 21.7945C5.72258 21.7561 5.61935 21.7753 5.57419 21.8394ZM7.66452 24.1214C7.56129 24.2048 7.6 24.3971 7.74839 24.5189C7.89677 24.6663 8.08387 24.6855 8.16774 24.583C8.25161 24.4996 8.2129 24.3073 8.08387 24.1855C7.94194 24.0381 7.74839 24.0189 7.66452 24.1214ZM6.92903 23.1791C6.82581 23.2432 6.82581 23.4099 6.92903 23.5573C7.03226 23.7048 7.20645 23.7689 7.29032 23.7048C7.39355 23.6214 7.39355 23.4548 7.29032 23.3073C7.2 23.1599 7.03226 23.0958 6.92903 23.1791Z" fill="black"/>
</svg>
