<svg width="1396" height="300" viewBox="0 0 1396 300" fill="none" xmlns="http://www.w3.org/2000/svg">
<g clip-path="url(#clip0)">
<path d="M0 125.541H36.0053C40.8058 125.541 44.7314 128.698 45.0923 132.7C45.1105 132.901 45.1287 133.097 45.1287 133.302V209.901C45.1287 215.38 50.8915 218.941 55.7904 216.491L78.6299 205.068L89.6087 199.56C92.3898 198.164 95.827 198.124 98.6519 199.451L130.659 214.483C136.739 217.337 144.193 213.597 144.193 207.692V155.966C144.193 151.68 148.279 148.206 153.316 148.206H202.024C207.062 148.206 211.148 144.732 211.148 140.446V74.0303C211.148 69.7438 215.234 66.2701 220.271 66.2701H265.564C270.601 66.2701 274.687 69.7438 274.687 74.0303V81.7723C274.687 84.4222 276.28 86.8898 278.908 88.315L309.063 104.659C311.691 106.084 313.284 108.552 313.284 111.202V172.985C313.284 177.271 317.37 180.745 322.408 180.745H366.858C371.896 180.745 375.982 177.271 375.982 172.985V145.501C375.982 141.215 380.064 137.741 385.105 137.741H417.808C422.845 137.741 426.932 141.215 426.932 145.501V178.616C426.932 181.678 429.046 184.452 432.333 185.698L469.115 199.681C475.148 201.973 481.96 198.219 481.96 192.598V104.244C481.96 99.9572 486.043 96.4835 491.084 96.4835H506.64C511.678 96.4835 515.764 93.0098 515.764 88.7233V77.391C515.764 71.9927 522.081 68.2457 528.037 70.1083L559.369 79.917C562.956 81.0396 565.339 83.9483 565.339 87.1996V132.303C565.339 136.589 569.426 140.063 574.463 140.063H606.492C611.529 140.063 615.615 143.537 615.615 147.823V160.198C615.615 164.485 619.701 167.958 624.738 167.958H658.418C663.456 167.958 667.542 164.485 667.542 160.198V98.069C667.542 95.944 668.566 93.9101 670.377 92.4485L689.291 77.1467C692.754 74.3474 698.415 74.3474 701.874 77.1541L720.737 92.4485C722.541 93.9138 723.565 95.9404 723.565 98.0654V126.613C723.565 130.615 727.145 133.961 731.832 134.337L838.281 142.888C842.965 143.263 846.544 146.609 846.544 150.612V171.888C846.544 178.799 856.371 182.261 862.115 177.373L894.767 149.602C896.477 148.148 897.439 146.172 897.439 144.116V114.705C897.439 110.418 901.525 106.945 906.562 106.945H966.545C971.582 106.945 975.668 110.418 975.668 114.705V172.402C975.668 176.688 979.754 180.162 984.792 180.162H1007.54C1012.58 180.162 1016.66 176.688 1016.66 172.402V82.7455C1016.66 78.459 1020.75 74.9853 1025.79 74.9853H1061.52C1066.55 74.9853 1070.64 78.459 1070.64 82.7455V98.0253C1070.64 102.312 1074.72 105.786 1079.76 105.786H1112.76C1117.79 105.786 1121.88 109.259 1121.88 113.546V139.283C1121.88 143.57 1125.97 147.043 1131 147.043H1170.15C1175.18 147.043 1179.27 150.517 1179.27 154.803V177.636C1179.27 181.922 1183.36 185.396 1188.39 185.396H1211.14C1216.18 185.396 1220.27 181.922 1220.27 177.636V108.898C1220.27 104.612 1224.35 101.138 1229.39 101.138H1254.19C1259.22 101.138 1263.31 104.612 1263.31 108.898V131.151C1263.31 135.438 1267.4 138.911 1272.43 138.911H1293.81C1298.85 138.911 1302.94 135.438 1302.94 131.151V85.0746C1302.94 80.7881 1307.02 77.3145 1312.06 77.3145H1339.59C1344.63 77.3145 1348.72 80.7881 1348.72 85.0746V187.721V205.531C1348.72 209.817 1352.8 213.291 1357.84 213.291H1403.81C1408.85 213.291 1412.94 209.817 1412.94 205.531V149.577C1412.94 149.325 1412.96 149.077 1412.98 148.833V133.305C1412.98 129.019 1417.07 125.545 1422.1 125.545H1458V-568H0V125.541Z" fill="#027A7C"/>
<path d="M1412.94 133.302V148.83C1412.91 149.074 1412.9 149.322 1412.9 149.573V205.527C1412.9 209.814 1408.81 213.288 1403.78 213.288H1357.8C1352.77 213.288 1348.68 209.814 1348.68 205.527V187.718V85.0711C1348.68 80.7846 1344.59 77.311 1339.56 77.311H1312.03C1306.99 77.311 1302.9 80.7846 1302.9 85.0711V131.148C1302.9 135.434 1298.82 138.908 1293.78 138.908H1272.4C1267.36 138.908 1263.27 135.434 1263.27 131.148V108.895C1263.27 104.608 1259.19 101.135 1254.15 101.135H1229.35C1224.32 101.135 1220.23 104.608 1220.23 108.895V177.632C1220.23 181.919 1216.15 185.392 1211.11 185.392H1188.36C1183.32 185.392 1179.23 181.919 1179.23 177.632V154.8C1179.23 150.513 1175.15 147.04 1170.11 147.04H1130.97C1125.93 147.04 1121.84 143.566 1121.84 139.28V113.542C1121.84 109.256 1117.76 105.782 1112.72 105.782H1079.73C1074.69 105.782 1070.6 102.308 1070.6 98.0218V82.742C1070.6 78.4555 1066.52 74.9818 1061.48 74.9818H1025.75C1020.71 74.9818 1016.63 78.4555 1016.63 82.742V172.398C1016.63 176.685 1012.54 180.158 1007.5 180.158H984.755C979.718 180.158 975.632 176.685 975.632 172.398V114.701C975.632 110.415 971.546 106.941 966.508 106.941H906.526C901.489 106.941 897.403 110.415 897.403 114.701V144.113C897.403 146.172 896.44 148.144 894.731 149.599L862.079 177.37C856.331 182.258 846.507 178.795 846.507 171.884V150.608C846.507 146.606 842.928 143.26 838.244 142.885L731.796 134.333C727.112 133.958 723.529 130.612 723.529 126.61V98.0619C723.529 95.9405 722.508 93.9103 720.7 92.445L701.837 77.1506C698.378 74.3439 692.718 74.3439 689.255 77.1433L670.341 92.445C668.529 93.9103 667.505 95.9405 667.505 98.0656V160.195C667.505 164.481 663.419 167.955 658.382 167.955H624.702C619.665 167.955 615.578 164.481 615.578 160.195V147.82C615.578 143.533 611.496 140.06 606.455 140.06H574.452C569.415 140.06 565.329 136.586 565.329 132.299V87.1962C565.329 83.9449 562.945 81.0398 559.358 79.9135L528.026 70.1048C522.07 68.2386 515.753 71.9893 515.753 77.3875V88.7198C515.753 93.0063 511.671 96.48 506.629 96.48H491.073C486.035 96.48 481.949 99.9537 481.949 104.24V192.595C481.949 198.216 475.137 201.974 469.104 199.677L432.322 185.695C429.038 184.445 426.921 181.671 426.921 178.613V145.498C426.921 141.211 422.835 137.738 417.797 137.738H385.094C380.057 137.738 375.971 141.211 375.971 145.498V172.981C375.971 177.268 371.885 180.741 366.847 180.741H322.4C317.363 180.741 313.277 177.268 313.277 172.981V111.199C313.277 108.549 311.684 106.081 309.056 104.656L278.901 88.3116C276.273 86.8864 274.68 84.4187 274.68 81.7688V74.0268C274.68 69.7403 270.594 66.2666 265.556 66.2666H220.267C215.23 66.2666 211.144 69.7403 211.144 74.0268V140.442C211.144 144.729 207.058 148.203 202.02 148.203H153.316C148.279 148.203 144.193 151.676 144.193 155.963V207.689C144.193 213.598 136.739 217.337 130.659 214.48L98.6519 199.448C95.827 198.121 92.3862 198.161 89.6087 199.557L78.6299 205.065L55.7904 216.488C50.8915 218.937 45.1287 215.376 45.1287 209.898V133.298C45.1287 133.094 45.1105 132.897 45.0923 132.697C44.7314 128.695 40.8058 125.538 36.0053 125.538H0V890H45.0923H1412.94H1458V125.542H1422.07C1417.03 125.542 1412.94 129.015 1412.94 133.302Z" fill="#007171"/>
<rect x="683" y="143" width="608" height="231" rx="35" fill="#007171"/>
<g opacity="0.5" clip-path="url(#clip1)">
<rect x="683" y="143" width="304.549" height="645" rx="35.5926" fill="white"/>
<rect x="802.469" y="166.212" width="65.6142" height="9.90403" rx="4.64251" fill="#CCCCCC"/>
<circle cx="788.849" cy="171.164" r="4.95202" fill="#CCCCCC"/>
<rect x="683" y="207.841" width="304.868" height="515.317" fill="#F2F2F2"/>
<path d="M741.016 247.222C741.016 242.436 744.896 238.556 749.682 238.556H955.809C960.595 238.556 964.475 242.436 964.475 247.222V302.932H749.682C744.896 302.932 741.016 299.052 741.016 294.266V247.222Z" fill="#FFBE3C"/>
<rect x="760.938" y="254.481" width="183.148" height="10.2381" rx="4.64251" fill="white"/>
<rect x="760.938" y="276.095" width="183.148" height="10.2381" rx="4.64251" fill="white"/>
</g>
<g opacity="0.5" clip-path="url(#clip2)">
<rect x="987" y="143" width="304.549" height="645" rx="35.5926" fill="white"/>
<rect x="1106.47" y="166.212" width="65.6142" height="9.90403" rx="4.64251" fill="#CCCCCC"/>
<circle cx="1092.85" cy="171.164" r="4.95202" fill="#CCCCCC"/>
<rect x="987" y="207.841" width="304.868" height="515.317" fill="#F2F2F2"/>
<path d="M1260.02 246.084C1260.02 241.298 1256.14 237.418 1251.35 237.418H1018.42C1013.63 237.418 1009.75 241.298 1009.75 246.084V317.482C1009.75 322.268 1013.63 326.148 1018.42 326.148H1260.02V246.084Z" fill="white"/>
<path d="M1060.95 280.215L1056.21 277.434L1051.12 274.473L1040.72 268.397C1040.34 268.209 1039.93 268.119 1039.51 268.134C1039.09 268.149 1038.68 268.269 1038.31 268.483C1037.95 268.697 1037.64 268.999 1037.42 269.361C1037.2 269.724 1037.08 270.135 1037.05 270.56V294.144C1037.08 294.568 1037.2 294.98 1037.42 295.342C1037.64 295.705 1037.95 296.007 1038.31 296.221C1038.68 296.435 1039.09 296.555 1039.51 296.57C1039.93 296.585 1040.34 296.494 1040.72 296.307L1051.12 290.23L1056.21 287.27L1060.95 284.489C1061.3 284.253 1061.58 283.935 1061.78 283.563C1061.98 283.19 1062.08 282.774 1062.08 282.352C1062.08 281.93 1061.98 281.514 1061.78 281.141C1061.58 280.769 1061.3 280.45 1060.95 280.215Z" fill="#00A8A6"/>
<rect x="1088.24" y="305.104" width="46.6402" height="5.68783" rx="2.84392" transform="rotate(-90 1088.24 305.104)" fill="#F2F2F2"/>
<rect x="1097.34" y="299.416" width="35.2645" height="5.68783" rx="2.84392" transform="rotate(-90 1097.34 299.416)" fill="#F2F2F2"/>
<rect x="1106.44" y="306.81" width="50.0529" height="5.68783" rx="2.84392" transform="rotate(-90 1106.44 306.81)" fill="#F2F2F2"/>
<rect x="1115.54" y="311.36" width="59.1534" height="5.68783" rx="2.84392" transform="rotate(-90 1115.54 311.36)" fill="#F2F2F2"/>
<rect x="1124.64" y="305.104" width="46.6402" height="5.68783" rx="2.84392" transform="rotate(-90 1124.64 305.104)" fill="#F2F2F2"/>
<rect x="1133.74" y="298.847" width="34.127" height="5.68783" rx="2.84392" transform="rotate(-90 1133.74 298.847)" fill="#F2F2F2"/>
<rect x="1142.85" y="298.847" width="34.127" height="5.68783" rx="2.84392" transform="rotate(-90 1142.85 298.847)" fill="#F2F2F2"/>
<rect x="1151.95" y="294.865" width="26.164" height="5.68783" rx="2.84392" transform="rotate(-90 1151.95 294.865)" fill="#F2F2F2"/>
<rect x="1161.05" y="299.416" width="35.2645" height="5.68783" rx="2.84392" transform="rotate(-90 1161.05 299.416)" fill="#F2F2F2"/>
<rect x="1170.15" y="306.81" width="50.0529" height="5.68783" rx="2.84392" transform="rotate(-90 1170.15 306.81)" fill="#F2F2F2"/>
<rect x="1179.25" y="308.516" width="53.4656" height="5.68783" rx="2.84392" transform="rotate(-90 1179.25 308.516)" fill="#F2F2F2"/>
<rect x="1188.35" y="306.81" width="50.0529" height="5.68783" rx="2.84392" transform="rotate(-90 1188.35 306.81)" fill="#F2F2F2"/>
<rect x="1197.45" y="299.416" width="35.2645" height="5.68783" rx="2.84392" transform="rotate(-90 1197.45 299.416)" fill="#F2F2F2"/>
<rect x="1206.55" y="299.416" width="35.2645" height="5.68783" rx="2.84392" transform="rotate(-90 1206.55 299.416)" fill="#F2F2F2"/>
<rect x="1215.65" y="305.104" width="46.6402" height="5.68783" rx="2.84392" transform="rotate(-90 1215.65 305.104)" fill="#F2F2F2"/>
<rect x="1224.75" y="305.104" width="46.6402" height="5.68783" rx="2.84392" transform="rotate(-90 1224.75 305.104)" fill="#F2F2F2"/>
</g>
<g clip-path="url(#clip3)" filter="url(#filter0_d)">
<rect x="826.719" y="30" width="320.28" height="678.317" rx="37.4311" fill="white"/>
<rect x="952.357" y="54.4116" width="69.0035" height="10.4156" rx="4.88232" fill="#CCCCCC"/>
<circle cx="938.036" cy="59.6194" r="5.20781" fill="#CCCCCC"/>
<rect x="826.719" y="98.1904" width="320.616" height="541.936" fill="#F2F2F2"/>
<rect x="929.406" y="142" width="116.844" height="114.735" rx="57.3677" transform="rotate(0.498699 929.406 142)" fill="white"/>
<path d="M1019.83 178.494C1019.53 178.23 1019.18 178.027 1018.81 177.897C1018.43 177.768 1018.03 177.715 1017.63 177.741C1017.23 177.766 1016.84 177.871 1016.48 178.048C1016.13 178.225 1015.81 178.471 1015.54 178.772L980.524 218.484L970.821 209.913L965.561 205.36L961.813 202.039C961.513 201.775 961.165 201.572 960.787 201.442C960.409 201.313 960.009 201.26 959.61 201.285C959.212 201.311 958.822 201.416 958.464 201.593C958.106 201.77 957.786 202.016 957.524 202.317C956.999 202.92 956.734 203.707 956.787 204.505C956.841 205.303 957.207 206.047 957.807 206.576L964.189 212.159L969.449 216.712L981.097 226.973L1020.09 182.748C1020.61 182.148 1020.88 181.365 1020.83 180.569C1020.79 179.772 1020.43 179.027 1019.83 178.494Z" fill="#00A8A6"/>
</g>
</g>
<defs>
<filter id="filter0_d" x="824.719" y="28" width="324.28" height="682.317" filterUnits="userSpaceOnUse" color-interpolation-filters="sRGB">
<feFlood flood-opacity="0" result="BackgroundImageFix"/>
<feColorMatrix in="SourceAlpha" type="matrix" values="0 0 0 0 0 0 0 0 0 0 0 0 0 0 0 0 0 0 127 0"/>
<feOffset/>
<feGaussianBlur stdDeviation="1"/>
<feColorMatrix type="matrix" values="0 0 0 0 0 0 0 0 0 0 0 0 0 0 0 0 0 0 0.25 0"/>
<feBlend mode="normal" in2="BackgroundImageFix" result="effect1_dropShadow"/>
<feBlend mode="normal" in="SourceGraphic" in2="effect1_dropShadow" result="shape"/>
</filter>
<clipPath id="clip0">
<rect width="1396" height="300" fill="white"/>
</clipPath>
<clipPath id="clip1">
<rect width="304.549" height="645" fill="white" transform="translate(683 143)"/>
</clipPath>
<clipPath id="clip2">
<rect width="304.549" height="645" fill="white" transform="translate(987 143)"/>
</clipPath>
<clipPath id="clip3">
<rect width="320.28" height="678.317" fill="white" transform="translate(826.719 30)"/>
</clipPath>
</defs>
</svg>
