<svg width="1396" height="310" viewBox="0 0 1396 310" fill="none" xmlns="http://www.w3.org/2000/svg">
<g clip-path="url(#clip0)">
<path d="M0 125.541H36.0053C40.8058 125.541 44.7314 128.698 45.0923 132.7C45.1105 132.901 45.1287 133.097 45.1287 133.302V209.901C45.1287 215.38 50.8915 218.941 55.7904 216.491L78.6299 205.068L89.6087 199.56C92.3898 198.164 95.827 198.124 98.6519 199.451L130.659 214.483C136.739 217.337 144.193 213.597 144.193 207.692V155.966C144.193 151.68 148.279 148.206 153.316 148.206H202.024C207.062 148.206 211.148 144.732 211.148 140.446V74.0303C211.148 69.7438 215.234 66.2701 220.271 66.2701H265.564C270.601 66.2701 274.687 69.7438 274.687 74.0303V81.7723C274.687 84.4222 276.28 86.8898 278.908 88.315L309.063 104.659C311.691 106.084 313.284 108.552 313.284 111.202V172.985C313.284 177.271 317.37 180.745 322.408 180.745H366.858C371.896 180.745 375.982 177.271 375.982 172.985V145.501C375.982 141.215 380.064 137.741 385.105 137.741H417.808C422.845 137.741 426.932 141.215 426.932 145.501V178.616C426.932 181.678 429.046 184.452 432.333 185.698L469.115 199.681C475.148 201.973 481.96 198.219 481.96 192.598V104.244C481.96 99.9572 486.043 96.4835 491.084 96.4835H506.64C511.678 96.4835 515.764 93.0098 515.764 88.7233V77.391C515.764 71.9927 522.081 68.2457 528.037 70.1083L559.369 79.917C562.956 81.0396 565.339 83.9483 565.339 87.1996V132.303C565.339 136.589 569.426 140.063 574.463 140.063H606.492C611.529 140.063 615.615 143.537 615.615 147.823V160.198C615.615 164.485 619.701 167.958 624.738 167.958H658.418C663.456 167.958 667.542 164.485 667.542 160.198V98.069C667.542 95.944 668.566 93.9101 670.377 92.4485L689.291 77.1467C692.754 74.3474 698.415 74.3474 701.874 77.1541L720.737 92.4485C722.541 93.9138 723.565 95.9404 723.565 98.0654V126.613C723.565 130.615 727.145 133.961 731.832 134.337L838.281 142.888C842.965 143.263 846.544 146.609 846.544 150.612V171.888C846.544 178.799 856.371 182.261 862.115 177.373L894.767 149.602C896.477 148.148 897.439 146.172 897.439 144.116V114.705C897.439 110.418 901.525 106.945 906.562 106.945H966.545C971.582 106.945 975.668 110.418 975.668 114.705V172.402C975.668 176.688 979.754 180.162 984.792 180.162H1007.54C1012.58 180.162 1016.66 176.688 1016.66 172.402V82.7455C1016.66 78.459 1020.75 74.9853 1025.79 74.9853H1061.52C1066.55 74.9853 1070.64 78.459 1070.64 82.7455V98.0253C1070.64 102.312 1074.72 105.786 1079.76 105.786H1112.76C1117.79 105.786 1121.88 109.259 1121.88 113.546V139.283C1121.88 143.57 1125.97 147.043 1131 147.043H1170.15C1175.18 147.043 1179.27 150.517 1179.27 154.803V177.636C1179.27 181.922 1183.36 185.396 1188.39 185.396H1211.14C1216.18 185.396 1220.27 181.922 1220.27 177.636V108.898C1220.27 104.612 1224.35 101.138 1229.39 101.138H1254.19C1259.22 101.138 1263.31 104.612 1263.31 108.898V131.151C1263.31 135.438 1267.4 138.911 1272.43 138.911H1293.81C1298.85 138.911 1302.94 135.438 1302.94 131.151V85.0746C1302.94 80.7881 1307.02 77.3145 1312.06 77.3145H1339.59C1344.63 77.3145 1348.72 80.7881 1348.72 85.0746V187.721V205.531C1348.72 209.817 1352.8 213.291 1357.84 213.291H1403.81C1408.85 213.291 1412.94 209.817 1412.94 205.531V149.577C1412.94 149.325 1412.96 149.077 1412.98 148.833V133.305C1412.98 129.019 1417.07 125.545 1422.1 125.545H1458V-568H0V125.541Z" fill="white"/>
<path d="M1412.94 133.302V148.83C1412.91 149.074 1412.9 149.322 1412.9 149.573V205.527C1412.9 209.814 1408.81 213.288 1403.78 213.288H1357.8C1352.77 213.288 1348.68 209.814 1348.68 205.527V187.718V85.0711C1348.68 80.7846 1344.59 77.311 1339.56 77.311H1312.03C1306.99 77.311 1302.9 80.7846 1302.9 85.0711V131.148C1302.9 135.434 1298.82 138.908 1293.78 138.908H1272.4C1267.36 138.908 1263.27 135.434 1263.27 131.148V108.895C1263.27 104.608 1259.19 101.135 1254.15 101.135H1229.35C1224.32 101.135 1220.23 104.608 1220.23 108.895V177.632C1220.23 181.919 1216.15 185.392 1211.11 185.392H1188.36C1183.32 185.392 1179.23 181.919 1179.23 177.632V154.8C1179.23 150.513 1175.15 147.04 1170.11 147.04H1130.97C1125.93 147.04 1121.84 143.566 1121.84 139.28V113.542C1121.84 109.256 1117.76 105.782 1112.72 105.782H1079.73C1074.69 105.782 1070.6 102.308 1070.6 98.0218V82.742C1070.6 78.4555 1066.52 74.9818 1061.48 74.9818H1025.75C1020.71 74.9818 1016.63 78.4555 1016.63 82.742V172.398C1016.63 176.685 1012.54 180.158 1007.5 180.158H984.755C979.718 180.158 975.632 176.685 975.632 172.398V114.701C975.632 110.415 971.546 106.941 966.508 106.941H906.526C901.489 106.941 897.403 110.415 897.403 114.701V144.113C897.403 146.172 896.44 148.144 894.731 149.599L862.079 177.37C856.331 182.258 846.507 178.795 846.507 171.884V150.608C846.507 146.606 842.928 143.26 838.244 142.885L731.796 134.333C727.112 133.958 723.529 130.612 723.529 126.61V98.0619C723.529 95.9405 722.508 93.9103 720.7 92.445L701.837 77.1506C698.378 74.3439 692.718 74.3439 689.255 77.1433L670.341 92.445C668.529 93.9103 667.505 95.9405 667.505 98.0656V160.195C667.505 164.481 663.419 167.955 658.382 167.955H624.702C619.665 167.955 615.578 164.481 615.578 160.195V147.82C615.578 143.533 611.496 140.06 606.455 140.06H574.452C569.415 140.06 565.329 136.586 565.329 132.299V87.1962C565.329 83.9449 562.945 81.0398 559.358 79.9135L528.026 70.1048C522.07 68.2386 515.753 71.9893 515.753 77.3875V88.7198C515.753 93.0063 511.671 96.48 506.629 96.48H491.073C486.035 96.48 481.949 99.9537 481.949 104.24V192.595C481.949 198.216 475.137 201.974 469.104 199.677L432.322 185.695C429.038 184.445 426.921 181.671 426.921 178.613V145.498C426.921 141.211 422.835 137.738 417.797 137.738H385.094C380.057 137.738 375.971 141.211 375.971 145.498V172.981C375.971 177.268 371.885 180.741 366.847 180.741H322.4C317.363 180.741 313.277 177.268 313.277 172.981V111.199C313.277 108.549 311.684 106.081 309.056 104.656L278.901 88.3116C276.273 86.8864 274.68 84.4187 274.68 81.7688V74.0268C274.68 69.7403 270.594 66.2666 265.556 66.2666H220.267C215.23 66.2666 211.144 69.7403 211.144 74.0268V140.442C211.144 144.729 207.058 148.203 202.02 148.203H153.316C148.279 148.203 144.193 151.676 144.193 155.963V207.689C144.193 213.598 136.739 217.337 130.659 214.48L98.6519 199.448C95.827 198.121 92.3862 198.161 89.6087 199.557L78.6299 205.065L55.7904 216.488C50.8915 218.937 45.1287 215.376 45.1287 209.898V133.298C45.1287 133.094 45.1105 132.897 45.0923 132.697C44.7314 128.695 40.8058 125.538 36.0053 125.538H0V890H45.0923H1412.94H1458V125.542H1422.07C1417.03 125.542 1412.94 129.015 1412.94 133.302Z" fill="#F2F2F2"/>
<g clip-path="url(#clip1)">
<path d="M960.949 41.1797C960.237 52.5867 967.419 63.1333 978.254 66.5916L950.018 79.1915L949.836 70.0387C949.615 58.8321 953.895 48.6606 960.949 41.1797Z" fill="#531600"/>
<path d="M1039.97 124.245L1040.02 124.247L1039.59 124.917L1039.97 124.245Z" fill="#2A9B00"/>
<path d="M888.263 140.832C889.036 137.856 892.063 136.069 895.024 136.842L900.79 138.347C903.751 139.121 905.527 142.161 904.754 145.138L898.866 167.823L886.595 147.257L888.263 140.832Z" fill="#3A1104"/>
<path d="M887.274 174.656L888.614 176.9C890.114 179.416 892.99 180.585 895.699 180.034L890.082 201.678C889.833 202.641 889.343 203.477 888.7 204.145C888.756 204.028 888.805 203.91 888.862 203.793C893.226 194.857 892.815 184.317 887.768 175.763L885.35 171.665C885.221 171.346 885.068 171.037 884.927 170.722L887.274 174.656C887.273 174.655 887.274 174.656 887.274 174.656Z" fill="#3A1104"/>
<path d="M963.775 107.539C964.249 106.601 965.389 106.224 966.324 106.695C967.261 107.168 967.637 108.316 967.165 109.259C967.107 109.376 962.085 119.041 950.805 118.829L950.73 115.011C959.692 115.259 963.579 107.923 963.775 107.539Z" fill="#3A1104"/>
<path d="M939.98 87.8472L943.313 94.5662C943.782 95.5103 943.4 96.6566 942.461 97.1283C942.122 97.2985 941.755 97.3566 941.404 97.3175C940.785 97.2485 940.212 96.8752 939.914 96.2733L932.34 81.0028C931.871 80.0599 932.253 78.9124 933.193 78.4421C934.133 77.9705 935.273 78.3543 935.74 79.2971L938.286 84.4288L950.021 79.1919L978.255 66.5906C967.421 63.1335 960.238 52.5856 960.951 41.1787C968.947 32.7014 980.508 27.6782 993.119 28.5245C1014.52 29.9606 1031.09 47.9017 1030.92 69.4587L1030.55 115.265C1030.53 118.171 1030.82 121.011 1031.37 123.759C1018.41 122.607 1008.4 111.664 1008.5 98.4795L1008.56 91.9934L1008.56 91.9922C1008.65 79.4782 999.156 69.0044 986.75 67.9441L984.934 67.7881L950.103 83.3313L939.98 87.8472Z" fill="#020202"/>
<path d="M843.523 616.89L967.525 339.215L1005.27 312.219C1011.42 307.815 1020.03 310.008 1023.35 316.824L1051.2 374.068C1062.41 397.116 1087.92 409.261 1112.69 403.568L1113.45 405.222C1117.16 413.328 1126.72 416.849 1134.77 413.068L1136.41 412.296L1140.11 410.559L1230.86 664.545L1135.13 679.321C1136.94 671.86 1136.52 663.817 1133.52 656.242L1041.21 438.968C1037.92 431.224 1027.07 431.008 1023.46 438.615L900.143 698.399L830.586 629.538C836.146 627.201 840.869 622.834 843.523 616.89Z" fill="#002043"/>
<path d="M1242.07 298.052L1239.11 299.435L1215.71 310.369C1215 308.46 1214.16 306.57 1213.16 304.713L1172.95 229.88L1190.39 221.667C1198.44 217.881 1208 221.389 1211.72 229.485L1242.11 295.681L1243 297.618L1242.34 297.928L1242.07 298.052Z" fill="#E4485A"/>
<path d="M1072.43 277.191L1083.33 272.064L1123.87 252.981L1156.33 319.798L1160.68 328.748L1148.04 331.2C1136.49 333.441 1124.53 331.787 1114.02 326.496C1105.43 322.171 1095.84 320.258 1086.25 320.96L1083.52 321.159C1080.77 321.361 1078.24 322.104 1075.97 323.252L1064.66 298.499C1060.98 290.463 1064.46 280.946 1072.43 277.191ZM1095.7 313.324L1125.19 299.44L1127.98 298.13L1117.84 276.327L1101.56 283.986L1085.56 291.52L1095.7 313.324Z" fill="#E4485A"/>
<path d="M1141.12 382.149L1181.52 371.651L1184.39 370.904C1209.77 364.311 1223.75 338.104 1216.92 314.016L1241.99 302.297L1243.52 301.584L1243.61 301.539L1244.59 301.084L1244.72 301.372L1244.84 301.636L1245.19 302.401L1260.73 336.232C1264.42 344.276 1260.94 353.814 1252.95 357.568L1140.11 410.559L1136.41 412.296L1134.77 413.068C1126.72 416.847 1117.16 413.328 1113.45 405.222L1112.7 403.568L1106.99 391.085C1108.3 390.924 1109.61 390.696 1110.92 390.342L1141.12 382.149Z" fill="#E4485A"/>
<path d="M838.262 79.3852C841.443 77.4659 845.569 78.4992 847.476 81.6958L886.597 147.259L898.868 167.824L900.136 169.948C902.042 173.144 901.009 177.29 897.826 179.209C897.15 179.618 896.43 179.884 895.699 180.034C892.991 180.585 890.114 179.416 888.614 176.9L887.275 174.656C887.275 174.656 887.275 174.656 887.275 174.655L884.927 170.721C884.462 169.675 883.956 168.647 883.364 167.658L883.364 167.656L881.931 165.242L843.94 101.252C843.944 101.289 843.947 101.333 843.953 101.37L839.837 94.3731C839.416 93.6686 838.889 93.0673 838.294 92.5664L835.956 88.6479C834.046 85.4523 835.08 81.3057 838.262 79.3852Z" fill="#E4485A"/>
<path d="M986.503 158.751C986.123 155.766 984.879 153.06 983.033 150.888L983.034 150.888L1005.77 173.93L1011.84 154.877C1012.93 151.43 1015.49 148.644 1018.82 147.264L1038.03 139.296C1040.6 142.968 1043.76 146.203 1047.38 148.86L1021.62 227.471L983.041 170.539C985.725 167.356 987.059 163.125 986.508 158.806L986.503 158.751Z" fill="white"/>
<path d="M1117.84 276.327L1127.98 298.129L1125.19 299.439L1095.7 313.323L1085.56 291.52L1101.56 283.987L1117.84 276.327Z" fill="white"/>
<path d="M840.383 223.182L885.155 229.987L884.981 233.441L882.857 275.681L939.999 203.266C944.428 197.653 949.482 192.601 955.03 188.175C960.24 184.018 965.885 180.411 971.896 177.453L973.418 176.704L978.175 174.362C980.088 173.42 981.726 172.105 983.045 170.541L1021.62 227.473L1047.38 148.862C1052.98 152.97 1059.67 155.701 1067.01 156.518L1088.15 158.874C1119.22 162.336 1146.62 180.885 1161.47 208.519L1172.95 229.881L1213.16 304.714C1214.16 306.57 1215 308.46 1215.71 310.369C1216.17 311.579 1216.57 312.795 1216.92 314.017C1223.75 338.105 1209.77 364.312 1184.39 370.905L1181.52 371.652L1160.68 328.749L1156.33 319.798L1123.87 252.982L1083.33 272.064L1072.43 277.192C1064.46 280.946 1060.98 290.46 1064.66 298.495L1075.97 323.253C1066.91 327.855 1062.29 339.079 1066.74 349.204L1077.85 374.48C1082.91 386 1094.85 392.579 1106.99 391.082L1112.69 403.565C1087.92 409.258 1062.41 397.113 1051.2 374.065L1023.35 316.821C1020.03 310.005 1011.42 307.812 1005.26 312.216L967.523 339.212L984.304 301.633C986.07 297.68 986.047 293.061 983.904 289.306C979.823 282.155 970.336 280.514 964.104 285.787L960.965 288.442L896.923 342.625C866.291 368.541 819.762 344.727 822.646 304.611L828.628 221.394L840.383 223.182Z" fill="#2A6E70"/>
<path d="M986.75 67.942C999.156 69.0035 1008.65 79.4772 1008.56 91.9913L1008.5 98.4774C1008.4 111.662 1018.41 122.605 1031.37 123.757C1032.51 129.433 1034.81 134.704 1038.03 139.294L1018.82 147.263C1015.49 148.644 1012.94 151.43 1011.84 154.876L1005.78 173.928L983.037 150.886L983.035 150.886C980.775 148.226 977.611 146.367 974 145.788C961.016 143.706 951.094 133.13 950.829 119.918L950.807 118.828C962.088 119.04 967.109 109.374 967.166 109.258C967.639 108.316 967.262 107.168 966.325 106.694C965.39 106.223 964.251 106.599 963.777 107.537C963.581 107.922 959.694 115.258 950.733 115.01L950.104 83.3294L984.935 67.7861L986.75 67.942Z" fill="#6B1900"/>
<path d="M830.359 91.7131C832.999 90.316 836.122 90.7404 838.292 92.5669C838.887 93.0679 839.414 93.6678 839.834 94.3736L843.951 101.37C843.946 101.333 843.943 101.289 843.938 101.252L881.929 165.242L883.362 167.657L883.362 167.658C883.952 168.647 884.46 169.676 884.925 170.721C885.066 171.036 885.22 171.345 885.349 171.664L887.766 175.762C892.813 184.317 893.224 194.857 888.86 203.792C888.803 203.909 888.754 204.027 888.698 204.144C887.045 207.644 886.086 211.436 885.892 215.306L885.154 229.987L840.381 223.182L843.561 194.641C845.175 180.158 844.947 165.53 842.885 151.111L840.305 133.074C839.313 126.139 837.034 119.455 833.585 113.368L827.466 101.646C825.466 98.1119 826.776 93.6102 830.359 91.7131Z" fill="#6B1900"/>
<path d="M1244.84 301.636L1244.72 301.372L1244.59 301.084L1243.61 301.539L1243.52 301.583L1241.99 302.297L1216.92 314.016C1216.57 312.793 1216.17 311.576 1215.72 310.368L1239.11 299.435L1242.07 298.052L1242.34 297.927L1243 297.617L1242.11 295.68L1242.63 266.069C1242.7 262.289 1244.41 258.753 1247.33 256.371C1250.25 253.986 1254.05 253.029 1257.74 253.741C1262.07 254.575 1265.6 257.54 1267.19 261.671C1268.77 265.8 1268.14 270.383 1265.5 273.93L1252.33 291.596L1258.53 287.337C1271.64 278.334 1287.91 275.679 1303.17 280.053C1304.18 280.342 1304.77 281.399 1304.48 282.413C1304.19 283.427 1303.14 284.015 1302.13 283.724C1287.96 279.663 1272.85 282.129 1260.67 290.488L1251.33 296.904L1275.52 294.151C1279.07 293.747 1282.5 295.019 1284.93 297.641C1287.37 300.263 1288.39 303.792 1287.75 307.322C1287.11 310.801 1284.95 313.715 1281.8 315.315C1279.83 316.321 1277.66 316.707 1275.54 316.471C1274.29 316.332 1273.05 315.976 1271.88 315.404L1245.19 302.399L1244.84 301.636ZM1262.46 271.642C1264.31 269.156 1264.75 265.943 1263.64 263.048C1262.53 260.153 1260.05 258.075 1257.02 257.49C1256.79 257.444 1256.55 257.409 1256.32 257.383C1253.96 257.12 1251.59 257.813 1249.72 259.334C1247.68 261.005 1246.47 263.483 1246.43 266.133L1245.94 293.797L1262.46 271.642ZM1273.54 311.97C1275.63 312.987 1278.02 312.966 1280.09 311.91C1282.16 310.854 1283.59 308.932 1284.01 306.636C1284.44 304.307 1283.76 301.979 1282.15 300.248C1280.93 298.934 1279.33 298.134 1277.61 297.941C1277.06 297.881 1276.51 297.881 1275.94 297.945L1250.67 300.821L1273.54 311.97Z" fill="#9E2A00"/>
</g>
</g>
<defs>
<clipPath id="clip0">
<rect width="1396" height="310" fill="white"/>
</clipPath>
<clipPath id="clip1">
<rect width="495.488" height="706.13" fill="white" transform="matrix(-0.993851 -0.110728 -0.110728 0.993851 1328.63 65.8643)"/>
</clipPath>
</defs>
</svg>
