<svg width="1396" height="310" viewBox="0 0 1396 310" fill="none" xmlns="http://www.w3.org/2000/svg">
<g clip-path="url(#clip0)">
<path d="M0 125.541H36.0053C40.8058 125.541 44.7314 128.698 45.0923 132.7C45.1105 132.901 45.1287 133.097 45.1287 133.302V209.901C45.1287 215.38 50.8915 218.941 55.7904 216.491L78.6299 205.068L89.6087 199.56C92.3898 198.164 95.827 198.124 98.6519 199.451L130.659 214.483C136.739 217.337 144.193 213.597 144.193 207.692V155.966C144.193 151.68 148.279 148.206 153.316 148.206H202.024C207.062 148.206 211.148 144.732 211.148 140.446V74.0303C211.148 69.7438 215.234 66.2701 220.271 66.2701H265.564C270.601 66.2701 274.687 69.7438 274.687 74.0303V81.7723C274.687 84.4222 276.28 86.8898 278.908 88.315L309.063 104.659C311.691 106.084 313.284 108.552 313.284 111.202V172.985C313.284 177.271 317.37 180.745 322.408 180.745H366.858C371.896 180.745 375.982 177.271 375.982 172.985V145.501C375.982 141.215 380.064 137.741 385.105 137.741H417.808C422.845 137.741 426.932 141.215 426.932 145.501V178.616C426.932 181.678 429.046 184.452 432.333 185.698L469.115 199.681C475.148 201.973 481.96 198.219 481.96 192.598V104.244C481.96 99.9572 486.043 96.4835 491.084 96.4835H506.64C511.678 96.4835 515.764 93.0098 515.764 88.7233V77.391C515.764 71.9927 522.081 68.2457 528.037 70.1083L559.369 79.917C562.956 81.0396 565.339 83.9483 565.339 87.1996V132.303C565.339 136.589 569.426 140.063 574.463 140.063H606.492C611.529 140.063 615.615 143.537 615.615 147.823V160.198C615.615 164.485 619.701 167.958 624.738 167.958H658.418C663.456 167.958 667.542 164.485 667.542 160.198V98.069C667.542 95.944 668.566 93.9101 670.377 92.4485L689.291 77.1467C692.754 74.3474 698.415 74.3474 701.874 77.1541L720.737 92.4485C722.541 93.9138 723.565 95.9404 723.565 98.0654V126.613C723.565 130.615 727.145 133.961 731.832 134.337L838.281 142.888C842.965 143.263 846.544 146.609 846.544 150.612V171.888C846.544 178.799 856.371 182.261 862.115 177.373L894.767 149.602C896.477 148.148 897.439 146.172 897.439 144.116V114.705C897.439 110.418 901.525 106.945 906.562 106.945H966.545C971.582 106.945 975.668 110.418 975.668 114.705V172.402C975.668 176.688 979.754 180.162 984.792 180.162H1007.54C1012.58 180.162 1016.66 176.688 1016.66 172.402V82.7455C1016.66 78.459 1020.75 74.9853 1025.79 74.9853H1061.52C1066.55 74.9853 1070.64 78.459 1070.64 82.7455V98.0253C1070.64 102.312 1074.72 105.786 1079.76 105.786H1112.76C1117.79 105.786 1121.88 109.259 1121.88 113.546V139.283C1121.88 143.57 1125.97 147.043 1131 147.043H1170.15C1175.18 147.043 1179.27 150.517 1179.27 154.803V177.636C1179.27 181.922 1183.36 185.396 1188.39 185.396H1211.14C1216.18 185.396 1220.27 181.922 1220.27 177.636V108.898C1220.27 104.612 1224.35 101.138 1229.39 101.138H1254.19C1259.22 101.138 1263.31 104.612 1263.31 108.898V131.151C1263.31 135.438 1267.4 138.911 1272.43 138.911H1293.81C1298.85 138.911 1302.94 135.438 1302.94 131.151V85.0746C1302.94 80.7881 1307.02 77.3145 1312.06 77.3145H1339.59C1344.63 77.3145 1348.72 80.7881 1348.72 85.0746V187.721V205.531C1348.72 209.817 1352.8 213.291 1357.84 213.291H1403.81C1408.85 213.291 1412.94 209.817 1412.94 205.531V149.577C1412.94 149.325 1412.96 149.077 1412.98 148.833V133.305C1412.98 129.019 1417.07 125.545 1422.1 125.545H1458V-568H0V125.541Z" fill="white"/>
<path d="M1412.94 133.302V148.83C1412.91 149.074 1412.9 149.322 1412.9 149.573V205.527C1412.9 209.814 1408.81 213.288 1403.78 213.288H1357.8C1352.77 213.288 1348.68 209.814 1348.68 205.527V187.718V85.0711C1348.68 80.7846 1344.59 77.311 1339.56 77.311H1312.03C1306.99 77.311 1302.9 80.7846 1302.9 85.0711V131.148C1302.9 135.434 1298.82 138.908 1293.78 138.908H1272.4C1267.36 138.908 1263.27 135.434 1263.27 131.148V108.895C1263.27 104.608 1259.19 101.135 1254.15 101.135H1229.35C1224.32 101.135 1220.23 104.608 1220.23 108.895V177.632C1220.23 181.919 1216.15 185.392 1211.11 185.392H1188.36C1183.32 185.392 1179.23 181.919 1179.23 177.632V154.8C1179.23 150.513 1175.15 147.04 1170.11 147.04H1130.97C1125.93 147.04 1121.84 143.566 1121.84 139.28V113.542C1121.84 109.256 1117.76 105.782 1112.72 105.782H1079.73C1074.69 105.782 1070.6 102.308 1070.6 98.0218V82.742C1070.6 78.4555 1066.52 74.9818 1061.48 74.9818H1025.75C1020.71 74.9818 1016.63 78.4555 1016.63 82.742V172.398C1016.63 176.685 1012.54 180.158 1007.5 180.158H984.755C979.718 180.158 975.632 176.685 975.632 172.398V114.701C975.632 110.415 971.546 106.941 966.508 106.941H906.526C901.489 106.941 897.403 110.415 897.403 114.701V144.113C897.403 146.172 896.44 148.144 894.731 149.599L862.079 177.37C856.331 182.258 846.507 178.795 846.507 171.884V150.608C846.507 146.606 842.928 143.26 838.244 142.885L731.796 134.333C727.112 133.958 723.529 130.612 723.529 126.61V98.0619C723.529 95.9405 722.508 93.9103 720.7 92.445L701.837 77.1506C698.378 74.3439 692.718 74.3439 689.255 77.1433L670.341 92.445C668.529 93.9103 667.505 95.9405 667.505 98.0656V160.195C667.505 164.481 663.419 167.955 658.382 167.955H624.702C619.665 167.955 615.578 164.481 615.578 160.195V147.82C615.578 143.533 611.496 140.06 606.455 140.06H574.452C569.415 140.06 565.329 136.586 565.329 132.299V87.1962C565.329 83.9449 562.945 81.0398 559.358 79.9135L528.026 70.1048C522.07 68.2386 515.753 71.9893 515.753 77.3875V88.7198C515.753 93.0063 511.671 96.48 506.629 96.48H491.073C486.035 96.48 481.949 99.9537 481.949 104.24V192.595C481.949 198.216 475.137 201.974 469.104 199.677L432.322 185.695C429.038 184.445 426.921 181.671 426.921 178.613V145.498C426.921 141.211 422.835 137.738 417.797 137.738H385.094C380.057 137.738 375.971 141.211 375.971 145.498V172.981C375.971 177.268 371.885 180.741 366.847 180.741H322.4C317.363 180.741 313.277 177.268 313.277 172.981V111.199C313.277 108.549 311.684 106.081 309.056 104.656L278.901 88.3116C276.273 86.8864 274.68 84.4187 274.68 81.7688V74.0268C274.68 69.7403 270.594 66.2666 265.556 66.2666H220.267C215.23 66.2666 211.144 69.7403 211.144 74.0268V140.442C211.144 144.729 207.058 148.203 202.02 148.203H153.316C148.279 148.203 144.193 151.676 144.193 155.963V207.689C144.193 213.598 136.739 217.337 130.659 214.48L98.6519 199.448C95.827 198.121 92.3862 198.161 89.6087 199.557L78.6299 205.065L55.7904 216.488C50.8915 218.937 45.1287 215.376 45.1287 209.898V133.298C45.1287 133.094 45.1105 132.897 45.0923 132.697C44.7314 128.695 40.8058 125.538 36.0053 125.538H0V890H45.0923H1412.94H1458V125.542H1422.07C1417.03 125.542 1412.94 129.015 1412.94 133.302Z" fill="#F2F2F2"/>
<path d="M1118.77 292.752L1067.41 169.069C1062.85 158.085 1055.46 148.514 1045.99 141.34L1036.15 133.878C1034.72 132.808 1033.53 131.446 1032.67 129.882C1031.8 128.318 1031.27 126.587 1031.12 124.803C1030.96 123.02 1031.19 121.224 1031.77 119.534C1032.36 117.844 1033.3 116.298 1034.53 114.997L1000.88 86.6982C995.06 89.8703 988.64 91.7758 982.036 92.2903C974.254 98.0973 964.809 101.224 955.11 101.202C960.811 108.172 965.233 116.102 968.171 124.623C974.816 143.84 973.603 164.504 964.757 182.807L948.377 216.685L934.467 245.456L1011.89 278.956C1014.06 277.352 1016.55 276.227 1019.19 275.653C1021.83 275.08 1024.56 275.071 1027.2 275.627C1029.84 276.184 1032.34 277.293 1034.52 278.882C1036.71 280.472 1038.54 282.506 1039.89 284.852L1079.97 354.65C1099.84 389.253 1151.35 383.154 1162.65 344.86L1188.78 256.26C1189.19 254.869 1189.64 253.498 1190.14 252.147L1149.98 217.051L1118.77 292.752Z" fill="#FFC747"/>
<path d="M956.8 180.243C964.087 165.163 966.03 147.938 961.72 131.847C961.649 131.586 961.59 131.316 961.509 131.05C961.33 130.416 961.129 129.785 960.93 129.154C960.765 128.632 960.606 128.103 960.428 127.58C960.371 127.411 960.31 127.245 960.251 127.078C959.854 125.947 959.431 124.83 958.981 123.725C958.921 123.58 958.86 123.438 958.8 123.294C958.337 122.188 957.849 121.097 957.335 120.024C957.273 119.893 957.205 119.763 957.144 119.632C956.616 118.554 956.063 117.492 955.484 116.447C955.422 116.332 955.354 116.218 955.29 116.104C954.697 115.052 954.079 114.019 953.434 113.002C953.373 112.906 953.304 112.812 953.248 112.717C952.589 111.692 951.904 110.686 951.193 109.699C951.137 109.622 951.08 109.548 951.024 109.472C950.296 108.474 949.542 107.497 948.763 106.541C948.719 106.486 948.672 106.434 948.633 106.379C947.834 105.408 947.011 104.458 946.163 103.531L946.085 103.45C945.209 102.503 944.306 101.581 943.377 100.683L929.977 100.031C901.785 98.6633 874.17 108.36 852.983 127.067L816.678 159.118L800.623 173.286L747.123 220.521C719.043 245.314 715.013 285.065 732.397 314.434C733.125 315.665 733.892 316.877 734.696 318.069C735.672 319.517 736.697 320.938 737.783 322.32C743.705 329.865 751.03 336.184 759.352 340.929L803.422 366.159L828.657 320.156L836.889 305.152L807.879 287.625L798.07 281.66L869.862 224.409C871.56 223.056 873.592 222.189 875.741 221.903C877.891 221.616 880.078 221.92 882.069 222.782L926.863 242.165L940.425 214.107L956.8 180.243Z" fill="#FFC747"/>
<path d="M1083.16 63.6C1083.15 62.8661 1082.86 62.1646 1082.34 61.6499C1081.81 61.1353 1081.11 60.8495 1080.38 60.8556C1079.65 60.8616 1078.95 61.159 1078.43 61.6822C1077.92 62.2055 1077.64 62.9118 1077.64 63.6457C1077.64 63.8139 1077.94 78.4786 1092.52 84.8035L1094.39 79.5871C1083.5 74.6432 1083.17 64.1386 1083.16 63.6Z" fill="#C44927"/>
<path d="M908.545 280.074L926.875 242.164L882.074 222.776L836.885 305.157L843.946 298.115C852.272 289.809 862.585 283.788 873.896 280.629C885.208 277.47 897.138 277.279 908.545 280.074Z" fill="#0A2142"/>
<path d="M1215.23 678.612C1205.32 669.602 1197.01 658.961 1190.67 647.148L1006.36 303.59C1001.73 294.959 1004.36 284.494 1011.9 278.956L934.477 245.456L842.705 435.315C833.857 453.618 818.435 467.37 799.277 474.037C791.258 476.839 782.828 478.274 774.336 478.282C772.753 478.282 771.169 478.219 769.59 478.119L694.46 642.359C692.101 647.517 689.887 652.733 687.816 658.008C687.05 659.954 686.303 661.906 685.576 663.865L766.61 692.156L794.69 701.955L800.85 689.421L816.285 658.009L929.071 428.473L1127.51 762.79L1150.67 741.953L1218.19 681.219C1217.18 680.367 1216.2 679.498 1215.23 678.612Z" fill="#0A2142"/>
<path d="M1170.67 183.035L1253.17 109.778C1254.97 108.082 1256.03 105.752 1256.14 103.282C1256.25 100.811 1255.4 98.3948 1253.77 96.5432C1252.13 94.6916 1249.85 93.5504 1247.39 93.361C1244.93 93.1716 1242.5 93.949 1240.6 95.5285L1158.1 168.787C1156.29 170.481 1155.22 172.814 1155.11 175.289C1154.99 177.764 1155.84 180.187 1157.48 182.043C1159.12 183.898 1161.41 185.04 1163.87 185.226C1166.34 185.412 1168.78 184.627 1170.67 183.038V183.035Z" fill="#0A2142"/>
<path d="M1039.78 45.9639C1038.6 45.9639 1037.44 46.3157 1036.46 46.9749C1035.48 47.634 1034.71 48.5709 1034.26 49.6671C1033.8 50.7632 1033.68 51.9694 1033.92 53.1331C1034.15 54.2967 1034.72 55.3656 1035.55 56.2046C1036.39 57.0436 1037.45 57.6149 1038.61 57.8464C1039.77 58.0778 1040.98 57.959 1042.07 57.505C1043.16 57.0509 1044.1 56.2821 1044.75 55.2955C1045.41 54.309 1045.76 53.1492 1045.76 51.9627C1045.76 50.3717 1045.13 48.8459 1044.01 47.7209C1042.89 46.5959 1041.37 45.9639 1039.78 45.9639Z" fill="#E4485B"/>
<path d="M955.11 101.202C954.411 101.202 953.709 101.187 953.004 101.151L943.366 100.685C944.296 101.581 945.199 102.503 946.074 103.452L946.152 103.533C947.005 104.459 947.828 105.408 948.622 106.381C948.666 106.436 948.713 106.488 948.752 106.543C949.532 107.499 950.286 108.476 951.013 109.474C951.069 109.55 951.126 109.624 951.182 109.701C951.894 110.686 952.579 111.692 953.237 112.719C953.3 112.814 953.367 112.908 953.423 113.004C954.069 114.019 954.688 115.053 955.279 116.106C955.343 116.22 955.409 116.333 955.473 116.449C956.054 117.492 956.607 118.554 957.133 119.635C957.197 119.765 957.263 119.895 957.324 120.026C957.844 121.099 958.333 122.19 958.789 123.296C958.849 123.44 958.91 123.582 958.97 123.727C959.421 124.829 959.844 125.947 960.24 127.08C960.273 127.17 960.31 127.256 960.342 127.34C960.373 127.425 960.39 127.498 960.417 127.576C960.595 128.098 960.754 128.62 960.919 129.151C961.118 129.783 961.318 130.413 961.499 131.047C961.573 131.308 961.639 131.579 961.709 131.844C965.999 147.657 964.496 164.295 957.3 179.183L956.789 180.24L940.423 214.099L926.861 242.156L908.531 280.065L882.383 334.162L877.324 344.629L875.978 347.413C863.628 372.966 832.298 382.698 807.711 368.622L803.404 366.156L759.353 340.928C751.03 336.182 743.705 329.861 737.784 322.314C736.697 320.93 735.673 319.511 734.697 318.063C733.893 316.871 733.127 315.66 732.398 314.429L706.089 368.862C687.83 406.646 703.61 452.291 741.276 470.612C750.138 474.937 759.755 477.488 769.59 478.12C771.17 478.22 772.753 478.283 774.336 478.283C782.828 478.275 791.258 476.841 799.277 474.038C818.435 467.371 833.857 453.62 842.705 435.316L934.477 245.457L948.387 216.686L964.767 182.808C973.613 164.505 974.826 143.841 968.181 124.624C965.241 116.102 960.815 108.172 955.11 101.202Z" fill="#E4485B"/>
<path d="M1174.03 180.057C1164.9 188.162 1157.74 198.249 1153.08 209.55L1149.98 217.052L1190.14 252.15C1193.55 242.84 1199 234.414 1206.08 227.488L1226.09 207.91C1237.27 196.971 1244.6 182.686 1247 167.205C1249.39 151.723 1246.7 135.88 1239.35 122.061L1174.03 180.057Z" fill="#F4865F"/>
<path d="M1075.62 27.2263C1073.61 22.5348 1070.28 18.537 1066.03 15.7276C1061.78 12.9183 1056.8 11.4209 1051.71 11.4206C1037.34 11.4206 1025.69 23.108 1025.69 37.5248C1025.69 37.9787 1025.73 38.4208 1025.75 38.8694L1025.69 38.8837V44.8604C1025.69 62.9197 1015.66 78.6302 1000.88 86.6922L1034.53 114.991C1035.71 113.704 1037.15 112.675 1038.75 111.97C1040.35 111.264 1042.08 110.897 1043.82 110.891L1065.46 110.873C1070.65 110.869 1075.71 109.259 1079.96 106.263C1084.2 103.268 1087.42 99.0317 1089.17 94.1334L1092.52 84.8025C1077.94 78.4776 1077.64 63.8065 1077.64 63.6447C1077.64 62.9108 1077.92 62.2045 1078.43 61.6813C1078.95 61.158 1079.65 60.8607 1080.38 60.8546C1081.11 60.8486 1081.81 61.1343 1082.34 61.649C1082.86 62.1637 1083.15 62.8652 1083.16 63.5991C1083.17 64.1377 1083.5 74.6423 1094.39 79.5796L1114.1 24.6299C1116.47 18.0479 1117.44 11.0419 1116.95 4.06152L1075.62 27.2263ZM1039.78 57.9549C1038.6 57.9549 1037.44 57.6031 1036.46 56.944C1035.48 56.2848 1034.71 55.3479 1034.26 54.2517C1033.8 53.1556 1033.69 51.9494 1033.92 50.7857C1034.15 49.6221 1034.72 48.5532 1035.55 47.7142C1036.39 46.8753 1037.45 46.3039 1038.61 46.0724C1039.77 45.841 1040.98 45.9598 1042.07 46.4138C1043.16 46.8679 1044.1 47.6368 1044.75 48.6233C1045.41 49.6098 1045.76 50.7696 1045.76 51.9561C1045.76 53.5471 1045.13 55.0729 1044.01 56.1979C1042.89 57.3229 1041.37 57.9549 1039.78 57.9549Z" fill="#F4865F"/>
<path d="M843.947 298.112L836.885 305.154L828.654 320.158L803.418 366.161L807.725 368.627C832.31 382.704 863.641 372.971 875.992 347.419L877.337 344.635L882.397 334.168L908.545 280.071C897.139 277.276 885.208 277.468 873.897 280.627C862.585 283.786 852.273 289.807 843.947 298.112Z" fill="#F4865F"/>
<path d="M1076.83 -41.8458C1057.5 -45.7985 1038.37 -38.0287 1026.99 -23.2297V-23.2467L1021.5 -16.5579C1017.73 -11.953 1012.95 -8.27886 1007.53 -5.81834C1002.12 -3.35783 996.21 -2.17653 990.268 -2.36535L979.725 -2.70311V-2.68877C979.231 -2.70442 978.74 -2.72659 978.243 -2.72659C952.045 -2.72919 930.801 18.5773 930.801 44.8602C930.801 71.1431 952.04 92.4496 978.24 92.4496C979.518 92.4496 980.779 92.3844 982.032 92.284C988.636 91.7695 995.057 89.864 1000.88 86.6919C1015.65 78.63 1025.68 62.9194 1025.68 44.8602V38.8835L1025.75 38.8691C1025.72 38.4205 1025.68 37.9784 1025.68 37.5246C1025.68 23.1077 1037.33 11.4203 1051.7 11.4203C1056.79 11.4191 1061.77 12.9158 1066.02 15.7252C1070.28 18.5347 1073.61 22.5333 1075.62 27.2261L1116.95 4.06128C1115.42 -17.7342 1099.75 -37.1602 1076.83 -41.8458Z" fill="#9C2E20"/>
</g>
<defs>
<clipPath id="clip0">
<rect width="1396" height="310" fill="white"/>
</clipPath>
</defs>
</svg>
