<svg width="1396" height="310" viewBox="0 0 1396 310" fill="none" xmlns="http://www.w3.org/2000/svg">
<g clip-path="url(#clip0)">
<path d="M0 125.541H36.0053C40.8058 125.541 44.7314 128.698 45.0923 132.7C45.1105 132.901 45.1287 133.097 45.1287 133.302V209.901C45.1287 215.38 50.8915 218.941 55.7904 216.491L78.6299 205.068L89.6087 199.56C92.3898 198.164 95.827 198.124 98.6519 199.451L130.659 214.483C136.739 217.337 144.193 213.597 144.193 207.692V155.966C144.193 151.68 148.279 148.206 153.316 148.206H202.024C207.062 148.206 211.148 144.732 211.148 140.446V74.0303C211.148 69.7438 215.234 66.2701 220.271 66.2701H265.564C270.601 66.2701 274.687 69.7438 274.687 74.0303V81.7723C274.687 84.4222 276.28 86.8898 278.908 88.315L309.063 104.659C311.691 106.084 313.284 108.552 313.284 111.202V172.985C313.284 177.271 317.37 180.745 322.408 180.745H366.858C371.896 180.745 375.982 177.271 375.982 172.985V145.501C375.982 141.215 380.064 137.741 385.105 137.741H417.808C422.845 137.741 426.932 141.215 426.932 145.501V178.616C426.932 181.678 429.046 184.452 432.333 185.698L469.115 199.681C475.148 201.973 481.96 198.219 481.96 192.598V104.244C481.96 99.9572 486.043 96.4835 491.084 96.4835H506.64C511.678 96.4835 515.764 93.0098 515.764 88.7233V77.391C515.764 71.9927 522.081 68.2457 528.037 70.1083L559.369 79.917C562.956 81.0396 565.339 83.9483 565.339 87.1996V132.303C565.339 136.589 569.426 140.063 574.463 140.063H606.492C611.529 140.063 615.615 143.537 615.615 147.823V160.198C615.615 164.485 619.701 167.958 624.738 167.958H658.418C663.456 167.958 667.542 164.485 667.542 160.198V98.069C667.542 95.944 668.566 93.9101 670.377 92.4485L689.291 77.1467C692.754 74.3474 698.415 74.3474 701.874 77.1541L720.737 92.4485C722.541 93.9138 723.565 95.9404 723.565 98.0654V126.613C723.565 130.615 727.145 133.961 731.832 134.337L838.281 142.888C842.965 143.263 846.544 146.609 846.544 150.612V171.888C846.544 178.799 856.371 182.261 862.115 177.373L894.767 149.602C896.477 148.148 897.439 146.172 897.439 144.116V114.705C897.439 110.418 901.525 106.945 906.562 106.945H966.545C971.582 106.945 975.668 110.418 975.668 114.705V172.402C975.668 176.688 979.754 180.162 984.792 180.162H1007.54C1012.58 180.162 1016.66 176.688 1016.66 172.402V82.7455C1016.66 78.459 1020.75 74.9853 1025.79 74.9853H1061.52C1066.55 74.9853 1070.64 78.459 1070.64 82.7455V98.0253C1070.64 102.312 1074.72 105.786 1079.76 105.786H1112.76C1117.79 105.786 1121.88 109.259 1121.88 113.546V139.283C1121.88 143.57 1125.97 147.043 1131 147.043H1170.15C1175.18 147.043 1179.27 150.517 1179.27 154.803V177.636C1179.27 181.922 1183.36 185.396 1188.39 185.396H1211.14C1216.18 185.396 1220.27 181.922 1220.27 177.636V108.898C1220.27 104.612 1224.35 101.138 1229.39 101.138H1254.19C1259.22 101.138 1263.31 104.612 1263.31 108.898V131.151C1263.31 135.438 1267.4 138.911 1272.43 138.911H1293.81C1298.85 138.911 1302.94 135.438 1302.94 131.151V85.0746C1302.94 80.7881 1307.02 77.3145 1312.06 77.3145H1339.59C1344.63 77.3145 1348.72 80.7881 1348.72 85.0746V187.721V205.531C1348.72 209.817 1352.8 213.291 1357.84 213.291H1403.81C1408.85 213.291 1412.94 209.817 1412.94 205.531V149.577C1412.94 149.325 1412.96 149.077 1412.98 148.833V133.305C1412.98 129.019 1417.07 125.545 1422.1 125.545H1458V-568H0V125.541Z" fill="white"/>
<path d="M1412.94 133.302V148.83C1412.91 149.074 1412.9 149.322 1412.9 149.573V205.527C1412.9 209.814 1408.81 213.288 1403.78 213.288H1357.8C1352.77 213.288 1348.68 209.814 1348.68 205.527V187.718V85.0711C1348.68 80.7846 1344.59 77.311 1339.56 77.311H1312.03C1306.99 77.311 1302.9 80.7846 1302.9 85.0711V131.148C1302.9 135.434 1298.82 138.908 1293.78 138.908H1272.4C1267.36 138.908 1263.27 135.434 1263.27 131.148V108.895C1263.27 104.608 1259.19 101.135 1254.15 101.135H1229.35C1224.32 101.135 1220.23 104.608 1220.23 108.895V177.632C1220.23 181.919 1216.15 185.392 1211.11 185.392H1188.36C1183.32 185.392 1179.23 181.919 1179.23 177.632V154.8C1179.23 150.513 1175.15 147.04 1170.11 147.04H1130.97C1125.93 147.04 1121.84 143.566 1121.84 139.28V113.542C1121.84 109.256 1117.76 105.782 1112.72 105.782H1079.73C1074.69 105.782 1070.6 102.308 1070.6 98.0218V82.742C1070.6 78.4555 1066.52 74.9818 1061.48 74.9818H1025.75C1020.71 74.9818 1016.63 78.4555 1016.63 82.742V172.398C1016.63 176.685 1012.54 180.158 1007.5 180.158H984.755C979.718 180.158 975.632 176.685 975.632 172.398V114.701C975.632 110.415 971.546 106.941 966.508 106.941H906.526C901.489 106.941 897.403 110.415 897.403 114.701V144.113C897.403 146.172 896.44 148.144 894.731 149.599L862.079 177.37C856.331 182.258 846.507 178.795 846.507 171.884V150.608C846.507 146.606 842.928 143.26 838.244 142.885L731.796 134.333C727.112 133.958 723.529 130.612 723.529 126.61V98.0619C723.529 95.9405 722.508 93.9103 720.7 92.445L701.837 77.1506C698.378 74.3439 692.718 74.3439 689.255 77.1433L670.341 92.445C668.529 93.9103 667.505 95.9405 667.505 98.0656V160.195C667.505 164.481 663.419 167.955 658.382 167.955H624.702C619.665 167.955 615.578 164.481 615.578 160.195V147.82C615.578 143.533 611.496 140.06 606.455 140.06H574.452C569.415 140.06 565.329 136.586 565.329 132.299V87.1962C565.329 83.9449 562.945 81.0398 559.358 79.9135L528.026 70.1048C522.07 68.2386 515.753 71.9893 515.753 77.3875V88.7198C515.753 93.0063 511.671 96.48 506.629 96.48H491.073C486.035 96.48 481.949 99.9537 481.949 104.24V192.595C481.949 198.216 475.137 201.974 469.104 199.677L432.322 185.695C429.038 184.445 426.921 181.671 426.921 178.613V145.498C426.921 141.211 422.835 137.738 417.797 137.738H385.094C380.057 137.738 375.971 141.211 375.971 145.498V172.981C375.971 177.268 371.885 180.741 366.847 180.741H322.4C317.363 180.741 313.277 177.268 313.277 172.981V111.199C313.277 108.549 311.684 106.081 309.056 104.656L278.901 88.3116C276.273 86.8864 274.68 84.4187 274.68 81.7688V74.0268C274.68 69.7403 270.594 66.2666 265.556 66.2666H220.267C215.23 66.2666 211.144 69.7403 211.144 74.0268V140.442C211.144 144.729 207.058 148.203 202.02 148.203H153.316C148.279 148.203 144.193 151.676 144.193 155.963V207.689C144.193 213.598 136.739 217.337 130.659 214.48L98.6519 199.448C95.827 198.121 92.3862 198.161 89.6087 199.557L78.6299 205.065L55.7904 216.488C50.8915 218.937 45.1287 215.376 45.1287 209.898V133.298C45.1287 133.094 45.1105 132.897 45.0923 132.697C44.7314 128.695 40.8058 125.538 36.0053 125.538H0V890H45.0923H1412.94H1458V125.542H1422.07C1417.03 125.542 1412.94 129.015 1412.94 133.302Z" fill="#F2F2F2"/>
<g clip-path="url(#clip1)">
<path d="M1128.85 139.023C1128.56 143.567 1131.42 147.768 1135.74 149.145L1124.49 154.165L1124.42 150.519C1124.33 146.054 1126.04 142.003 1128.85 139.023Z" fill="#531600"/>
<path d="M1160.32 172.111L1160.34 172.112L1160.17 172.379L1160.32 172.111Z" fill="#2A9B00"/>
<path d="M1099.89 178.719C1100.2 177.533 1101.41 176.822 1102.59 177.129L1104.88 177.729C1106.06 178.037 1106.77 179.248 1106.46 180.434L1104.12 189.471L1099.23 181.279L1099.89 178.719Z" fill="#3A1104"/>
<path d="M1099.5 192.193L1100.03 193.087C1100.63 194.089 1101.77 194.555 1102.85 194.335L1100.62 202.957C1100.52 203.341 1100.32 203.674 1100.07 203.94C1100.09 203.893 1100.11 203.846 1100.13 203.8C1101.87 200.24 1101.7 196.042 1099.69 192.634L1098.73 191.001C1098.68 190.874 1098.62 190.751 1098.56 190.626L1099.5 192.193C1099.5 192.193 1099.5 192.193 1099.5 192.193Z" fill="#3A1104"/>
<path d="M1129.97 165.456C1130.16 165.083 1130.62 164.933 1130.99 165.12C1131.36 165.309 1131.51 165.766 1131.32 166.142C1131.3 166.188 1129.3 170.038 1124.81 169.954L1124.78 168.433C1128.35 168.532 1129.9 165.609 1129.97 165.456Z" fill="#3A1104"/>
<path d="M1120.49 157.612L1121.82 160.289C1122.01 160.665 1121.86 161.122 1121.48 161.31C1121.35 161.377 1121.2 161.4 1121.06 161.385C1120.81 161.357 1120.59 161.209 1120.47 160.969L1117.45 154.886C1117.26 154.51 1117.42 154.053 1117.79 153.866C1118.16 153.678 1118.62 153.831 1118.8 154.206L1119.82 156.251L1124.49 154.165L1135.74 149.145C1131.42 147.768 1128.56 143.566 1128.85 139.022C1132.03 135.645 1136.64 133.644 1141.66 133.981C1150.19 134.553 1156.79 141.7 1156.72 150.287L1156.57 168.534C1156.56 169.692 1156.68 170.823 1156.9 171.918C1151.74 171.459 1147.75 167.1 1147.79 161.848L1147.81 159.264L1147.81 159.264C1147.85 154.279 1144.07 150.106 1139.12 149.684L1138.4 149.622L1124.53 155.813L1120.49 157.612Z" fill="#020202"/>
<path d="M1082.07 368.357L1131.47 257.745L1146.5 246.991C1148.95 245.237 1152.38 246.111 1153.7 248.826L1164.8 271.629C1169.26 280.81 1179.43 285.648 1189.3 283.38L1189.6 284.039C1191.07 287.268 1194.88 288.671 1198.09 287.165L1198.74 286.857L1200.22 286.165L1236.37 387.341L1198.23 393.227C1198.95 390.255 1198.78 387.051 1197.59 384.033L1160.82 297.482C1159.51 294.397 1155.19 294.311 1153.75 297.341L1104.62 400.827L1076.92 373.396C1079.13 372.465 1081.01 370.725 1082.07 368.357Z" fill="#002043"/>
<path d="M1240.83 241.349L1239.65 241.899L1230.33 246.255C1230.05 245.494 1229.71 244.741 1229.31 244.002L1213.3 214.192L1220.25 210.92C1223.45 209.412 1227.26 210.809 1228.74 214.034L1240.85 240.404L1241.2 241.175L1240.94 241.299L1240.83 241.349Z" fill="#E4485A"/>
<path d="M1173.26 233.038L1177.6 230.996L1193.75 223.394L1206.68 250.011L1208.41 253.576L1203.38 254.553C1198.77 255.445 1194.01 254.787 1189.82 252.679C1186.4 250.956 1182.58 250.194 1178.76 250.474L1177.67 250.553C1176.58 250.633 1175.57 250.929 1174.67 251.387L1170.16 241.526C1168.7 238.325 1170.08 234.534 1173.26 233.038ZM1182.53 247.432L1194.28 241.901L1195.38 241.379L1191.34 232.694L1184.86 235.745L1178.49 238.746L1182.53 247.432Z" fill="#E4485A"/>
<path d="M1200.62 274.847L1216.71 270.666L1217.86 270.368C1227.97 267.742 1233.53 257.302 1230.81 247.707L1240.8 243.038L1241.41 242.754L1241.45 242.736L1241.84 242.555L1241.89 242.67L1241.94 242.775L1242.08 243.08L1248.26 256.556C1249.73 259.761 1248.35 263.56 1245.17 265.055L1200.22 286.164L1198.74 286.857L1198.09 287.164C1194.88 288.67 1191.07 287.267 1189.6 284.038L1189.3 283.38L1187.02 278.407C1187.54 278.343 1188.07 278.252 1188.59 278.111L1200.62 274.847Z" fill="#E4485A"/>
<path d="M1079.97 154.242C1081.24 153.478 1082.88 153.889 1083.64 155.162L1099.23 181.28L1104.12 189.472L1104.62 190.318C1105.38 191.591 1104.97 193.243 1103.7 194.007C1103.43 194.17 1103.15 194.276 1102.85 194.336C1101.77 194.555 1100.63 194.09 1100.03 193.087L1099.5 192.194C1099.5 192.194 1099.5 192.194 1099.5 192.193L1098.56 190.626C1098.38 190.209 1098.18 189.8 1097.94 189.406L1097.94 189.405L1097.37 188.443L1082.24 162.953C1082.24 162.967 1082.24 162.985 1082.24 163L1080.6 160.213C1080.43 159.932 1080.22 159.692 1079.99 159.493L1079.06 157.932C1078.29 156.659 1078.71 155.007 1079.97 154.242Z" fill="#E4485A"/>
<path d="M1139.03 185.857C1138.87 184.667 1138.38 183.59 1137.64 182.724L1137.64 182.724L1146.7 191.903L1149.12 184.314C1149.56 182.941 1150.57 181.831 1151.9 181.281L1159.55 178.107C1160.58 179.569 1161.83 180.858 1163.28 181.917L1153.01 213.232L1137.65 190.553C1138.72 189.284 1139.25 187.599 1139.03 185.879L1139.03 185.857Z" fill="white"/>
<path d="M1191.34 232.694L1195.38 241.379L1194.27 241.901L1182.53 247.432L1178.49 238.747L1184.86 235.746L1191.34 232.694Z" fill="white"/>
<path d="M1080.82 211.523L1098.65 214.233L1098.58 215.61L1097.74 232.436L1120.5 203.589C1122.27 201.353 1124.28 199.341 1126.49 197.578C1128.56 195.922 1130.81 194.485 1133.21 193.307L1133.81 193.008L1135.71 192.075C1136.47 191.7 1137.12 191.176 1137.65 190.553L1153.02 213.232L1163.28 181.917C1165.51 183.554 1168.17 184.642 1171.09 184.967L1179.52 185.906C1191.9 187.285 1202.81 194.674 1208.72 205.682L1213.3 214.191L1229.31 244.001C1229.71 244.741 1230.05 245.494 1230.33 246.254C1230.51 246.736 1230.67 247.22 1230.81 247.707C1233.53 257.302 1227.96 267.742 1217.86 270.369L1216.71 270.666L1208.41 253.576L1206.68 250.01L1193.75 223.394L1177.6 230.995L1173.26 233.038C1170.08 234.533 1168.7 238.323 1170.16 241.524L1174.67 251.386C1171.06 253.219 1169.22 257.691 1170.99 261.724L1175.41 271.793C1177.43 276.381 1182.18 279.002 1187.02 278.406L1189.29 283.379C1179.43 285.647 1169.26 280.809 1164.8 271.627L1153.7 248.824C1152.38 246.109 1148.95 245.235 1146.5 246.99L1131.47 257.743L1138.15 242.774C1138.85 241.199 1138.84 239.359 1137.99 237.863C1136.37 235.015 1132.59 234.361 1130.1 236.462L1128.85 237.519L1103.34 259.103C1091.14 269.427 1072.6 259.941 1073.75 243.96L1076.14 210.811L1080.82 211.523Z" fill="#2A6E70"/>
<path d="M1139.12 149.683C1144.07 150.106 1147.85 154.278 1147.81 159.263L1147.79 161.847C1147.75 167.099 1151.74 171.458 1156.9 171.917C1157.35 174.178 1158.27 176.278 1159.55 178.106L1151.9 181.281C1150.57 181.831 1149.56 182.941 1149.12 184.313L1146.7 191.903L1137.65 182.724L1137.64 182.724C1136.74 181.664 1135.48 180.924 1134.05 180.693C1128.87 179.864 1124.92 175.651 1124.82 170.388L1124.81 169.953C1129.3 170.038 1131.3 166.188 1131.32 166.141C1131.51 165.766 1131.36 165.309 1130.99 165.12C1130.62 164.932 1130.16 165.082 1129.97 165.456C1129.9 165.609 1128.35 168.531 1124.78 168.433L1124.53 155.813L1138.4 149.621L1139.12 149.683Z" fill="#6B1900"/>
<path d="M1174.67 251.387C1175.57 250.929 1176.58 250.633 1177.67 250.553L1178.76 250.473C1182.58 250.194 1186.4 250.955 1189.82 252.678C1194.01 254.786 1198.77 255.445 1203.37 254.552L1208.41 253.576L1216.71 270.667L1200.62 274.848L1188.59 278.111C1188.07 278.253 1187.54 278.343 1187.02 278.407C1182.18 279.004 1177.43 276.383 1175.42 271.794L1170.99 261.725C1169.22 257.691 1171.06 253.22 1174.67 251.387Z" fill="#6B1900"/>
<path d="M1076.83 159.153C1077.88 158.596 1079.12 158.765 1079.99 159.493C1080.22 159.692 1080.43 159.931 1080.6 160.212L1082.24 163C1082.24 162.985 1082.24 162.967 1082.23 162.953L1097.37 188.443L1097.94 189.405L1097.94 189.405C1098.17 189.799 1098.38 190.209 1098.56 190.626C1098.62 190.751 1098.68 190.874 1098.73 191.001L1099.69 192.634C1101.7 196.041 1101.87 200.24 1100.13 203.8C1100.11 203.846 1100.09 203.893 1100.07 203.94C1099.41 205.334 1099.02 206.844 1098.95 208.386L1098.65 214.234L1080.82 211.523L1082.08 200.154C1082.73 194.385 1082.64 188.558 1081.82 182.814L1080.79 175.629C1080.39 172.866 1079.48 170.204 1078.11 167.779L1075.67 163.109C1074.88 161.702 1075.4 159.908 1076.83 159.153Z" fill="#6B1900"/>
<path d="M1241.94 242.775L1241.89 242.67L1241.84 242.555L1241.45 242.737L1241.41 242.754L1240.8 243.038L1230.81 247.707C1230.67 247.22 1230.51 246.735 1230.33 246.254L1239.65 241.898L1240.83 241.348L1240.94 241.298L1241.2 241.174L1240.85 240.403L1241.05 228.607C1241.08 227.101 1241.76 225.693 1242.93 224.744C1244.09 223.794 1245.6 223.413 1247.07 223.696C1248.8 224.028 1250.2 225.21 1250.84 226.855C1251.47 228.5 1251.22 230.326 1250.16 231.738L1244.92 238.776L1247.39 237.079C1252.61 233.493 1259.09 232.435 1265.17 234.178C1265.57 234.293 1265.81 234.714 1265.69 235.118C1265.58 235.522 1265.16 235.756 1264.76 235.64C1259.11 234.022 1253.09 235.004 1248.24 238.335L1244.52 240.89L1254.16 239.793C1255.57 239.633 1256.94 240.139 1257.91 241.184C1258.88 242.228 1259.28 243.634 1259.03 245.04C1258.77 246.426 1257.91 247.587 1256.66 248.224C1255.87 248.625 1255.01 248.779 1254.16 248.685C1253.67 248.629 1253.17 248.488 1252.71 248.26L1242.08 243.079L1241.94 242.775ZM1248.95 230.827C1249.69 229.837 1249.87 228.557 1249.42 227.404C1248.98 226.251 1248 225.423 1246.79 225.19C1246.69 225.171 1246.6 225.157 1246.51 225.147C1245.57 225.042 1244.62 225.318 1243.88 225.924C1243.06 226.59 1242.59 227.577 1242.57 228.632L1242.37 239.653L1248.95 230.827ZM1253.37 246.892C1254.2 247.297 1255.15 247.289 1255.98 246.868C1256.8 246.447 1257.37 245.682 1257.54 244.767C1257.71 243.839 1257.44 242.912 1256.8 242.222C1256.31 241.699 1255.68 241.38 1254.99 241.304C1254.77 241.279 1254.55 241.279 1254.32 241.305L1244.26 242.451L1253.37 246.892Z" fill="#9E2A00"/>
</g>
<path d="M949.02 233.48L907.775 134.21C904.111 125.394 898.175 117.712 890.575 111.954L882.67 105.965C881.522 105.106 880.568 104.013 879.871 102.757C879.174 101.502 878.75 100.113 878.626 98.6815C878.503 97.2501 878.684 95.8088 879.156 94.4523C879.628 93.0958 880.381 91.8548 881.365 90.8109L854.345 68.0977C849.671 70.6436 844.515 72.173 839.212 72.5859C832.962 77.2467 825.377 79.7559 817.587 79.739C822.166 85.333 825.718 91.6977 828.077 98.5366C833.413 113.961 832.439 130.546 825.335 145.236L812.181 172.427L801.01 195.519L863.183 222.407C864.931 221.12 866.929 220.216 869.048 219.756C871.167 219.296 873.36 219.289 875.482 219.735C877.604 220.182 879.608 221.072 881.364 222.348C883.119 223.623 884.587 225.256 885.671 227.139L917.858 283.16C933.817 310.933 975.185 306.038 984.257 275.302L1005.24 204.191C1005.57 203.075 1005.93 201.974 1006.33 200.89L974.083 172.721L949.02 233.48Z" fill="#FFC747"/>
<path d="M818.943 143.178C824.796 131.075 826.356 117.25 822.895 104.335C822.838 104.125 822.791 103.909 822.726 103.695C822.582 103.186 822.42 102.68 822.26 102.173C822.128 101.754 822 101.33 821.857 100.91C821.811 100.775 821.762 100.641 821.715 100.507C821.396 99.5997 821.056 98.7027 820.695 97.8158C820.647 97.6996 820.598 97.5855 820.55 97.4704C820.178 96.5821 819.786 95.707 819.374 94.8452C819.323 94.7406 819.269 94.6359 819.22 94.5312C818.796 93.666 818.352 92.8136 817.887 91.9742C817.837 91.8821 817.782 91.791 817.731 91.6989C817.255 90.8553 816.758 90.0256 816.241 89.2098C816.191 89.1324 816.136 89.057 816.091 88.9806C815.562 88.1579 815.012 87.3506 814.441 86.5586C814.396 86.4968 814.35 86.4372 814.305 86.3764C813.72 85.5754 813.115 84.791 812.489 84.0235C812.454 83.9795 812.416 83.9376 812.385 83.8937C811.743 83.1142 811.082 82.3522 810.401 81.6077L810.339 81.5428C809.635 80.7829 808.91 80.0425 808.164 79.3217L797.403 78.7984C774.762 77.7011 752.585 85.4841 735.571 100.498L706.415 126.223L693.521 137.594L650.557 175.506C628.006 195.405 624.77 227.31 638.731 250.882C639.316 251.87 639.931 252.843 640.577 253.799C641.361 254.961 642.184 256.102 643.057 257.212C647.812 263.267 653.694 268.339 660.378 272.147L695.769 292.397L716.035 255.474L722.646 243.432L699.349 229.364L691.471 224.577L749.126 178.627C750.489 177.54 752.121 176.845 753.847 176.615C755.574 176.385 757.33 176.629 758.929 177.321L794.902 192.878L805.793 170.358L818.943 143.178Z" fill="#FFC747"/>
<path d="M920.421 49.5593C920.416 48.9702 920.178 48.4072 919.759 47.9941C919.34 47.581 918.775 47.3517 918.187 47.3565C917.6 47.3614 917.038 47.6 916.626 48.02C916.214 48.44 915.985 49.0069 915.99 49.5959C915.99 49.731 916.225 61.501 927.938 66.5775L929.442 62.3907C920.695 58.4227 920.428 49.9916 920.421 49.5593Z" fill="#C44927"/>
<path d="M780.191 223.304L794.911 192.878L758.933 177.316L722.643 243.436L728.314 237.784C735 231.118 743.282 226.286 752.366 223.75C761.45 221.215 771.031 221.061 780.191 223.304Z" fill="#0A2142"/>
<path d="M1026.48 543.177C1018.52 535.946 1011.85 527.405 1006.76 517.924L858.742 242.179C855.024 235.251 857.143 226.852 863.191 222.407L801.017 195.52L727.317 347.904C720.212 362.594 707.827 373.631 692.441 378.982C686.002 381.232 679.231 382.383 672.412 382.389C671.14 382.389 669.869 382.339 668.6 382.258L608.266 514.08C606.371 518.22 604.592 522.407 602.93 526.64C602.314 528.202 601.715 529.769 601.131 531.341L666.208 554.048L688.758 561.913L693.704 551.853L706.1 526.641L796.676 342.412L956.039 610.74L974.641 594.016L1028.86 545.269C1028.05 544.586 1027.26 543.889 1026.48 543.177Z" fill="#0A2142"/>
<path d="M990.698 145.419L1056.95 86.6222C1058.39 85.2605 1059.25 83.3904 1059.34 81.4078C1059.43 79.4251 1058.74 77.4855 1057.43 75.9994C1056.12 74.5133 1054.28 73.5973 1052.31 73.4453C1050.33 73.2933 1048.38 73.9172 1046.86 75.185L980.599 133.983C979.152 135.343 978.29 137.215 978.198 139.202C978.105 141.189 978.789 143.133 980.104 144.623C981.419 146.112 983.261 147.029 985.239 147.178C987.217 147.327 989.176 146.697 990.698 145.421V145.419Z" fill="#0A2142"/>
<path d="M885.586 35.4033C884.636 35.4033 883.707 35.6857 882.917 36.2148C882.128 36.7438 881.512 37.4958 881.149 38.3756C880.785 39.2554 880.69 40.2235 880.875 41.1574C881.061 42.0914 881.518 42.9493 882.19 43.6227C882.861 44.296 883.717 44.7546 884.649 44.9404C885.58 45.1262 886.546 45.0308 887.423 44.6664C888.301 44.302 889.051 43.6849 889.579 42.8931C890.106 42.1013 890.388 41.1704 890.388 40.2181C890.388 38.9412 889.882 37.7165 888.981 36.8135C888.081 35.9106 886.859 35.4033 885.586 35.4033Z" fill="#E4485B"/>
<path d="M817.588 79.7398C817.026 79.7398 816.462 79.7272 815.896 79.6989L808.156 79.3242C808.903 80.0436 809.628 80.784 810.331 81.5453L810.394 81.6102C811.078 82.3534 811.74 83.1153 812.377 83.8962C812.413 83.9401 812.45 83.982 812.482 84.026C813.108 84.7935 813.713 85.5779 814.297 86.3789C814.342 86.4396 814.388 86.4993 814.433 86.5611C815.005 87.3517 815.555 88.159 816.083 88.9831C816.133 89.0595 816.188 89.1349 816.233 89.2123C816.751 90.0267 817.248 90.8564 817.723 91.7014C817.775 91.7935 817.828 91.8835 817.879 91.9767C818.345 92.814 818.79 93.6664 819.212 94.5337C819.263 94.6384 819.317 94.7431 819.366 94.8477C819.783 95.7095 820.175 96.5846 820.542 97.4729C820.59 97.588 820.639 97.7021 820.687 97.8183C821.049 98.7031 821.389 99.6001 821.707 100.509C821.733 100.582 821.764 100.651 821.789 100.719C821.814 100.787 821.827 100.845 821.849 100.908C821.992 101.327 822.12 101.745 822.252 102.171C822.412 102.679 822.573 103.185 822.718 103.693C822.777 103.903 822.831 104.12 822.887 104.333C826.332 117.025 825.125 130.379 819.346 142.328L818.936 143.177L805.793 170.352L794.902 192.872L780.181 223.298L759.182 266.717L755.119 275.118L754.038 277.353C744.12 297.862 718.96 305.673 699.215 294.375L695.756 292.396L660.379 272.147C653.696 268.338 647.813 263.265 643.058 257.208C642.185 256.096 641.363 254.958 640.579 253.796C639.933 252.839 639.318 251.867 638.733 250.879L617.604 294.568C602.941 324.894 615.613 361.529 645.862 376.234C652.979 379.706 660.702 381.752 668.601 382.26C669.869 382.34 671.141 382.391 672.412 382.391C679.232 382.385 686.002 381.233 692.441 378.984C707.827 373.633 720.212 362.595 727.317 347.905L801.017 195.521L812.188 172.429L825.343 145.238C832.447 130.547 833.421 113.962 828.084 98.5384C825.723 91.6986 822.169 85.3335 817.588 79.7398Z" fill="#E4485B"/>
<path d="M993.396 143.029C986.065 149.535 980.31 157.631 976.569 166.701L974.082 172.722L1006.33 200.892C1009.07 193.42 1013.45 186.657 1019.13 181.098L1035.2 165.384C1044.18 156.605 1050.07 145.14 1051.99 132.714C1053.91 120.288 1051.76 107.573 1045.85 96.4805L993.396 143.029Z" fill="#F4865F"/>
<path d="M914.365 20.3649C912.753 16.5994 910.074 13.3907 906.661 11.1359C903.248 8.88107 899.25 7.67918 895.163 7.67896C883.62 7.67896 874.265 17.0594 874.265 28.6307C874.265 28.9949 874.301 29.3497 874.319 29.7098L874.265 29.7213V34.5183C874.265 49.0129 866.211 61.6225 854.346 68.0931L881.366 90.8064C882.318 89.773 883.472 88.9474 884.757 88.3812C886.041 87.815 887.428 87.5204 888.831 87.5156L906.208 87.501C910.376 87.4976 914.44 86.2056 917.848 83.8012C921.256 81.3968 923.841 77.9971 925.251 74.0656L927.937 66.5765C916.225 61.5 915.991 49.7247 915.99 49.5949C915.985 49.0058 916.214 48.439 916.626 48.019C917.038 47.599 917.599 47.3604 918.187 47.3555C918.774 47.3506 919.34 47.58 919.759 47.9931C920.178 48.4062 920.416 48.9692 920.42 49.5583C920.428 49.9906 920.694 58.4217 929.442 62.3845L945.268 18.2809C947.17 12.9981 947.949 7.37504 947.556 1.77246L914.365 20.3649ZM885.584 45.0282C884.634 45.0282 883.706 44.7458 882.916 44.2167C882.126 43.6877 881.511 42.9357 881.147 42.0559C880.784 41.1761 880.689 40.208 880.874 39.2741C881.059 38.3401 881.517 37.4822 882.188 36.8088C882.86 36.1354 883.716 35.6769 884.647 35.4911C885.579 35.3053 886.545 35.4007 887.422 35.7651C888.3 36.1295 889.05 36.7466 889.577 37.5384C890.105 38.3302 890.387 39.2611 890.387 40.2134C890.387 41.4903 889.881 42.715 888.98 43.618C888.079 44.5209 886.858 45.0282 885.584 45.0282Z" fill="#F4865F"/>
<path d="M728.313 237.781L722.642 243.434L716.032 255.476L695.766 292.399L699.224 294.378C718.969 305.676 744.129 297.865 754.048 277.356L755.129 275.121L759.192 266.721L780.191 223.302C771.031 221.059 761.449 221.212 752.366 223.748C743.282 226.283 735 231.115 728.313 237.781Z" fill="#F4865F"/>
<path d="M915.338 -35.0742C899.812 -38.2467 884.454 -32.0105 875.309 -20.1326V-20.1462L870.906 -14.7777C867.873 -11.0817 864.034 -8.1328 859.685 -6.15795C855.336 -4.1831 850.593 -3.23497 845.821 -3.38652L837.354 -3.65761V-3.6461C836.958 -3.65866 836.563 -3.67645 836.164 -3.67645C815.125 -3.67855 798.064 13.4224 798.064 34.5174C798.064 55.6125 815.121 72.7134 836.162 72.7134C837.188 72.7134 838.201 72.6611 839.207 72.5805C844.51 72.1676 849.667 70.6383 854.34 68.0923C866.205 61.6216 874.26 49.0121 874.26 34.5174V29.7204L874.314 29.7089C874.295 29.3489 874.26 28.994 874.26 28.6298C874.26 17.0586 883.615 7.67809 895.157 7.67809C899.246 7.67708 903.245 8.8784 906.659 11.1333C910.073 13.3882 912.753 16.5976 914.366 20.364L947.554 1.77159C946.328 -15.7218 933.745 -31.3134 915.338 -35.0742Z" fill="#9C2E20"/>
<g clip-path="url(#clip2)">
<path d="M1338.98 140.968L1338.27 142.234C1338.27 142.233 1338.26 142.232 1338.25 142.231L1338.3 142.152C1338.53 141.761 1338.75 141.363 1338.98 140.968Z" fill="#7C2206"/>
<path d="M1321.51 137.494L1321.55 137.468C1326.28 134.046 1328.45 128.104 1327.04 122.445C1325.8 117.45 1327.34 112.176 1331.08 108.632C1335.32 104.605 1336.89 98.5119 1335.12 92.9378L1334.33 90.4735C1333.48 87.7942 1333.04 83.3825 1333.39 80.5942L1334.07 76.4674C1333.54 83.5962 1337.65 90.3411 1344.37 93.091L1346.48 93.9549C1345.55 98.5031 1345.1 103.142 1345.15 107.831C1345.28 119.476 1342.2 130.923 1336.25 140.936L1332.91 146.553C1330.98 149.803 1329.65 153.315 1328.92 156.925L1321.46 164.973C1318.38 162.72 1316.09 159.464 1315.06 155.649C1313.24 148.847 1315.8 141.628 1321.51 137.494Z" fill="#7C2206"/>
<path d="M1347.54 107.808C1347.49 103.481 1347.89 99.1993 1348.71 94.9959C1355.33 98.7448 1357.85 107.234 1354.04 114.057L1339.57 139.906C1344.91 130.067 1347.66 119.027 1347.54 107.808Z" fill="#7C2206"/>
<path d="M1294.87 98.6871L1284.9 129.731C1284.22 131.847 1282.1 133.157 1279.9 132.822L1270.23 131.352L1266.28 130.751C1264.04 130.41 1262.39 128.468 1262.43 126.204L1262.49 122.048C1263.81 122.464 1265.31 122.117 1266.31 121.027C1266.83 120.458 1267.12 119.766 1267.22 119.052L1267.23 119.056L1268.36 106.56L1268.34 106.557C1268.39 105.59 1268.08 104.609 1267.37 103.854L1262.99 99.2149C1262.94 99.1645 1262.89 99.122 1262.84 99.0764L1262.88 96.6925L1262.98 96.7901C1264.48 98.185 1266.82 98.0917 1268.2 96.5832C1269.49 95.1692 1269.47 93.0008 1268.16 91.6068L1263.79 86.9681C1263.56 86.7284 1263.3 86.5429 1263.04 86.3992L1263.04 85.9319L1297.29 91.1416L1294.87 98.6871ZM1274.5 114.967L1277.1 97.8398C1273.22 98.0737 1269.86 101.191 1269.21 105.447C1268.56 109.686 1270.83 113.647 1274.44 115.038C1274.46 115.043 1274.47 115.051 1274.48 115.056L1274.5 114.967ZM1284.48 101.885C1283.53 100.27 1282.09 98.9969 1280.34 98.3327L1278.64 109.54L1277.72 115.549C1281.6 115.314 1284.97 112.197 1285.61 107.942C1285.95 105.74 1285.49 103.617 1284.48 101.885Z" fill="#FFC846"/>
<path d="M1343.83 237.904C1343.47 237.88 1343.12 237.843 1342.76 237.785L1330.41 235.746C1328.4 235.413 1326.35 235.453 1324.38 235.839L1323.68 233.694L1346.47 213.587C1347.06 219.377 1346.69 225.276 1345.31 231.059C1344.76 233.328 1344.27 235.611 1343.83 237.904Z" fill="#020202"/>
<path d="M1323.66 310.548L1323.63 310.115C1323.17 302.964 1321.62 295.95 1319.03 289.267C1318.8 288.671 1318.57 288.075 1318.34 287.489L1334.04 282.39L1325.57 315.976C1324.47 314.405 1323.79 312.54 1323.66 310.548Z" fill="#020202"/>
<path d="M1316.81 290.125C1319.31 296.582 1320.8 303.359 1321.25 310.268L1321.28 310.701C1321.48 313.808 1322.77 316.666 1324.85 318.845L1320.35 336.667L1296.71 314.286C1280.07 298.542 1280.48 271.992 1297.54 256.774L1307.02 285.796C1307.89 288.479 1310.78 289.947 1313.47 289.074L1316.07 288.228C1316.32 288.853 1316.56 289.488 1316.81 290.125Z" fill="#020202"/>
<path d="M1337.63 268.172L1336.46 272.819L1334.98 268.297C1335.43 268.268 1335.89 268.246 1336.34 268.239C1336.77 268.232 1337.2 268.199 1337.63 268.172Z" fill="#020202"/>
<path d="M1334.71 72.5816C1339.12 73.524 1341.07 70.0868 1341.16 69.9145C1341.32 69.6199 1341.59 69.4322 1341.9 69.3697C1342.13 69.3208 1342.39 69.3459 1342.62 69.4679C1343.08 69.7123 1343.3 70.2457 1343.15 70.7289C1343.13 70.796 1343.11 70.8622 1343.07 70.9271C1342.13 72.707 1339.31 75.486 1334.85 74.807C1334.69 74.7829 1334.52 74.7441 1334.36 74.7082C1334.33 74.7033 1334.31 74.6991 1334.29 74.6942L1334.61 72.5657C1334.65 72.5731 1334.68 72.5749 1334.71 72.5816Z" fill="#C44822"/>
<path d="M1263.38 82.1316C1263.63 81.2408 1264.04 80.3949 1264.6 79.6386L1268.79 73.9368C1269.69 72.7129 1271.19 72.0895 1272.7 72.3182L1291.74 75.2146C1293.18 75.4337 1294.4 76.4008 1294.93 77.7547L1297.57 84.4475C1297.95 85.3995 1298.12 86.4075 1298.11 87.4154C1298.11 88.1998 1297.99 88.9841 1297.74 89.7411L1297.29 91.1414L1263.04 85.9317L1263.07 84.1775C1263.08 83.4798 1263.19 82.7937 1263.38 82.1316Z" fill="#002043"/>
<path d="M1295.55 433.895L1297.6 426.871L1320.35 336.668L1324.85 318.846C1325.76 319.802 1326.83 320.629 1328.03 321.287C1329.4 322.042 1330.87 322.533 1332.37 322.761C1335.16 323.184 1338.04 322.696 1340.6 321.297L1341.26 320.935C1346.16 318.252 1348.7 312.776 1347.58 307.308L1346.5 302.056C1344.15 290.626 1343.06 278.896 1343.21 267.183C1346.21 266.297 1349.02 264.857 1351.51 262.907L1371.81 246.982L1402.09 223.239C1405.86 220.283 1408.68 216.426 1410.39 212.127C1416.94 228.7 1416.69 247.305 1409.48 263.826L1374.61 343.735L1360.93 375.076L1334.35 436.007L1326.56 454.003C1326.24 454.741 1325.96 455.496 1325.73 456.263L1290.65 440.604C1292.93 439.065 1294.72 436.752 1295.55 433.895Z" fill="#002043"/>
<path d="M1336.46 272.819L1337.63 268.172C1338.71 268.104 1339.77 267.963 1340.82 267.761C1340.71 279.442 1341.82 291.134 1344.16 302.533L1345.24 307.784C1346.15 312.222 1344.09 316.669 1340.11 318.846L1339.45 319.207C1336.23 320.967 1332.39 320.963 1329.18 319.2C1327.71 318.398 1326.49 317.289 1325.57 315.978L1334.04 282.391L1334.18 282.345C1336.87 281.472 1338.34 278.589 1337.46 275.905L1336.46 272.819Z" fill="#002043"/>
<path d="M1284.48 101.885C1285.5 103.617 1285.95 105.74 1285.62 107.942C1284.97 112.198 1281.6 115.314 1277.72 115.549L1278.64 109.54L1280.34 98.3328C1282.1 98.9969 1283.53 100.271 1284.48 101.885Z" fill="#002043"/>
<path d="M1277.1 97.8398L1274.5 114.967L1274.48 115.056C1274.47 115.051 1274.46 115.043 1274.44 115.038C1270.83 113.647 1268.56 109.686 1269.21 105.447C1269.86 101.191 1273.22 98.0743 1277.1 97.8398Z" fill="#002043"/>
<path d="M1359.34 226.61L1353.45 233.778C1351.62 235.999 1349.05 237.403 1346.28 237.807C1346.69 235.733 1347.14 233.668 1347.63 231.615C1349.21 225.008 1349.53 218.255 1348.65 211.665C1347.75 204.966 1345.6 198.436 1342.24 192.4L1377.6 180.125L1380.95 196.587C1381.33 198.497 1380.84 200.48 1379.6 201.986L1359.34 226.61Z" fill="#002043"/>
<path d="M1293.9 229.137L1314.61 222.408C1317.3 221.535 1320.19 223.003 1321.07 225.686L1323.68 233.695L1324.38 235.84C1322.42 236.225 1320.52 236.957 1318.78 238.017C1318.65 238.097 1318.52 238.174 1318.4 238.257L1301.43 249.264C1299.73 250.373 1299.18 252.63 1300.21 254.41C1300.29 254.541 1300.37 254.671 1300.46 254.797C1301.66 256.392 1303.93 256.724 1305.64 255.698L1312.5 251.569L1322.61 245.488C1323.35 245.045 1324.32 245.372 1324.62 246.195C1324.86 246.84 1324.54 247.563 1323.94 247.908L1306.04 258.283C1304.59 259.123 1303.89 260.916 1304.56 262.451C1305.04 263.558 1306.05 264.245 1307.15 264.379C1306.72 265.308 1306.71 266.409 1307.22 267.381C1307.83 268.565 1309.05 269.248 1310.32 269.229C1309.77 270.326 1309.76 271.677 1310.44 272.842C1311.37 274.428 1313.38 275.037 1315.11 274.409L1327.96 269.743C1330.22 268.923 1332.58 268.454 1334.98 268.298L1336.46 272.82L1337.46 275.906C1338.34 278.59 1336.87 281.473 1334.18 282.346L1334.04 282.392L1318.34 287.492L1316.07 288.23L1313.47 289.076C1310.78 289.949 1307.89 288.481 1307.01 285.798L1297.54 256.776L1290.62 235.579C1289.74 232.894 1291.21 230.01 1293.9 229.137ZM1307.78 237.937C1308.93 238.111 1310 237.326 1310.17 236.183C1310.34 235.04 1309.56 233.973 1308.41 233.798C1307.27 233.624 1306.2 234.409 1306.03 235.552C1305.85 236.695 1306.64 237.763 1307.78 237.937Z" fill="#E4485A"/>
<path d="M1377.23 102.074C1370.71 103.72 1365.03 107.655 1361.2 113.116C1360.82 113.667 1360.45 114.236 1360.1 114.816C1359.84 115.257 1359.58 115.704 1359.33 116.163L1354.56 125.263L1348.49 136.817C1347.29 139.104 1345.35 140.741 1343.12 141.606C1341.59 142.2 1339.93 142.417 1338.27 142.233L1338.98 140.967C1339.18 140.614 1339.38 140.262 1339.57 139.905L1354.03 114.056C1357.85 107.232 1355.32 98.7442 1348.7 94.9947C1349.39 91.4892 1350.37 88.039 1351.64 84.6639L1352.85 81.4681L1353.9 78.694L1355.09 75.6083C1355.71 74.0254 1356.52 72.5262 1357.51 71.1468L1357.95 70.536L1359.7 68.0875L1359.73 68.0416L1359.73 68.0369C1359.96 67.6954 1360.14 67.3035 1360.2 66.8652C1360.44 65.3296 1359.38 63.8954 1357.84 63.6615C1356.36 63.4364 1354.99 64.4093 1354.68 65.8502L1354.66 65.8431L1354.64 65.9913C1354.64 66.0007 1354.63 66.0091 1354.63 66.0185C1354.63 66.0324 1354.63 66.0449 1354.63 66.0587L1354.14 69.7459L1354.12 69.8986C1353.92 71.4196 1353.54 72.9123 1353 74.3474L1352.6 75.3949L1351.08 79.4114L1349.41 83.8226C1348.16 87.1362 1347.18 90.5197 1346.48 93.9553L1344.37 93.0914C1337.65 90.3407 1333.53 83.5959 1334.07 76.4678C1334.1 76.0346 1334.15 75.5998 1334.21 75.1641L1334.29 74.6945C1334.31 74.6994 1334.33 74.7035 1334.36 74.7084C1334.52 74.7443 1334.69 74.7831 1334.85 74.8073C1339.31 75.4863 1342.13 72.7072 1343.07 70.9273C1343.1 70.863 1343.13 70.7969 1343.15 70.7292C1343.29 70.246 1343.08 69.7125 1342.62 69.4682C1342.39 69.3462 1342.13 69.3211 1341.9 69.37C1341.59 69.4325 1341.32 69.6203 1341.16 69.9148C1341.06 70.0871 1339.12 73.5243 1334.71 72.5819C1334.67 72.5751 1334.65 72.5733 1334.61 72.5659L1339.78 39.0723C1339.87 38.4933 1339.98 37.925 1340.11 37.3632C1340.12 37.3222 1340.13 37.2803 1340.14 37.2393C1342.18 43.0968 1347.22 47.506 1353.46 48.6463L1357.83 49.4459C1366.77 51.081 1371.34 61.1101 1366.71 68.9088L1360.56 79.2429C1358.71 82.3516 1358.42 85.9255 1359.42 89.0988C1360.23 91.6834 1361.91 93.9999 1364.3 95.5829C1364.73 95.8703 1365.19 96.1363 1365.67 96.3723L1377.31 102.087L1377.31 102.118L1377.23 102.074Z" fill="#FB875D"/>
<path d="M1284.9 129.73L1294.87 98.6865L1294.94 98.7946C1298.61 105.041 1299.55 112.523 1297.53 119.48L1295.9 125.112C1294.05 131.483 1295.31 138.352 1299.31 143.654L1318.1 168.589L1321.46 164.972L1328.92 156.924C1328.18 160.576 1328.06 164.327 1328.55 168.015C1329.1 172.13 1330.41 176.165 1332.5 179.888L1339.93 193.151C1338.25 193.765 1336.6 194.368 1335 194.953C1320.02 200.418 1303.32 193.659 1296.38 179.321L1279.71 144.906C1279.39 144.246 1279.01 143.614 1278.58 143.017L1270.23 131.351L1279.9 132.821C1282.1 133.157 1284.22 131.847 1284.9 129.73Z" fill="#FB875D"/>
<path d="M1263.04 86.398C1263.3 86.5418 1263.56 86.7267 1263.79 86.9669L1268.16 91.6056C1269.47 92.9997 1269.49 95.168 1268.2 96.5821C1266.82 98.0905 1264.48 98.1832 1262.98 96.7889L1262.88 96.6913L1260.5 94.4663C1258.71 92.797 1258.1 90.2183 1258.96 87.9319C1259.6 86.235 1261.56 85.6075 1263.04 86.398Z" fill="#FB875D"/>
<path d="M1258.17 100.178C1258.9 98.2385 1261.35 97.695 1262.84 99.0753C1262.89 99.1215 1262.94 99.1634 1262.99 99.2138L1267.37 103.853C1268.08 104.607 1268.39 105.589 1268.34 106.556L1268.36 106.559L1267.23 119.055L1267.22 119.051C1267.13 119.765 1266.83 120.457 1266.31 121.026C1265.31 122.116 1263.81 122.463 1262.49 122.047C1261.99 121.887 1261.51 121.619 1261.09 121.233L1258.6 118.91C1256.82 117.241 1256.21 114.662 1257.07 112.375C1257.29 111.797 1257.66 111.346 1258.12 111.029C1257.2 109.483 1257.01 107.582 1257.66 105.847C1257.82 105.432 1258.06 105.085 1258.34 104.803C1257.69 103.369 1257.59 101.711 1258.17 100.178Z" fill="#FB875D"/>
<path d="M1402.09 223.238L1371.81 246.982L1351.51 262.907C1349.02 264.856 1346.21 266.297 1343.22 267.183C1342.43 267.415 1341.63 267.606 1340.82 267.762C1339.77 267.964 1338.71 268.104 1337.63 268.172C1337.2 268.199 1336.78 268.232 1336.35 268.239C1335.89 268.245 1335.44 268.267 1334.98 268.297C1332.59 268.452 1330.22 268.921 1327.96 269.742L1315.11 274.407C1313.38 275.036 1311.37 274.427 1310.44 272.84C1309.76 271.676 1309.77 270.324 1310.32 269.227C1309.06 269.246 1307.84 268.564 1307.22 267.38C1306.71 266.407 1306.73 265.306 1307.15 264.377C1306.05 264.243 1305.04 263.557 1304.56 262.449C1303.89 260.914 1304.59 259.121 1306.04 258.281L1323.95 247.906C1324.54 247.561 1324.87 246.838 1324.63 246.194C1324.32 245.371 1323.35 245.043 1322.62 245.486L1312.51 251.567L1305.64 255.696C1303.93 256.722 1301.66 256.391 1300.47 254.795C1300.37 254.669 1300.29 254.54 1300.21 254.408C1299.18 252.628 1299.73 250.372 1301.44 249.262L1318.4 238.255C1318.53 238.172 1318.66 238.095 1318.79 238.015C1320.52 236.956 1322.42 236.222 1324.39 235.838C1326.36 235.453 1328.4 235.413 1330.42 235.746L1342.77 237.784C1343.12 237.843 1343.47 237.88 1343.83 237.903C1344.31 237.936 1344.79 237.94 1345.26 237.914C1345.6 237.895 1345.94 237.854 1346.28 237.805C1349.05 237.401 1351.62 235.998 1353.45 233.775L1359.34 226.608L1379.6 201.983C1380.84 200.477 1381.34 198.494 1380.95 196.584L1377.6 180.121L1377.46 179.439L1372.15 153.288L1390.19 147.277L1404.26 142.59L1407.82 168.334L1411.11 192.097L1411.66 196.044L1412.02 198.667C1412.66 203.298 1412.06 207.923 1410.39 212.124C1408.68 216.427 1405.85 220.283 1402.09 223.238Z" fill="#FB875D"/>
<path d="M1332.91 146.553L1336.25 140.936C1342.2 130.923 1345.28 119.476 1345.15 107.831C1345.1 103.142 1345.55 98.5031 1346.48 93.9549C1347.18 90.5192 1348.16 87.1352 1349.41 83.8221L1351.08 79.4109L1352.6 75.3945L1353 74.347C1353.54 72.9118 1353.92 71.4199 1354.12 69.8994L1354.14 69.7455L1354.44 67.5018L1354.63 66.0584C1354.63 66.0445 1354.63 66.0321 1354.63 66.0182C1354.63 66.0088 1354.64 66.0004 1354.64 65.9909L1354.66 65.8428L1354.68 65.8499C1354.99 64.4097 1356.36 63.4361 1357.84 63.6612C1359.38 63.8951 1360.44 65.3293 1360.2 66.8649C1360.14 67.3032 1359.96 67.6957 1359.73 68.0366L1359.74 68.0413L1359.7 68.0872L1357.95 70.5356L1357.51 71.1476C1356.52 72.5264 1355.71 74.025 1355.1 75.608L1353.9 78.6937L1353.9 78.695L1352.85 81.4678L1351.64 84.6635C1350.37 88.0381 1349.39 91.4889 1348.71 94.9944C1347.89 99.1978 1347.49 103.48 1347.54 107.806C1347.66 119.025 1344.91 130.066 1339.57 139.904L1338.98 140.966C1338.75 141.362 1338.53 141.759 1338.3 142.151L1338.26 142.23C1338.26 142.231 1338.27 142.232 1338.27 142.232C1339.93 142.416 1341.59 142.199 1343.12 141.605C1345.35 140.741 1347.29 139.104 1348.49 136.817L1354.56 125.263L1359.34 116.163C1359.58 115.704 1359.84 115.258 1360.1 114.816C1360.45 114.236 1360.82 113.667 1361.2 113.117C1365.03 107.655 1370.71 103.721 1377.23 102.074L1377.32 102.118L1382.98 104.867C1393.73 110.08 1401.17 120.303 1402.8 132.117L1404.26 142.591L1390.19 147.279L1372.15 153.29L1377.46 179.441L1377.6 180.123L1342.24 192.398C1345.6 198.435 1347.75 204.964 1348.65 211.664C1349.53 218.254 1349.21 225.007 1347.63 231.614C1347.14 233.667 1346.69 235.732 1346.28 237.805C1345.94 237.854 1345.6 237.896 1345.26 237.915C1344.79 237.941 1344.31 237.937 1343.83 237.904C1344.27 235.611 1344.76 233.328 1345.31 231.059C1346.69 225.276 1347.06 219.377 1346.47 213.587C1345.75 206.559 1343.6 199.691 1340.07 193.392L1339.94 193.151L1332.5 179.889C1330.41 176.166 1329.1 172.131 1328.55 168.016C1328.06 164.328 1328.18 160.575 1328.92 156.925C1329.65 153.315 1330.98 149.803 1332.91 146.553Z" fill="white"/>
<path d="M1319.03 289.267C1321.62 295.95 1323.17 302.964 1323.63 310.115L1323.66 310.549C1323.79 312.54 1324.47 314.405 1325.57 315.977C1326.49 317.288 1327.71 318.397 1329.18 319.199C1332.39 320.963 1336.23 320.967 1339.45 319.207L1340.11 318.846C1344.09 316.668 1346.15 312.223 1345.24 307.783L1344.16 302.533C1341.82 291.135 1340.71 279.442 1340.82 267.761C1341.63 267.606 1342.43 267.414 1343.21 267.182C1343.05 278.895 1344.15 290.626 1346.5 302.056L1347.57 307.307C1348.7 312.775 1346.16 318.252 1341.25 320.935L1340.59 321.296C1338.03 322.696 1335.15 323.184 1332.37 322.76C1330.87 322.533 1329.4 322.042 1328.03 321.287C1326.83 320.629 1325.76 319.801 1324.85 318.845C1322.76 316.666 1321.48 313.809 1321.28 310.701L1321.25 310.268C1320.8 303.359 1319.31 296.582 1316.81 290.126C1316.56 289.488 1316.31 288.853 1316.07 288.228L1318.34 287.49C1318.57 288.075 1318.8 288.671 1319.03 289.267Z" fill="white"/>
<path d="M1308.41 233.798C1309.56 233.972 1310.35 235.04 1310.17 236.182C1310 237.325 1308.93 238.11 1307.78 237.936C1306.64 237.762 1305.85 236.695 1306.03 235.552C1306.2 234.409 1307.27 233.624 1308.41 233.798Z" fill="white"/>
<path d="M1364.49 19.3969C1369.55 19.7769 1374.15 21.7573 1377.8 24.834C1381.64 28.0787 1384.42 32.5442 1385.54 37.6459C1385.74 38.5983 1385.9 39.5713 1385.99 40.5639L1386.04 41.1483C1386.68 48.3305 1390.21 54.9479 1395.82 59.4895C1402.51 64.901 1406.17 73.2001 1405.66 81.7762L1405.35 87.0369C1404.95 93.748 1408.38 100.11 1414.22 103.461C1420.33 106.967 1423.79 113.744 1423.03 120.735C1422.78 123.045 1422.52 125.484 1422.26 127.791C1421.52 134.638 1424.34 141.387 1429.74 145.68C1429.88 145.794 1430.02 145.909 1430.17 146.024C1438.62 152.737 1442.04 163.962 1438.76 174.225C1435.09 185.694 1424 193.132 1411.97 192.187C1411.68 192.164 1411.4 192.132 1411.11 192.1L1407.82 168.337L1404.25 142.592L1402.8 132.118C1401.17 120.303 1393.73 110.08 1382.98 104.867L1377.31 102.118L1377.31 102.087L1365.67 96.3727C1365.19 96.1367 1364.73 95.8707 1364.3 95.5833C1361.91 94.0003 1360.23 91.6839 1359.42 89.0992C1358.42 85.9259 1358.71 82.352 1360.56 79.2433L1366.71 68.9092C1371.34 61.1105 1366.77 51.0814 1357.83 49.4463L1353.46 48.6467C1347.23 47.5065 1342.18 43.0979 1340.14 37.2397C1340.13 37.2807 1340.12 37.3226 1340.11 37.3636C1340.1 37.3174 1340.08 37.2738 1340.06 37.2275C1341.41 31.5466 1344.79 26.7626 1349.33 23.5745C1353.6 20.5682 1358.9 18.9776 1364.49 19.3969Z" fill="#9E2A00"/>
<path d="M1279.19 30.7291C1284.62 30.0308 1289.21 34.7324 1288.36 40.1315L1283.94 68.326L1272.69 42.0788C1270.55 37.0783 1273.79 31.4233 1279.19 30.7291Z" fill="#F0C79D"/>
</g>
</g>
<defs>
<clipPath id="clip0">
<rect width="1396" height="310" fill="white"/>
</clipPath>
<clipPath id="clip1">
<rect width="197.378" height="281.288" fill="white" transform="matrix(-0.993851 -0.110728 -0.110728 0.993851 1275.31 148.855)"/>
</clipPath>
<clipPath id="clip2">
<rect width="194.235" height="459.243" fill="white" transform="matrix(-0.98863 -0.150369 -0.150369 0.98863 1462.08 33.207)"/>
</clipPath>
</defs>
</svg>
