<svg width="1396" height="300" viewBox="0 0 1396 300" fill="none" xmlns="http://www.w3.org/2000/svg">
<g clip-path="url(#clip0)">
<path d="M0 125.541H36.0053C40.8058 125.541 44.7314 128.698 45.0923 132.7C45.1105 132.901 45.1287 133.097 45.1287 133.302V209.901C45.1287 215.38 50.8915 218.941 55.7904 216.491L78.6299 205.068L89.6087 199.56C92.3898 198.164 95.827 198.124 98.6519 199.451L130.659 214.483C136.739 217.337 144.193 213.597 144.193 207.692V155.966C144.193 151.68 148.279 148.206 153.316 148.206H202.024C207.062 148.206 211.148 144.732 211.148 140.446V74.0303C211.148 69.7438 215.234 66.2701 220.271 66.2701H265.564C270.601 66.2701 274.687 69.7438 274.687 74.0303V81.7723C274.687 84.4222 276.28 86.8898 278.908 88.315L309.063 104.659C311.691 106.084 313.284 108.552 313.284 111.202V172.985C313.284 177.271 317.37 180.745 322.408 180.745H366.858C371.896 180.745 375.982 177.271 375.982 172.985V145.501C375.982 141.215 380.064 137.741 385.105 137.741H417.808C422.845 137.741 426.932 141.215 426.932 145.501V178.616C426.932 181.678 429.046 184.452 432.333 185.698L469.115 199.681C475.148 201.973 481.96 198.219 481.96 192.598V104.244C481.96 99.9572 486.043 96.4835 491.084 96.4835H506.64C511.678 96.4835 515.764 93.0098 515.764 88.7233V77.391C515.764 71.9927 522.081 68.2457 528.037 70.1083L559.369 79.917C562.956 81.0396 565.339 83.9483 565.339 87.1996V132.303C565.339 136.589 569.426 140.063 574.463 140.063H606.492C611.529 140.063 615.615 143.537 615.615 147.823V160.198C615.615 164.485 619.701 167.958 624.738 167.958H658.418C663.456 167.958 667.542 164.485 667.542 160.198V98.069C667.542 95.944 668.566 93.9101 670.377 92.4485L689.291 77.1467C692.754 74.3474 698.415 74.3474 701.874 77.1541L720.737 92.4485C722.541 93.9138 723.565 95.9404 723.565 98.0654V126.613C723.565 130.615 727.145 133.961 731.832 134.337L838.281 142.888C842.965 143.263 846.544 146.609 846.544 150.612V171.888C846.544 178.799 856.371 182.261 862.115 177.373L894.767 149.602C896.477 148.148 897.439 146.172 897.439 144.116V114.705C897.439 110.418 901.525 106.945 906.562 106.945H966.545C971.582 106.945 975.668 110.418 975.668 114.705V172.402C975.668 176.688 979.754 180.162 984.792 180.162H1007.54C1012.58 180.162 1016.66 176.688 1016.66 172.402V82.7455C1016.66 78.459 1020.75 74.9853 1025.79 74.9853H1061.52C1066.55 74.9853 1070.64 78.459 1070.64 82.7455V98.0253C1070.64 102.312 1074.72 105.786 1079.76 105.786H1112.76C1117.79 105.786 1121.88 109.259 1121.88 113.546V139.283C1121.88 143.57 1125.97 147.043 1131 147.043H1170.15C1175.18 147.043 1179.27 150.517 1179.27 154.803V177.636C1179.27 181.922 1183.36 185.396 1188.39 185.396H1211.14C1216.18 185.396 1220.27 181.922 1220.27 177.636V108.898C1220.27 104.612 1224.35 101.138 1229.39 101.138H1254.19C1259.22 101.138 1263.31 104.612 1263.31 108.898V131.151C1263.31 135.438 1267.4 138.911 1272.43 138.911H1293.81C1298.85 138.911 1302.94 135.438 1302.94 131.151V85.0746C1302.94 80.7881 1307.02 77.3145 1312.06 77.3145H1339.59C1344.63 77.3145 1348.72 80.7881 1348.72 85.0746V187.721V205.531C1348.72 209.817 1352.8 213.291 1357.84 213.291H1403.81C1408.85 213.291 1412.94 209.817 1412.94 205.531V149.577C1412.94 149.325 1412.96 149.077 1412.98 148.833V133.305C1412.98 129.019 1417.07 125.545 1422.1 125.545H1458V-568H0V125.541Z" fill="#027A7C"/>
<path d="M1412.94 133.302V148.83C1412.91 149.074 1412.9 149.322 1412.9 149.573V205.527C1412.9 209.814 1408.81 213.288 1403.78 213.288H1357.8C1352.77 213.288 1348.68 209.814 1348.68 205.527V187.718V85.0711C1348.68 80.7846 1344.59 77.311 1339.56 77.311H1312.03C1306.99 77.311 1302.9 80.7846 1302.9 85.0711V131.148C1302.9 135.434 1298.82 138.908 1293.78 138.908H1272.4C1267.36 138.908 1263.27 135.434 1263.27 131.148V108.895C1263.27 104.608 1259.19 101.135 1254.15 101.135H1229.35C1224.32 101.135 1220.23 104.608 1220.23 108.895V177.632C1220.23 181.919 1216.15 185.392 1211.11 185.392H1188.36C1183.32 185.392 1179.23 181.919 1179.23 177.632V154.8C1179.23 150.513 1175.15 147.04 1170.11 147.04H1130.97C1125.93 147.04 1121.84 143.566 1121.84 139.28V113.542C1121.84 109.256 1117.76 105.782 1112.72 105.782H1079.73C1074.69 105.782 1070.6 102.308 1070.6 98.0218V82.742C1070.6 78.4555 1066.52 74.9818 1061.48 74.9818H1025.75C1020.71 74.9818 1016.63 78.4555 1016.63 82.742V172.398C1016.63 176.685 1012.54 180.158 1007.5 180.158H984.755C979.718 180.158 975.632 176.685 975.632 172.398V114.701C975.632 110.415 971.546 106.941 966.508 106.941H906.526C901.489 106.941 897.403 110.415 897.403 114.701V144.113C897.403 146.172 896.44 148.144 894.731 149.599L862.079 177.37C856.331 182.258 846.507 178.795 846.507 171.884V150.608C846.507 146.606 842.928 143.26 838.244 142.885L731.796 134.333C727.112 133.958 723.529 130.612 723.529 126.61V98.0619C723.529 95.9405 722.508 93.9103 720.7 92.445L701.837 77.1506C698.378 74.3439 692.718 74.3439 689.255 77.1433L670.341 92.445C668.529 93.9103 667.505 95.9405 667.505 98.0656V160.195C667.505 164.481 663.419 167.955 658.382 167.955H624.702C619.665 167.955 615.578 164.481 615.578 160.195V147.82C615.578 143.533 611.496 140.06 606.455 140.06H574.452C569.415 140.06 565.329 136.586 565.329 132.299V87.1962C565.329 83.9449 562.945 81.0398 559.358 79.9135L528.026 70.1048C522.07 68.2386 515.753 71.9893 515.753 77.3875V88.7198C515.753 93.0063 511.671 96.48 506.629 96.48H491.073C486.035 96.48 481.949 99.9537 481.949 104.24V192.595C481.949 198.216 475.137 201.974 469.104 199.677L432.322 185.695C429.038 184.445 426.921 181.671 426.921 178.613V145.498C426.921 141.211 422.835 137.738 417.797 137.738H385.094C380.057 137.738 375.971 141.211 375.971 145.498V172.981C375.971 177.268 371.885 180.741 366.847 180.741H322.4C317.363 180.741 313.277 177.268 313.277 172.981V111.199C313.277 108.549 311.684 106.081 309.056 104.656L278.901 88.3116C276.273 86.8864 274.68 84.4187 274.68 81.7688V74.0268C274.68 69.7403 270.594 66.2666 265.556 66.2666H220.267C215.23 66.2666 211.144 69.7403 211.144 74.0268V140.442C211.144 144.729 207.058 148.203 202.02 148.203H153.316C148.279 148.203 144.193 151.676 144.193 155.963V207.689C144.193 213.598 136.739 217.337 130.659 214.48L98.6519 199.448C95.827 198.121 92.3862 198.161 89.6087 199.557L78.6299 205.065L55.7904 216.488C50.8915 218.937 45.1287 215.376 45.1287 209.898V133.298C45.1287 133.094 45.1105 132.897 45.0923 132.697C44.7314 128.695 40.8058 125.538 36.0053 125.538H0V890H45.0923H1412.94H1458V125.542H1422.07C1417.03 125.542 1412.94 129.015 1412.94 133.302Z" fill="#007171"/>
<g clip-path="url(#clip1)">
<path d="M1221.05 228.793L1219.47 231.61C1219.46 231.608 1219.45 231.606 1219.44 231.605L1219.54 231.429C1220.06 230.558 1220.55 229.673 1221.05 228.793Z" fill="#7C2206"/>
<path d="M1182.18 221.063L1182.26 221.005C1192.78 213.39 1197.61 200.166 1194.48 187.574C1191.72 176.459 1195.15 164.722 1203.46 156.836C1212.91 147.874 1216.4 134.316 1212.45 121.912L1210.71 116.428C1208.81 110.466 1207.82 100.649 1208.61 94.4439L1210.12 85.2604C1208.94 101.124 1218.09 116.133 1233.04 122.253L1237.74 124.175C1235.67 134.296 1234.68 144.62 1234.79 155.054C1235.07 180.966 1228.22 206.44 1214.98 228.722L1207.55 241.222C1203.25 248.454 1200.29 256.268 1198.66 264.301L1182.06 282.21C1175.21 277.198 1170.1 269.951 1167.83 261.463C1163.77 246.325 1169.48 230.262 1182.18 221.063Z" fill="#7C2206"/>
<path d="M1240.1 155.003C1239.99 145.374 1240.87 135.846 1242.69 126.492C1257.42 134.835 1263.04 153.725 1254.55 168.909L1222.37 226.431C1234.25 204.537 1240.37 179.968 1240.1 155.003Z" fill="#7C2206"/>
<path d="M1122.89 134.707L1100.7 203.788C1099.19 208.498 1094.47 211.413 1089.58 210.668L1068.06 207.396L1059.28 206.059C1054.29 205.3 1050.62 200.977 1050.7 195.94L1050.84 186.691C1053.78 187.618 1057.12 186.846 1059.33 184.419C1060.49 183.153 1061.15 181.613 1061.36 180.025L1061.39 180.033L1063.89 152.227L1063.86 152.219C1063.98 150.067 1063.27 147.884 1061.68 146.204L1051.95 135.881C1051.84 135.769 1051.73 135.675 1051.62 135.573L1051.7 130.268L1051.93 130.485C1055.26 133.59 1060.48 133.382 1063.54 130.025C1066.42 126.879 1066.38 122.053 1063.45 118.951L1053.72 108.629C1053.21 108.095 1052.65 107.683 1052.05 107.363L1052.07 106.323L1128.29 117.916L1122.89 134.707ZM1077.55 170.935L1083.35 132.822C1074.72 133.342 1067.23 140.278 1065.79 149.749C1064.35 159.183 1069.4 167.997 1077.43 171.093C1077.46 171.104 1077.49 171.12 1077.52 171.132L1077.55 170.935ZM1099.76 141.824C1097.65 138.23 1094.46 135.396 1090.56 133.918L1086.77 158.858L1084.73 172.229C1093.36 171.707 1100.85 164.771 1102.3 155.302C1103.04 150.403 1102.03 145.677 1099.76 141.824Z" fill="#FFC846"/>
<path d="M1211.54 76.6148C1221.37 78.712 1225.69 71.0631 1225.9 70.6797C1226.25 70.0241 1226.86 69.6064 1227.54 69.4674C1228.07 69.3586 1228.63 69.4145 1229.15 69.6859C1230.18 70.2297 1230.65 71.4168 1230.33 72.492C1230.29 72.6413 1230.23 72.7885 1230.15 72.9329C1228.06 76.8938 1221.78 83.078 1211.85 81.5669C1211.5 81.5132 1211.13 81.4269 1210.76 81.347C1210.71 81.3361 1210.66 81.3268 1210.6 81.3159L1211.33 76.5793C1211.41 76.5958 1211.47 76.5998 1211.54 76.6148Z" fill="#C44822"/>
<path d="M1052.81 97.8665C1053.38 95.8841 1054.29 94.0018 1055.52 92.3187L1064.85 79.6306C1066.85 76.9071 1070.2 75.5198 1073.55 76.0288L1115.93 82.4742C1119.13 82.9617 1121.84 85.1138 1123.02 88.1265L1128.9 103.02C1129.74 105.138 1130.13 107.382 1130.11 109.624C1130.09 111.37 1129.83 113.115 1129.29 114.8L1128.29 117.916L1052.07 106.323L1052.13 102.419C1052.15 100.866 1052.39 99.3397 1052.81 97.8665Z" fill="#002043"/>
<path d="M1099.77 141.824C1102.03 145.677 1103.04 150.403 1102.3 155.302C1100.86 164.772 1093.36 171.707 1084.74 172.229L1086.77 158.859L1090.56 133.919C1094.46 135.396 1097.66 138.232 1099.77 141.824Z" fill="#002043"/>
<path d="M1083.35 132.821L1077.55 170.933L1077.52 171.132C1077.49 171.12 1077.46 171.104 1077.43 171.092C1069.4 167.997 1064.35 159.183 1065.79 149.749C1067.23 140.279 1074.72 133.343 1083.35 132.821Z" fill="#002043"/>
<path d="M1306.16 142.245C1291.66 145.908 1279.02 154.664 1270.5 166.817C1269.64 168.043 1268.83 169.309 1268.05 170.599C1267.46 171.582 1266.88 172.575 1266.35 173.597L1255.72 193.848L1242.22 219.559C1239.55 224.647 1235.23 228.29 1230.27 230.214C1226.86 231.536 1223.16 232.018 1219.47 231.609L1221.05 228.792C1221.49 228.007 1221.94 227.223 1222.37 226.429L1254.55 168.908C1263.04 153.724 1257.42 134.835 1242.69 126.491C1244.21 118.69 1246.39 111.013 1249.23 103.502L1251.92 96.3905L1254.26 90.2173L1256.91 83.3508C1258.27 79.8284 1260.08 76.4921 1262.28 73.4225L1263.26 72.0633L1267.17 66.6148L1267.24 66.5125L1267.22 66.5021C1267.74 65.7421 1268.13 64.8701 1268.28 63.8948C1268.8 60.4776 1266.44 57.2861 1263.02 56.7656C1259.73 56.2647 1256.67 58.4297 1255.98 61.6361L1255.94 61.6203L1255.9 61.95C1255.89 61.971 1255.88 61.9897 1255.88 62.0107C1255.88 62.0415 1255.88 62.0694 1255.88 62.1001L1254.78 70.3052L1254.74 70.6449C1254.29 74.0297 1253.45 77.3512 1252.24 80.5448L1251.36 82.8759L1247.98 91.8136L1244.26 101.63C1241.47 109.004 1239.3 116.533 1237.73 124.178L1233.04 122.256C1218.09 116.135 1208.93 101.125 1210.12 85.2633C1210.19 84.2993 1210.3 83.3317 1210.44 82.3622L1210.6 81.3171C1210.66 81.3281 1210.71 81.3373 1210.76 81.3482C1211.13 81.4281 1211.5 81.5144 1211.85 81.5682C1221.78 83.0792 1228.06 76.895 1230.15 72.9342C1230.23 72.7911 1230.29 72.644 1230.33 72.4932C1230.65 71.418 1230.18 70.2309 1229.15 69.6872C1228.63 69.4157 1228.07 69.3598 1227.54 69.4686C1226.86 69.6077 1226.25 70.0256 1225.9 70.6809C1225.69 71.0643 1221.37 78.7132 1211.54 76.6161C1211.47 76.601 1211.41 76.597 1211.33 76.5805L1222.83 2.0475C1223.02 0.759147 1223.28 -0.505618 1223.58 -1.75568C1223.6 -1.84697 1223.61 -1.9403 1223.64 -2.03138C1228.17 11.0031 1239.4 20.815 1253.27 23.3525L1263 25.1317C1282.89 28.7704 1293.07 51.0881 1282.75 68.4424L1269.07 91.4387C1264.96 98.3564 1264.31 106.309 1266.53 113.371C1268.34 119.123 1272.07 124.277 1277.39 127.8C1278.36 128.44 1279.37 129.031 1280.44 129.557L1306.34 142.273L1306.36 142.342L1306.16 142.245Z" fill="#FB875D"/>
<path d="M1100.7 203.786L1122.89 134.705L1123.03 134.945C1131.22 148.845 1133.31 165.495 1128.82 180.976L1125.18 193.51C1121.06 207.686 1123.87 222.971 1132.76 234.77L1174.59 290.258L1182.05 282.21L1198.66 264.301C1197.01 272.426 1196.74 280.774 1197.83 288.981C1199.05 298.139 1201.98 307.118 1206.62 315.402L1223.17 344.916C1219.43 346.281 1215.75 347.625 1212.18 348.926C1178.85 361.087 1141.7 346.046 1126.24 314.139L1089.15 237.558C1088.43 236.088 1087.6 234.681 1086.65 233.352L1068.06 207.392L1089.57 210.664C1094.47 211.411 1099.19 208.496 1100.7 203.786Z" fill="#FB875D"/>
<path d="M1052.05 107.361C1052.65 107.681 1053.22 108.092 1053.72 108.627L1063.45 118.95C1066.38 122.052 1066.42 126.877 1063.54 130.024C1060.48 133.38 1055.26 133.587 1051.93 130.484L1051.7 130.267L1046.4 125.315C1042.42 121.601 1041.07 115.862 1042.99 110.774C1044.4 106.998 1048.76 105.602 1052.05 107.361Z" fill="#FB875D"/>
<path d="M1041.22 138.024C1042.84 133.708 1048.3 132.499 1051.62 135.571C1051.73 135.673 1051.85 135.767 1051.95 135.879L1061.69 146.201C1063.27 147.881 1063.98 150.065 1063.87 152.217L1063.89 152.225L1061.39 180.03L1061.37 180.022C1061.15 181.61 1060.49 183.151 1059.34 184.417C1057.12 186.843 1053.78 187.615 1050.84 186.688C1049.72 186.334 1048.65 185.737 1047.72 184.877L1042.19 179.708C1038.21 175.995 1036.86 170.255 1038.78 165.167C1039.26 163.879 1040.09 162.876 1041.1 162.171C1039.08 158.73 1038.64 154.499 1040.1 150.638C1040.44 149.716 1040.97 148.943 1041.61 148.316C1040.15 145.126 1039.94 141.436 1041.22 138.024Z" fill="#FB875D"/>
<path d="M1361.48 411.869L1294.11 464.706L1248.93 500.142C1243.4 504.481 1237.13 507.686 1230.47 509.658C1228.73 510.175 1226.95 510.601 1225.15 510.946C1222.81 511.396 1220.44 511.708 1218.05 511.859C1217.09 511.919 1216.14 511.992 1215.19 512.007C1214.17 512.022 1213.16 512.071 1212.15 512.137C1206.82 512.483 1201.56 513.526 1196.53 515.352L1167.93 525.735C1164.08 527.133 1159.62 525.778 1157.54 522.247C1156.02 519.656 1156.04 516.649 1157.28 514.207C1154.46 514.249 1151.75 512.731 1150.37 510.096C1149.24 507.932 1149.28 505.481 1150.21 503.415C1147.77 503.117 1145.52 501.589 1144.45 499.124C1142.96 495.709 1144.52 491.718 1147.74 489.849L1187.59 466.762C1188.92 465.995 1189.64 464.385 1189.11 462.951C1188.43 461.12 1186.27 460.391 1184.64 461.377L1162.13 474.909L1146.86 484.096C1143.06 486.38 1138 485.642 1135.35 482.092C1135.14 481.812 1134.95 481.523 1134.78 481.23C1132.48 477.269 1133.7 472.248 1137.5 469.78L1175.25 445.286C1175.53 445.1 1175.83 444.928 1176.11 444.752C1179.97 442.394 1184.19 440.762 1188.57 439.907C1192.96 439.049 1197.5 438.961 1201.99 439.701L1229.47 444.237C1230.26 444.367 1231.05 444.45 1231.84 444.503C1232.91 444.575 1233.97 444.585 1235.03 444.527C1235.79 444.484 1236.54 444.394 1237.29 444.283C1243.46 443.385 1249.18 440.262 1253.24 435.317L1266.36 419.368L1311.45 364.569C1314.21 361.218 1315.3 356.805 1314.44 352.555L1306.99 315.921L1306.68 314.403L1294.86 256.208L1335 242.832L1366.31 232.402L1374.24 289.691L1381.56 342.571L1382.78 351.353L1383.59 357.19C1385.02 367.496 1383.67 377.787 1379.96 387.136C1376.15 396.712 1369.86 405.292 1361.48 411.869Z" fill="#FB875D"/>
<path d="M1207.55 241.224L1214.98 228.724C1228.22 206.442 1235.07 180.967 1234.79 155.056C1234.68 144.621 1235.67 134.298 1237.73 124.177C1239.3 116.531 1241.47 109.001 1244.26 101.628L1247.98 91.812L1251.36 82.8744L1252.24 80.5432C1253.45 77.3497 1254.29 74.0296 1254.74 70.6462L1254.78 70.3037L1255.45 65.3108L1255.88 62.0988C1255.88 62.0678 1255.88 62.0401 1255.88 62.0094C1255.89 61.9884 1255.89 61.9696 1255.9 61.9486L1255.94 61.6189L1255.98 61.6347C1256.67 58.43 1259.73 56.2634 1263.02 56.7643C1266.44 57.2848 1268.8 60.4763 1268.28 63.8934C1268.13 64.8688 1267.75 65.7422 1267.22 66.5008L1267.24 66.5112L1267.17 66.6134L1263.26 72.0619L1262.28 73.4237C1260.08 76.4919 1258.27 79.8268 1256.91 83.3495L1254.26 90.216L1254.26 90.2188L1251.92 96.3892L1249.23 103.501C1246.39 111.01 1244.21 118.689 1242.69 126.49C1240.87 135.844 1240 145.372 1240.1 155C1240.37 179.965 1234.25 204.534 1222.37 226.427L1221.05 228.79C1220.55 229.67 1220.06 230.555 1219.54 231.427L1219.44 231.603C1219.45 231.604 1219.46 231.606 1219.47 231.608C1223.16 232.017 1226.87 231.534 1230.27 230.213C1235.23 228.288 1239.55 224.646 1242.22 219.557L1255.72 193.846L1266.35 173.597C1266.88 172.575 1267.46 171.582 1268.05 170.599C1268.83 169.309 1269.64 168.042 1270.5 166.817C1279.03 154.664 1291.66 145.908 1306.16 142.245L1306.36 142.341L1318.97 148.459C1342.89 160.06 1359.44 182.809 1363.08 209.099L1366.31 232.407L1335 242.837L1294.85 256.213L1306.68 314.409L1306.99 315.926L1228.31 343.241C1235.78 356.675 1240.56 371.205 1242.56 386.113C1244.53 400.778 1243.82 415.806 1240.3 430.507C1239.2 435.075 1238.2 439.671 1237.29 444.285C1236.54 444.395 1235.79 444.486 1235.03 444.529C1233.97 444.588 1232.91 444.577 1231.84 444.505C1232.83 439.402 1233.92 434.321 1235.13 429.272C1238.21 416.404 1239.04 403.278 1237.71 390.392C1236.11 374.753 1231.34 359.471 1223.48 345.453L1223.18 344.918L1206.63 315.404C1201.98 307.12 1199.06 298.141 1197.84 288.983C1196.74 280.776 1197.02 272.427 1198.66 264.303C1200.29 256.269 1203.25 248.455 1207.55 241.224Z" fill="white"/>
<path d="M1277.81 -41.7369C1289.07 -40.8912 1299.31 -36.4842 1307.43 -29.6377C1315.98 -22.4174 1322.17 -12.4804 1324.65 -1.12755C1325.11 0.991742 1325.45 3.15694 1325.65 5.36583L1325.77 6.66632C1327.19 22.6487 1335.05 37.3745 1347.54 47.4807C1362.42 59.523 1370.57 77.9909 1369.43 97.0751L1368.73 108.782C1367.84 123.716 1375.49 137.873 1388.49 145.331C1402.08 153.132 1409.77 168.214 1408.09 183.769C1407.53 188.91 1406.94 194.337 1406.38 199.472C1404.72 214.708 1411 229.725 1423.01 239.279C1423.33 239.534 1423.65 239.789 1423.97 240.046C1442.77 254.985 1450.38 279.963 1443.08 302.801C1434.92 328.323 1410.23 344.874 1383.47 342.771C1382.83 342.721 1382.19 342.649 1381.56 342.577L1374.24 289.697L1366.3 232.408L1363.07 209.1C1359.43 182.809 1342.89 160.06 1318.97 148.46L1306.36 142.342L1306.33 142.273L1280.44 129.556C1279.37 129.031 1278.35 128.439 1277.39 127.8C1272.06 124.277 1268.34 119.123 1266.53 113.371C1264.31 106.309 1264.96 98.3564 1269.07 91.4386L1282.75 68.4424C1293.07 51.088 1282.89 28.7703 1263 25.1316L1253.27 23.3525C1239.4 20.8151 1228.16 11.0047 1223.63 -2.03145C1223.61 -1.94016 1223.59 -1.84704 1223.57 -1.75576C1223.54 -1.85859 1223.49 -1.95569 1223.46 -2.05853C1226.45 -14.7003 1233.97 -25.346 1244.07 -32.4405C1253.59 -39.1304 1265.38 -42.67 1277.81 -41.7369Z" fill="#9E2A00"/>
<path d="M1088 -16.5192C1100.08 -18.073 1110.29 -7.61058 1108.4 4.40389L1098.56 67.1449L1073.54 8.73727C1068.78 -2.39024 1075.98 -14.9744 1088 -16.5192Z" fill="#F0C79D"/>
</g>
</g>
<defs>
<clipPath id="clip0">
<rect width="1396" height="300" fill="white"/>
</clipPath>
<clipPath id="clip1">
<rect width="432.229" height="1021.95" fill="white" transform="matrix(-0.98863 -0.150369 -0.150369 0.98863 1494.98 -11.0059)"/>
</clipPath>
</defs>
</svg>
