<svg width="1396" height="300" viewBox="0 0 1396 300" fill="none" xmlns="http://www.w3.org/2000/svg">
<g clip-path="url(#clip0)">
<path d="M0 125.541H36.0053C40.8058 125.541 44.7314 128.698 45.0923 132.7C45.1105 132.901 45.1287 133.097 45.1287 133.302V209.901C45.1287 215.38 50.8915 218.941 55.7904 216.491L78.6299 205.068L89.6087 199.56C92.3898 198.164 95.827 198.124 98.6519 199.451L130.659 214.483C136.739 217.337 144.193 213.597 144.193 207.692V155.966C144.193 151.68 148.279 148.206 153.316 148.206H202.024C207.062 148.206 211.148 144.732 211.148 140.446V74.0303C211.148 69.7438 215.234 66.2701 220.271 66.2701H265.564C270.601 66.2701 274.687 69.7438 274.687 74.0303V81.7723C274.687 84.4222 276.28 86.8898 278.908 88.315L309.063 104.659C311.691 106.084 313.284 108.552 313.284 111.202V172.985C313.284 177.271 317.37 180.745 322.408 180.745H366.858C371.896 180.745 375.982 177.271 375.982 172.985V145.501C375.982 141.215 380.064 137.741 385.105 137.741H417.808C422.845 137.741 426.932 141.215 426.932 145.501V178.616C426.932 181.678 429.046 184.452 432.333 185.698L469.115 199.681C475.148 201.973 481.96 198.219 481.96 192.598V104.244C481.96 99.9572 486.043 96.4835 491.084 96.4835H506.64C511.678 96.4835 515.764 93.0098 515.764 88.7233V77.391C515.764 71.9927 522.081 68.2457 528.037 70.1083L559.369 79.917C562.956 81.0396 565.339 83.9483 565.339 87.1996V132.303C565.339 136.589 569.426 140.063 574.463 140.063H606.492C611.529 140.063 615.615 143.537 615.615 147.823V160.198C615.615 164.485 619.701 167.958 624.738 167.958H658.418C663.456 167.958 667.542 164.485 667.542 160.198V98.069C667.542 95.944 668.566 93.9101 670.377 92.4485L689.291 77.1467C692.754 74.3474 698.415 74.3474 701.874 77.1541L720.737 92.4485C722.541 93.9138 723.565 95.9404 723.565 98.0654V126.613C723.565 130.615 727.145 133.961 731.832 134.337L838.281 142.888C842.965 143.263 846.544 146.609 846.544 150.612V171.888C846.544 178.799 856.371 182.261 862.115 177.373L894.767 149.602C896.477 148.148 897.439 146.172 897.439 144.116V114.705C897.439 110.418 901.525 106.945 906.562 106.945H966.545C971.582 106.945 975.668 110.418 975.668 114.705V172.402C975.668 176.688 979.754 180.162 984.792 180.162H1007.54C1012.58 180.162 1016.66 176.688 1016.66 172.402V82.7455C1016.66 78.459 1020.75 74.9853 1025.79 74.9853H1061.52C1066.55 74.9853 1070.64 78.459 1070.64 82.7455V98.0253C1070.64 102.312 1074.72 105.786 1079.76 105.786H1112.76C1117.79 105.786 1121.88 109.259 1121.88 113.546V139.283C1121.88 143.57 1125.97 147.043 1131 147.043H1170.15C1175.18 147.043 1179.27 150.517 1179.27 154.803V177.636C1179.27 181.922 1183.36 185.396 1188.39 185.396H1211.14C1216.18 185.396 1220.27 181.922 1220.27 177.636V108.898C1220.27 104.612 1224.35 101.138 1229.39 101.138H1254.19C1259.22 101.138 1263.31 104.612 1263.31 108.898V131.151C1263.31 135.438 1267.4 138.911 1272.43 138.911H1293.81C1298.85 138.911 1302.94 135.438 1302.94 131.151V85.0746C1302.94 80.7881 1307.02 77.3145 1312.06 77.3145H1339.59C1344.63 77.3145 1348.72 80.7881 1348.72 85.0746V187.721V205.531C1348.72 209.817 1352.8 213.291 1357.84 213.291H1403.81C1408.85 213.291 1412.94 209.817 1412.94 205.531V149.577C1412.94 149.325 1412.96 149.077 1412.98 148.833V133.305C1412.98 129.019 1417.07 125.545 1422.1 125.545H1458V-568H0V125.541Z" fill="#027A7C"/>
<path d="M1412.94 133.302V148.83C1412.91 149.074 1412.9 149.322 1412.9 149.573V205.527C1412.9 209.814 1408.81 213.288 1403.78 213.288H1357.8C1352.77 213.288 1348.68 209.814 1348.68 205.527V187.718V85.0711C1348.68 80.7846 1344.59 77.311 1339.56 77.311H1312.03C1306.99 77.311 1302.9 80.7846 1302.9 85.0711V131.148C1302.9 135.434 1298.82 138.908 1293.78 138.908H1272.4C1267.36 138.908 1263.27 135.434 1263.27 131.148V108.895C1263.27 104.608 1259.19 101.135 1254.15 101.135H1229.35C1224.32 101.135 1220.23 104.608 1220.23 108.895V177.632C1220.23 181.919 1216.15 185.392 1211.11 185.392H1188.36C1183.32 185.392 1179.23 181.919 1179.23 177.632V154.8C1179.23 150.513 1175.15 147.04 1170.11 147.04H1130.97C1125.93 147.04 1121.84 143.566 1121.84 139.28V113.542C1121.84 109.256 1117.76 105.782 1112.72 105.782H1079.73C1074.69 105.782 1070.6 102.308 1070.6 98.0218V82.742C1070.6 78.4555 1066.52 74.9818 1061.48 74.9818H1025.75C1020.71 74.9818 1016.63 78.4555 1016.63 82.742V172.398C1016.63 176.685 1012.54 180.158 1007.5 180.158H984.755C979.718 180.158 975.632 176.685 975.632 172.398V114.701C975.632 110.415 971.546 106.941 966.508 106.941H906.526C901.489 106.941 897.403 110.415 897.403 114.701V144.113C897.403 146.172 896.44 148.144 894.731 149.599L862.079 177.37C856.331 182.258 846.507 178.795 846.507 171.884V150.608C846.507 146.606 842.928 143.26 838.244 142.885L731.796 134.333C727.112 133.958 723.529 130.612 723.529 126.61V98.0619C723.529 95.9405 722.508 93.9103 720.7 92.445L701.837 77.1506C698.378 74.3439 692.718 74.3439 689.255 77.1433L670.341 92.445C668.529 93.9103 667.505 95.9405 667.505 98.0656V160.195C667.505 164.481 663.419 167.955 658.382 167.955H624.702C619.665 167.955 615.578 164.481 615.578 160.195V147.82C615.578 143.533 611.496 140.06 606.455 140.06H574.452C569.415 140.06 565.329 136.586 565.329 132.299V87.1962C565.329 83.9449 562.945 81.0398 559.358 79.9135L528.026 70.1048C522.07 68.2386 515.753 71.9893 515.753 77.3875V88.7198C515.753 93.0063 511.671 96.48 506.629 96.48H491.073C486.035 96.48 481.949 99.9537 481.949 104.24V192.595C481.949 198.216 475.137 201.974 469.104 199.677L432.322 185.695C429.038 184.445 426.921 181.671 426.921 178.613V145.498C426.921 141.211 422.835 137.738 417.797 137.738H385.094C380.057 137.738 375.971 141.211 375.971 145.498V172.981C375.971 177.268 371.885 180.741 366.847 180.741H322.4C317.363 180.741 313.277 177.268 313.277 172.981V111.199C313.277 108.549 311.684 106.081 309.056 104.656L278.901 88.3116C276.273 86.8864 274.68 84.4187 274.68 81.7688V74.0268C274.68 69.7403 270.594 66.2666 265.556 66.2666H220.267C215.23 66.2666 211.144 69.7403 211.144 74.0268V140.442C211.144 144.729 207.058 148.203 202.02 148.203H153.316C148.279 148.203 144.193 151.676 144.193 155.963V207.689C144.193 213.598 136.739 217.337 130.659 214.48L98.6519 199.448C95.827 198.121 92.3862 198.161 89.6087 199.557L78.6299 205.065L55.7904 216.488C50.8915 218.937 45.1287 215.376 45.1287 209.898V133.298C45.1287 133.094 45.1105 132.897 45.0923 132.697C44.7314 128.695 40.8058 125.538 36.0053 125.538H0V890H45.0923H1412.94H1458V125.542H1422.07C1417.03 125.542 1412.94 129.015 1412.94 133.302Z" fill="#007171"/>
<rect x="683" y="143" width="608" height="231" rx="35" fill="#007171"/>
<g opacity="0.5" clip-path="url(#clip1)">
<rect x="683" y="143" width="304" height="643.837" rx="35.5285" fill="white"/>
<rect x="802.252" y="166.171" width="65.4959" height="9.88618" rx="4.63415" fill="#CCCCCC"/>
<circle cx="788.658" cy="171.114" r="4.94309" fill="#CCCCCC"/>
<rect x="683" y="207.725" width="304.318" height="514.389" fill="#F2F2F2"/>
<rect x="780.467" y="266.771" width="110.905" height="108.903" rx="54.4515" transform="rotate(0.498699 780.467 266.771)" fill="white"/>
<path d="M866.297 301.411C866.013 301.159 865.682 300.967 865.323 300.844C864.965 300.721 864.585 300.671 864.207 300.695C863.828 300.72 863.459 300.819 863.119 300.987C862.779 301.155 862.475 301.388 862.226 301.674L828.987 339.367L819.778 331.232L814.784 326.911L811.227 323.759C810.943 323.507 810.612 323.315 810.253 323.192C809.894 323.069 809.515 323.019 809.136 323.043C808.758 323.068 808.388 323.167 808.048 323.335C807.708 323.503 807.405 323.736 807.156 324.022C806.658 324.595 806.407 325.342 806.457 326.099C806.508 326.856 806.855 327.563 807.425 328.065L813.482 333.364L818.475 337.686L829.531 347.425L866.538 305.448C867.038 304.879 867.293 304.136 867.248 303.38C867.202 302.624 866.861 301.916 866.297 301.411Z" fill="#00A8A6"/>
</g>
<g opacity="0.5" clip-path="url(#clip2)">
<rect x="987" y="143" width="304.549" height="645" rx="35.5926" fill="white"/>
<rect x="1106.47" y="166.212" width="65.6142" height="9.90403" rx="4.64251" fill="#CCCCCC"/>
<circle cx="1092.85" cy="171.164" r="4.95202" fill="#CCCCCC"/>
<rect x="987" y="207.841" width="304.868" height="515.317" fill="#F2F2F2"/>
<path d="M1045.02 247.222C1045.02 242.436 1048.9 238.556 1053.68 238.556H1259.81C1264.6 238.556 1268.48 242.436 1268.48 247.222V302.932H1053.68C1048.9 302.932 1045.02 299.052 1045.02 294.266V247.222Z" fill="#FFBE3C"/>
<rect x="1064.94" y="254.481" width="183.148" height="10.2381" rx="4.64251" fill="white"/>
<rect x="1064.94" y="276.095" width="183.148" height="10.2381" rx="4.64251" fill="white"/>
</g>
<g clip-path="url(#clip3)" filter="url(#filter0_d)">
<rect x="827" y="30" width="320.388" height="678.545" rx="37.4437" fill="white"/>
<rect x="952.682" y="54.4199" width="69.0266" height="10.4191" rx="4.88396" fill="#CCCCCC"/>
<circle cx="938.354" cy="59.6295" r="5.20956" fill="#CCCCCC"/>
<rect x="827" y="98.2134" width="320.723" height="542.118" fill="#F2F2F2"/>
<path d="M1115 132.117C1115 127.082 1110.92 123 1105.88 123H861.117C856.082 123 852 127.082 852 132.117V215.883C852 220.918 856.082 225 861.117 225H1115V132.117Z" fill="white"/>
<path d="M904.799 170.711L899.813 167.786L894.452 164.671L883.516 158.278C883.119 158.081 882.68 157.986 882.238 158.002C881.795 158.017 881.364 158.144 880.982 158.369C880.599 158.594 880.278 158.912 880.047 159.293C879.816 159.674 879.682 160.107 879.656 160.554V185.365C879.682 185.811 879.816 186.244 880.047 186.625C880.278 187.006 880.599 187.324 880.982 187.549C881.364 187.775 881.795 187.901 882.238 187.917C882.68 187.932 883.119 187.837 883.516 187.64L894.452 181.247L899.813 178.133L904.799 175.207C905.164 174.959 905.463 174.625 905.669 174.233C905.876 173.841 905.984 173.403 905.984 172.959C905.984 172.515 905.876 172.077 905.669 171.685C905.463 171.293 905.164 170.959 904.799 170.711Z" fill="#00A8A6"/>
<rect x="933.508" y="194.206" width="49.0658" height="5.98364" rx="2.99182" transform="rotate(-90 933.508 194.206)" fill="#00A8A6"/>
<rect x="943.082" y="188.222" width="37.0986" height="5.98364" rx="2.99182" transform="rotate(-90 943.082 188.222)" fill="#00A8A6"/>
<rect x="952.656" y="196" width="52.656" height="5.98364" rx="2.99182" transform="rotate(-90 952.656 196)" fill="#00A8A6"/>
<rect x="962.229" y="200.788" width="62.2299" height="5.98364" rx="2.99182" transform="rotate(-90 962.229 200.788)" fill="#00A8A6"/>
<rect x="971.803" y="194.206" width="49.0658" height="5.98364" rx="2.99182" transform="rotate(-90 971.803 194.206)" fill="#00A8A6"/>
<rect x="981.377" y="187.624" width="35.9018" height="5.98364" rx="2.99182" transform="rotate(-90 981.377 187.624)" fill="#F2F2F2"/>
<rect x="990.951" y="187.624" width="35.9018" height="5.98364" rx="2.99182" transform="rotate(-90 990.951 187.624)" fill="#F2F2F2"/>
<rect x="1000.53" y="183.435" width="27.5247" height="5.98364" rx="2.99182" transform="rotate(-90 1000.53 183.435)" fill="#F2F2F2"/>
<rect x="1010.1" y="188.222" width="37.0986" height="5.98364" rx="2.99182" transform="rotate(-90 1010.1 188.222)" fill="#F2F2F2"/>
<rect x="1019.67" y="196" width="52.656" height="5.98364" rx="2.99182" transform="rotate(-90 1019.67 196)" fill="#F2F2F2"/>
<rect x="1029.25" y="197.795" width="56.2462" height="5.98364" rx="2.99182" transform="rotate(-90 1029.25 197.795)" fill="#F2F2F2"/>
<rect x="1038.82" y="196" width="52.656" height="5.98364" rx="2.99182" transform="rotate(-90 1038.82 196)" fill="#F2F2F2"/>
<rect x="1048.39" y="188.222" width="37.0986" height="5.98364" rx="2.99182" transform="rotate(-90 1048.39 188.222)" fill="#F2F2F2"/>
<rect x="1057.97" y="188.222" width="37.0986" height="5.98364" rx="2.99182" transform="rotate(-90 1057.97 188.222)" fill="#F2F2F2"/>
<rect x="1067.54" y="194.206" width="49.0658" height="5.98364" rx="2.99182" transform="rotate(-90 1067.54 194.206)" fill="#F2F2F2"/>
<rect x="1077.12" y="194.206" width="49.0658" height="5.98364" rx="2.99182" transform="rotate(-90 1077.12 194.206)" fill="#F2F2F2"/>
</g>
</g>
<defs>
<filter id="filter0_d" x="825" y="28" width="324.388" height="682.545" filterUnits="userSpaceOnUse" color-interpolation-filters="sRGB">
<feFlood flood-opacity="0" result="BackgroundImageFix"/>
<feColorMatrix in="SourceAlpha" type="matrix" values="0 0 0 0 0 0 0 0 0 0 0 0 0 0 0 0 0 0 127 0"/>
<feOffset/>
<feGaussianBlur stdDeviation="1"/>
<feColorMatrix type="matrix" values="0 0 0 0 0 0 0 0 0 0 0 0 0 0 0 0 0 0 0.25 0"/>
<feBlend mode="normal" in2="BackgroundImageFix" result="effect1_dropShadow"/>
<feBlend mode="normal" in="SourceGraphic" in2="effect1_dropShadow" result="shape"/>
</filter>
<clipPath id="clip0">
<rect width="1396" height="300" fill="white"/>
</clipPath>
<clipPath id="clip1">
<rect width="304" height="643.837" fill="white" transform="translate(683 143)"/>
</clipPath>
<clipPath id="clip2">
<rect width="304.549" height="645" fill="white" transform="translate(987 143)"/>
</clipPath>
<clipPath id="clip3">
<rect width="320.388" height="678.545" fill="white" transform="translate(827 30)"/>
</clipPath>
</defs>
</svg>
